<svg width="67" height="86" viewBox="0 0 67 86" fill="none" xmlns="http://www.w3.org/2000/svg">
<path d="M33.2198 83.99C42.2522 83.99 47.412 80.7875 48.6348 76.6389H17.8086C19.0314 80.7875 24.1874 83.99 33.2198 83.99Z" fill="#D0CFCE"/>
<path d="M51.7231 6.58252C51.7231 6.58252 28.6082 1.64894 17.3248 8.39355C6.04327 15.1382 2.86426 30.6568 2.86426 30.6568C3.96954 33.815 10.8515 42.7774 10.8515 42.7774C11.8721 44.0776 15.1097 54.1673 16.9921 59.7031H49.4438C51.0809 55.6429 57.6653 40.2228 58.5253 38.7101C59.6291 36.7649 61.5115 32.9787 62.4622 31.5502C64.7491 28.1122 63.4787 25.1923 63.4787 21.5217C63.4787 13.6911 59.8838 10.4957 51.7209 6.57967L51.7231 6.58252Z" fill="#FCEA2B"/>
<path d="M33.2198 2.00428C17.0942 2.00428 2.03449 11.6403 2.03449 23.8108C2.03449 25.3507 1.53534 30.2201 4.33465 30.2201C4.33465 30.2201 8.85746 19.0528 20.139 12.3096C31.4205 5.5664 49.4721 6.99353 49.4721 6.99353C48.2161 4.07505 38.9825 2 33.2255 2L33.2198 2.00428Z" fill="white"/>
<path d="M65.0477 25.6208C65.0477 31.3079 61.674 34.0523 57.9526 40.6056C57.0023 42.2782 49.9937 59.7006 49.9937 59.7006H17.5421C17.5421 59.7006 11.9079 43.046 10.8401 41.6903C6.36072 35.9846 2.48808 31.8288 2.48808 25.6208C2.48808 12.5754 16.4931 2.0018 33.7679 2.0018C51.0445 2.0018 65.0477 12.5768 65.0477 25.6208Z" stroke="black" stroke-width="3.78004" stroke-miterlimit="10" stroke-linecap="round" stroke-linejoin="round"/>
<path d="M33.7678 59.1151V42.0752V59.1151Z" fill="black"/>
<path d="M33.7678 59.1151V42.0752" stroke="black" stroke-width="3.78004" stroke-miterlimit="10" stroke-linecap="round" stroke-linejoin="round"/>
<path d="M45.0513 42.0752H22.4845H45.0513Z" fill="black"/>
<path d="M45.0513 42.0752H22.4845" stroke="black" stroke-width="3.78004" stroke-miterlimit="10" stroke-linecap="round" stroke-linejoin="round"/>
<path d="M49.1905 75.627C49.1905 80.2509 42.29 84 33.7774 84C25.2647 84 18.3643 80.2509 18.3643 75.627H49.1905Z" stroke="black" stroke-width="3.20547" stroke-miterlimit="10" stroke-linecap="round" stroke-linejoin="round"/>
<path d="M18.6288 70.1897L48.9069 65.2375L18.6288 70.1897Z" fill="black"/>
<path d="M18.6288 70.1897L48.9069 65.2375" stroke="black" stroke-width="3.71389" stroke-miterlimit="10" stroke-linecap="round" stroke-linejoin="round"/>
<path d="M37.9259 71.7452L48.8502 70.0612L37.9259 71.7452Z" fill="black"/>
<path d="M37.9259 71.7452L48.8502 70.0612" stroke="black" stroke-width="3.78004" stroke-miterlimit="10" stroke-linecap="round" stroke-linejoin="round"/>
<path d="M18.6855 65.3659L29.6098 63.6819L18.6855 65.3659Z" fill="black"/>
<path d="M18.6855 65.3659L29.6098 63.6819" stroke="black" stroke-width="3.78004" stroke-miterlimit="10" stroke-linecap="round" stroke-linejoin="round"/>
</svg>
