<svg width="37" height="10" viewBox="0 0 37 10" fill="none" xmlns="http://www.w3.org/2000/svg">
<path d="M36.5706 4.76168C36.5706 2.18611 28.4037 0.0994873 18.3383 0.0994873C8.26606 0.0994873 0.105957 2.18611 0.105957 4.76168C0.105957 7.08811 6.77101 9.01709 15.4895 9.36646V6.10963H10.8596V4.76197H15.4895V3.73425C15.4895 2.56608 18.2072 1.92095 22.3733 1.92095C24.3686 1.92095 26.4573 2.01186 26.4573 2.01186V3.15905H24.1544C21.8936 3.15905 21.1871 3.51891 21.1871 3.88752V4.76168H26.2431L25.4306 6.10934H21.1871V9.36617C29.8987 9.0168 36.5706 7.08782 36.5706 4.76138V4.76168Z" fill="white"/>
</svg>
