<svg width="32" height="9" viewBox="0 0 32 9" fill="none" xmlns="http://www.w3.org/2000/svg">
<path fill-rule="evenodd" clip-rule="evenodd" d="M9.76254 0.713338C11.392 0.694671 11.9113 0.69043 16.0604 0.69043C20.2103 0.69043 20.7288 0.694883 22.3573 0.713338C23.9842 0.731793 25.0952 0.796488 26.0668 0.890878C27.086 0.986784 28.0092 1.13705 28.7723 1.33123C29.5493 1.52193 30.1506 1.7527 30.5341 2.00745C30.9117 2.25032 31.1698 2.52798 31.2445 2.93439C31.3192 3.34165 31.3361 3.47146 31.3361 4.50849C31.3361 5.54551 31.3183 5.67532 31.2445 6.0826C31.1706 6.48898 30.9117 6.76666 30.5341 7.00952C30.1438 7.26047 29.6209 7.47362 28.7723 7.68574C28.0093 7.87994 27.086 8.03023 26.0668 8.1261C25.0952 8.22047 23.9842 8.28496 22.3583 8.30364C20.7288 8.32231 20.2094 8.32654 16.0604 8.32654C11.9113 8.32654 11.392 8.3221 9.76254 8.30364C8.13654 8.28517 7.02565 8.22047 6.05395 8.1261C5.04998 8.02853 4.1971 7.89785 3.34845 7.68574C2.57143 7.49504 1.97018 7.26426 1.58664 7.00952C1.209 6.76666 0.951007 6.48898 0.876322 6.0826C0.801638 5.67532 0.784668 5.54571 0.784668 4.50849C0.784668 3.47125 0.802485 3.34165 0.876322 2.9346C0.95016 2.52798 1.209 2.25032 1.58664 2.00745C1.97036 1.75272 2.57157 1.52196 3.34845 1.33123C4.11143 1.13702 5.03472 0.986739 6.05395 0.890878C7.02565 0.796488 8.13654 0.732005 9.76254 0.713338ZM22.2335 1.40059C20.6227 1.38234 20.139 1.37832 16.0604 1.37832C11.9818 1.37832 11.498 1.38234 9.88731 1.40059C8.39792 1.41756 7.58916 1.47971 7.0511 1.5321C6.33824 1.60125 5.82905 1.68397 5.29439 1.8176C4.76061 1.95124 4.42878 2.07851 4.15212 2.25668C3.94249 2.39116 3.69385 2.59331 3.62595 2.96557C3.55296 3.36816 3.53684 3.48907 3.53684 4.50849C3.53684 5.52791 3.55296 5.6488 3.62595 6.0514C3.69385 6.42366 3.94249 6.62581 4.15212 6.76031C4.39684 6.92615 4.78717 7.07617 5.29439 7.19938C5.78725 7.32614 6.38754 7.42371 7.0511 7.48487C7.58916 7.53728 8.39792 7.59941 9.88731 7.61639C11.498 7.63464 11.9809 7.63867 16.0604 7.63867C20.1398 7.63867 20.6227 7.63464 22.2335 7.61639C23.7228 7.59941 24.5316 7.53728 25.0697 7.48487C25.7826 7.41573 26.2918 7.33302 26.8264 7.19938C27.3336 7.0762 27.724 6.92615 27.9687 6.76031C28.1783 6.62581 28.4269 6.42366 28.4948 6.0514C28.5679 5.6488 28.584 5.52791 28.584 4.50849C28.584 3.48907 28.5679 3.36816 28.4948 2.96557C28.4269 2.59331 28.1783 2.39116 27.9687 2.25668C27.692 2.07851 27.3611 1.95124 26.8264 1.8176C26.2918 1.68419 25.7826 1.60125 25.0697 1.5321C24.5316 1.47971 23.7228 1.41756 22.2335 1.40059ZM14.11 5.68545C14.7283 5.74949 15.391 5.78243 16.0604 5.78243C17.4123 5.78243 18.7086 5.64821 19.6645 5.40931C20.6205 5.1704 21.1575 4.84635 21.1575 4.50849C21.1575 4.17062 20.6205 3.84657 19.6645 3.60766C18.7086 3.36875 17.4123 3.23453 16.0604 3.23453C15.391 3.23453 14.7283 3.26748 14.11 3.3315C13.4914 3.39552 12.9296 3.48936 12.4563 3.60766C11.983 3.72596 11.6076 3.86639 11.3514 4.02096C11.0953 4.17552 10.9634 4.34119 10.9634 4.50849C10.9634 4.67579 11.0953 4.84146 11.3514 4.99602C11.6076 5.15058 11.983 5.29102 12.4563 5.40931C12.9296 5.5276 13.4914 5.62145 14.11 5.68545ZM10.5084 3.1208C11.9809 2.75276 13.978 2.546 16.0604 2.546C18.1429 2.546 20.14 2.75276 21.6124 3.1208C23.0849 3.48884 23.9121 3.98802 23.9121 4.50849C23.9121 5.02896 23.0849 5.52812 21.6124 5.89618C20.14 6.2642 18.1429 6.47097 16.0604 6.47097C13.978 6.47097 11.9809 6.2642 10.5084 5.89618C9.03595 5.52812 8.20871 5.02896 8.20871 4.50849C8.20871 3.98802 9.03595 3.48884 10.5084 3.1208ZM25.6531 2.83839C26.0011 2.75139 26.1967 2.6334 26.1967 2.51037C26.1967 2.38733 26.0011 2.26934 25.6531 2.18235C25.305 2.09535 24.833 2.04648 24.3407 2.04648C23.8485 2.04648 23.3764 2.09535 23.0283 2.18235C22.6802 2.26934 22.4847 2.38733 22.4847 2.51037C22.4847 2.6334 22.6802 2.75139 23.0283 2.83839C23.3764 2.92539 23.8485 2.97426 24.3407 2.97426C24.833 2.97426 25.305 2.92539 25.6531 2.83839Z" fill="white"/>
</svg>
