<svg width="36" height="39" viewBox="0 0 36 39" fill="none" xmlns="http://www.w3.org/2000/svg">
<path d="M36 19.5C36 30.2719 27.9404 39 18 39C8.05957 39 0 30.2719 0 19.5C0 8.73435 8.05957 0 18 0C27.9404 0 36 8.73435 36 19.5ZM18.483 6.44758C14.5276 6.44758 12.0048 8.25267 10.0238 11.4608C9.76718 11.8764 9.85304 12.437 10.2209 12.7392L12.7394 14.8079C13.1171 15.1182 13.6554 15.0444 13.9489 14.641C15.2455 12.8595 16.1345 11.8264 18.108 11.8264C19.5907 11.8264 21.4248 12.8602 21.4248 14.4178C21.4248 15.5954 20.5275 16.2001 19.0635 17.0893C17.3561 18.1262 15.0968 19.4167 15.0968 22.6452V22.9597C15.0968 23.4808 15.4867 23.9032 15.9677 23.9032H20.0323C20.5132 23.9032 20.9032 23.4808 20.9032 22.9597V22.8549C20.9032 20.6169 26.9409 20.5238 26.9409 14.4677C26.9409 9.9071 22.5741 6.44758 18.483 6.44758ZM18 25.9476C16.159 25.9476 14.6613 27.5701 14.6613 29.5645C14.6613 31.5589 16.159 33.1814 18 33.1814C19.841 33.1814 21.3387 31.5589 21.3387 29.5645C21.3387 27.5701 19.841 25.9476 18 25.9476Z" fill="white"/>
</svg>
