<svg width="227" height="56" viewBox="0 0 227 56" fill="none" xmlns="http://www.w3.org/2000/svg">
<path d="M22.9958 19.5325C22.9958 13.5551 20.7474 8.70947 17.9738 8.70947C15.2002 8.70947 12.9518 13.5551 12.9518 19.5325C12.9518 25.5099 15.2002 30.3556 17.9738 30.3556C20.7474 30.3556 22.9958 25.5099 22.9958 19.5325Z" fill="white"/>
<path d="M1.12734 52.4944H7.86732V37.986L7.88538 37.1101C7.94517 35.6675 8.15123 34.3157 8.47137 33.1239L2.25469 33.1268L1.99174 33.1595C0.870421 33.4402 0 35.494 0 37.986V50.0649C0 51.4065 0.504734 52.4944 1.12734 52.4944Z" fill="white"/>
<path d="M36.0173 50.0649C36.0173 51.4065 35.5124 52.4944 34.8899 52.4944H28.0887V37.986L28.0763 37.2607C28.0251 35.7616 27.8159 34.3571 27.4846 33.1239L33.7626 33.1268C34.9188 33.1268 35.8718 35.0027 36.0019 37.4193L36.0173 37.986V50.0649Z" fill="white"/>
<path d="M25.8188 37.4193C25.6885 35.0027 24.7354 33.1268 23.5792 33.1268H12.3767L12.1138 33.1595C10.9924 33.4402 10.122 35.494 10.122 37.986V52.4944H25.8339V37.986L25.8188 37.4193Z" fill="white"/>
<path d="M29.2182 11.7616C31.6007 11.7616 33.5321 15.924 33.5321 21.0586C33.5321 26.1932 31.6007 30.3556 29.2182 30.3556C26.8357 30.3556 24.9043 26.1932 24.9043 21.0586C24.9043 15.924 26.8357 11.7616 29.2182 11.7616Z" fill="white"/>
<path d="M11.0787 21.0586C11.0787 15.924 9.14733 11.7616 6.76482 11.7616C4.38234 11.7616 2.45096 15.924 2.45096 21.0586C2.45096 26.1932 4.38234 30.3556 6.76482 30.3556C9.14733 30.3556 11.0787 26.1932 11.0787 21.0586Z" fill="white"/>
<path d="M188.659 51.485V10.297C188.659 7.85985 190.376 5.884 192.493 5.884L198.244 5.88386C198.244 5.88386 199.522 5.70851 199.522 3.6775C199.522 1.64649 201.592 0 203.356 0H212.303C214.067 0 216.137 1.64649 216.137 3.6775C216.137 5.70851 217.415 5.88386 217.415 5.88386L223.166 5.88415C225.283 5.88415 227 7.85985 227 10.2971V51.4852C227 53.9223 225.283 55.898 223.166 55.8982L192.493 55.898C190.376 55.898 188.659 53.9223 188.659 51.485ZM205.273 4.4133C203.509 4.4133 202.078 6.05979 202.078 8.0908C202.078 10.1218 200.8 11.7681 200.8 11.7681H214.859C214.859 11.7681 213.581 10.1218 213.581 8.0908C213.581 6.05979 212.15 4.4133 210.386 4.4133H205.273ZM195.688 16.1812L197.605 10.297H192.493V51.485H223.166V10.2971H218.054L219.971 16.1812H195.688ZM196.14 37.202L195.297 36.1463C195.073 35.8674 195.085 35.4292 195.331 35.1678L197.777 32.5521C197.889 32.4325 198.035 32.3666 198.187 32.3666C198.356 32.3666 198.512 32.4462 198.626 32.5869L205.345 40.9121L216.9 23.7999C217.014 23.6344 217.19 23.536 217.376 23.536L217.746 23.6816L220.384 26.0396C220.508 26.1529 220.589 26.3174 220.61 26.504C220.629 26.6859 220.587 26.8675 220.492 27.0107L205.644 48.9843L196.14 37.202Z" fill="white"/>
</svg>
