<svg width="30" height="14" viewBox="0 0 30 14" fill="none" xmlns="http://www.w3.org/2000/svg">
<path d="M27.0584 0.231812H2.70476C1.54011 0.231812 0.594971 0.671237 0.594971 1.21234V12.858C0.594971 13.3998 1.54011 13.8398 2.70476 13.8398H27.0584C28.2239 13.8398 29.1754 13.3998 29.1754 12.858V1.21234C29.1754 0.671237 28.2239 0.231812 27.0584 0.231812ZM9.07144 11.8277H4.83043V5.33387H9.07144V11.8277ZM6.95093 4.44594C5.59217 4.44594 4.49381 3.92166 4.49381 3.27528C4.49381 2.62984 5.59217 2.10556 6.95093 2.10556C8.30651 2.10556 9.40765 2.62984 9.40765 3.27528C9.40765 3.92166 8.30651 4.44594 6.95093 4.44594ZM24.9478 11.8277H20.7136V8.66991C20.7136 7.91655 20.6826 6.94793 18.5101 6.94793C16.3039 6.94793 15.9676 7.76838 15.9676 8.61528V11.8279H11.7302V5.33387H15.797V6.22065H15.8549C16.421 5.71035 17.8039 5.17189 19.8665 5.17189C24.1559 5.17189 24.9482 6.51644 24.9482 8.26563L24.9478 11.8277Z" fill="white"/>
</svg>
