<svg width="37" height="18" viewBox="0 0 37 18" fill="none" xmlns="http://www.w3.org/2000/svg">
<path d="M36.5708 9.10533C36.5708 4.2817 28.4039 0.373779 18.3385 0.373779C8.2663 0.373779 0.106201 4.2817 0.106201 9.10533C0.106201 13.4624 6.77125 17.0751 15.4897 17.7294V11.6298H10.8598V9.10588H15.4897V7.18112C15.4897 4.99332 18.2075 3.78509 22.3736 3.78509C24.3689 3.78509 26.4576 3.95535 26.4576 3.95535V6.10386H24.1546C21.8938 6.10386 21.1873 6.77783 21.1873 7.46817V9.10533H26.2434L25.4309 11.6293H21.1873V17.7288C29.8989 17.0745 36.5708 13.4618 36.5708 9.10479V9.10533Z" fill="white"/>
</svg>
