<svg width="40" height="43" viewBox="0 0 40 43" fill="none" xmlns="http://www.w3.org/2000/svg">
<path d="M28.3067 2.97651C32.2497 4.48051 35 7.87653 35 11.825V12.9H36.25C38.3211 12.9 40 14.3439 40 16.125V26.875C40 28.6561 38.3211 30.1 36.25 30.1H35V33.325C35 33.9187 34.4404 34.4 33.75 34.4H30V39.775C30 41.5561 28.3211 43 26.25 43C24.1789 43 22.5 41.5561 22.5 39.775V34.4H17.5V39.775C17.5 41.5561 15.8211 43 13.75 43C11.6789 43 10 41.5561 10 39.775V34.4H6.25C5.55964 34.4 5 33.9187 5 33.325V30.1H3.75C1.67893 30.1 0 28.6561 0 26.875V16.125C0 14.3439 1.67893 12.9 3.75 12.9H5V11.825C5 7.87653 7.75032 4.48051 11.6933 2.97651L10.3661 1.83514C9.87796 1.41533 9.87796 0.734674 10.3661 0.31486C10.8543 -0.104953 11.6457 -0.104953 12.1339 0.31486L14.4164 2.27786C15.0131 2.19374 15.6256 2.15 16.25 2.15H23.75C24.3744 2.15 24.9869 2.19374 25.5836 2.27786L27.8661 0.31486C28.3543 -0.104953 29.1457 -0.104953 29.6339 0.31486C30.122 0.734674 30.122 1.41533 29.6339 1.83514L28.3067 2.97651ZM25 34.4V39.775C25 40.3687 25.5596 40.85 26.25 40.85C26.9404 40.85 27.5 40.3687 27.5 39.775V34.4H25ZM15 34.4H12.5V39.775C12.5 40.3687 13.0596 40.85 13.75 40.85C14.4404 40.85 15 40.3687 15 39.775V34.4ZM5 15.05H3.75C3.05964 15.05 2.5 15.5313 2.5 16.125V26.875C2.5 27.4687 3.05964 27.95 3.75 27.95H5V15.05ZM35 15.05V27.95H36.25C36.9404 27.95 37.5 27.4687 37.5 26.875V16.125C37.5 15.5313 36.9404 15.05 36.25 15.05H35ZM7.58861 10.75H32.4114C31.8049 7.10328 28.1581 4.3 23.75 4.3H16.25C11.8419 4.3 8.19515 7.10328 7.58861 10.75ZM12.5 6.45H15V8.6H12.5V6.45ZM25 6.45H27.5V8.6H25V6.45ZM7.5 12.9V32.25H32.5V12.9H7.5Z" fill="white"/>
</svg>
