<svg width="33" height="35" viewBox="0 0 33 35" fill="none" xmlns="http://www.w3.org/2000/svg">
<path d="M25.2196 34.066H8.25481C6.14199 34.066 4.03556 32.9131 2.47562 30.9029C0.879175 28.8456 0 26.16 0 23.3405C0.000779072 22.0153 0.203215 20.7037 0.595334 19.4834C0.987453 18.263 1.56129 17.1587 2.28291 16.2357C3.46872 14.7085 4.97072 13.6775 6.6 13.2724V13.0465C6.6 5.85283 11.0413 0 16.5 0C21.9587 0 26.4 5.85283 26.4 13.0465V13.1782C30.2305 13.8975 33 18.0461 33 23.3405C33 26.1736 32.218 28.8418 30.7979 30.8538C30.0884 31.8705 29.2259 32.6812 28.2655 33.2342C27.305 33.7873 26.2677 34.0705 25.2196 34.066ZM16.5 2.89923C14.4585 2.90228 12.5014 3.97235 11.0578 5.87468C9.6143 7.77701 8.80231 10.3562 8.8 13.0465V15.8919L7.7781 15.9878C4.64997 16.2813 2.2 19.511 2.2 23.3405C2.2 27.5096 5.02934 31.1668 8.25481 31.1668H25.2196C28.3487 31.1668 30.8 27.7291 30.8 23.3405C30.8 19.1216 28.481 16.0208 25.2863 15.9675L24.2 15.9494V13.0465C24.1977 10.3562 23.3857 7.77701 21.9422 5.87468C20.4986 3.97235 18.5415 2.90228 16.5 2.89923Z" fill="white"/>
</svg>
