<svg width="30" height="17" viewBox="0 0 30 17" fill="none" xmlns="http://www.w3.org/2000/svg">
<path d="M27.0584 0.161133H2.70476C1.54011 0.161133 0.594971 0.680671 0.594971 1.32043V15.0892C0.594971 15.7298 1.54011 16.25 2.70476 16.25H27.0584C28.2239 16.25 29.1754 15.7298 29.1754 15.0892V1.32043C29.1754 0.680671 28.2239 0.161133 27.0584 0.161133ZM9.07144 13.8711H4.83043V6.19336H9.07144V13.8711ZM6.95093 5.14356C5.59217 5.14356 4.49381 4.52369 4.49381 3.75946C4.49381 2.99636 5.59217 2.37649 6.95093 2.37649C8.30651 2.37649 9.40765 2.99636 9.40765 3.75946C9.40765 4.52369 8.30651 5.14356 6.95093 5.14356ZM24.9478 13.8711H20.7136V10.1376C20.7136 9.2469 20.6826 8.10168 18.5101 8.10168C16.3039 8.10168 15.9676 9.07171 15.9676 10.073V13.8713H11.7302V6.19336H15.797V7.24182H15.8549C16.421 6.63849 17.8039 6.00186 19.8665 6.00186C24.1559 6.00186 24.9482 7.59153 24.9482 9.65963L24.9478 13.8711Z" fill="white"/>
</svg>
