<svg width="30" height="9" viewBox="0 0 30 9" fill="none" xmlns="http://www.w3.org/2000/svg">
<path d="M27.0582 0.053833H2.70452C1.53986 0.053833 0.594727 0.331239 0.594727 0.672835V8.02462C0.594727 8.3667 1.53986 8.64446 2.70452 8.64446H27.0582C28.2236 8.64446 29.1751 8.3667 29.1751 8.02462V0.672835C29.1751 0.331239 28.2236 0.053833 27.0582 0.053833ZM9.07119 7.37424H4.83018V3.27472H9.07119V7.37424ZM6.95069 2.71418C5.59193 2.71418 4.49357 2.38321 4.49357 1.97515C4.49357 1.56769 5.59193 1.23671 6.95069 1.23671C8.30627 1.23671 9.40741 1.56769 9.40741 1.97515C9.40741 2.38321 8.30627 2.71418 6.95069 2.71418ZM24.9476 7.37424H20.7133V5.38074C20.7133 4.90515 20.6824 4.29367 18.5099 4.29367C16.3036 4.29367 15.9674 4.81161 15.9674 5.34626V7.37436H11.73V3.27472H15.7967V3.83454H15.8547C16.4207 3.5124 17.8037 3.17247 19.8662 3.17247C24.1557 3.17247 24.948 4.02127 24.948 5.12553L24.9476 7.37424Z" fill="white"/>
</svg>
