<svg width="56" height="46" viewBox="0 0 56 46" fill="none" xmlns="http://www.w3.org/2000/svg">
<path d="M28 35.9377C25.9786 35.9391 23.9883 35.529 22.207 34.7442C20.4257 33.9593 18.9089 32.8242 17.7922 31.4402L20.7077 29.8483C21.506 30.8367 22.5897 31.6474 23.8621 32.2083C25.1344 32.7691 26.556 33.0626 28 33.0626C29.444 33.0626 30.8655 32.7691 32.1379 32.2083C33.4103 31.6474 34.4939 30.8367 35.2922 29.8483L38.2077 31.4402C37.091 32.8242 35.5742 33.9593 33.7929 34.7442C32.0116 35.529 30.0213 35.9391 28 35.9377Z" fill="white"/>
<path d="M35 20.125C34.3078 20.125 33.6311 20.2936 33.0555 20.6095C32.4799 20.9255 32.0313 21.3745 31.7664 21.8998C31.5015 22.4251 31.4322 23.0032 31.5673 23.5609C31.7023 24.1186 32.0356 24.6309 32.5251 25.0329C33.0146 25.435 33.6383 25.7088 34.3172 25.8198C34.9961 25.9307 35.6999 25.8738 36.3394 25.6562C36.9789 25.4386 37.5256 25.0701 37.9101 24.5973C38.2947 24.1245 38.5 23.5686 38.5 23C38.5045 22.6214 38.4171 22.2459 38.2428 21.8954C38.0685 21.5449 37.8109 21.2265 37.485 20.9588C37.1591 20.6911 36.7714 20.4794 36.3447 20.3363C35.9181 20.1931 35.4609 20.1213 35 20.125Z" fill="white"/>
<path d="M21 20.125C20.3078 20.125 19.6311 20.2936 19.0555 20.6095C18.4799 20.9255 18.0313 21.3745 17.7664 21.8998C17.5015 22.4251 17.4322 23.0032 17.5673 23.5609C17.7023 24.1186 18.0356 24.6309 18.5251 25.0329C19.0146 25.435 19.6383 25.7088 20.3172 25.8198C20.9961 25.9307 21.6999 25.8738 22.3394 25.6562C22.9789 25.4386 23.5256 25.0701 23.9101 24.5973C24.2947 24.1245 24.5 23.5686 24.5 23C24.5045 22.6214 24.4171 22.2459 24.2428 21.8954C24.0685 21.5449 23.8109 21.2265 23.485 20.9588C23.1591 20.6911 22.7714 20.4794 22.3447 20.3363C21.9181 20.1931 21.4609 20.1213 21 20.125Z" fill="white"/>
<path d="M52.5 23V20.125H49V14.375C48.9979 12.8505 48.2598 11.389 46.9474 10.311C45.6351 9.23306 43.8559 8.62671 42 8.625H38.5V2.875H35V8.625H21V2.875H17.5V8.625H14C12.1441 8.62671 10.3649 9.23306 9.05255 10.311C7.74025 11.389 7.00208 12.8505 7 14.375V20.125H3.5V23H7V30.1875H3.5V33.0625H7V37.375C7.00208 38.8995 7.74025 40.361 9.05255 41.439C10.3649 42.5169 12.1441 43.1233 14 43.125H42C43.8559 43.1233 45.6351 42.5169 46.9474 41.439C48.2598 40.361 48.9979 38.8995 49 37.375V33.0625H52.5V30.1875H49V23H52.5ZM45.5 37.375C45.4989 38.1372 45.1298 38.868 44.4737 39.407C43.8176 39.9459 42.9279 40.2491 42 40.25H14C13.0721 40.2491 12.1824 39.9459 11.5263 39.407C10.8702 38.868 10.5011 38.1372 10.5 37.375V14.375C10.5011 13.6128 10.8702 12.882 11.5263 12.343C12.1824 11.8041 13.0721 11.5009 14 11.5H42C42.9279 11.5009 43.8176 11.8041 44.4737 12.343C45.1298 12.882 45.4989 13.6128 45.5 14.375V37.375Z" fill="white"/>
</svg>
