<svg width="32" height="15" viewBox="0 0 32 15" fill="none" xmlns="http://www.w3.org/2000/svg">
<path fill-rule="evenodd" clip-rule="evenodd" d="M9.76254 0.396175C11.392 0.361215 11.9113 0.353271 16.0604 0.353271C20.2103 0.353271 20.7288 0.361612 22.3573 0.396175C23.9842 0.430739 25.0952 0.551903 26.0668 0.72868C27.086 0.908297 28.0092 1.18973 28.7723 1.55339C29.5493 1.91055 30.1506 2.34275 30.5341 2.81984C30.9117 3.2747 31.1698 3.79471 31.2445 4.55585C31.3192 5.31859 31.3361 5.56171 31.3361 7.5039C31.3361 9.44608 31.3183 9.6892 31.2445 10.452C31.1706 11.2131 30.9117 11.7331 30.5341 12.188C30.1438 12.6579 29.6209 13.0571 28.7723 13.4544C28.0093 13.8181 27.086 14.0996 26.0668 14.2791C25.0952 14.4559 23.9842 14.5767 22.3583 14.6116C20.7288 14.6466 20.2094 14.6545 16.0604 14.6545C11.9113 14.6545 11.392 14.6462 9.76254 14.6116C8.13654 14.577 7.02565 14.4559 6.05395 14.2791C5.04998 14.0964 4.1971 13.8516 3.34845 13.4544C2.57143 13.0973 1.97018 12.665 1.58664 12.188C1.209 11.7331 0.951007 11.2131 0.876322 10.452C0.801638 9.6892 0.784668 9.44647 0.784668 7.5039C0.784668 5.56132 0.802485 5.31859 0.876322 4.55626C0.95016 3.79471 1.209 3.2747 1.58664 2.81984C1.97036 2.34278 2.57157 1.9106 3.34845 1.55339C4.11143 1.18966 5.03472 0.908212 6.05395 0.72868C7.02565 0.551903 8.13654 0.431135 9.76254 0.396175ZM22.2335 1.68329C20.6227 1.64912 20.139 1.64157 16.0604 1.64157C11.9818 1.64157 11.498 1.64912 9.88731 1.68329C8.39792 1.71507 7.58916 1.83146 7.0511 1.92959C6.33824 2.05909 5.82905 2.21402 5.29439 2.46429C4.76061 2.71457 4.42878 2.95292 4.15212 3.28662C3.94249 3.53848 3.69385 3.91707 3.62595 4.61425C3.55296 5.36825 3.53684 5.59468 3.53684 7.5039C3.53684 9.41312 3.55296 9.63953 3.62595 10.3935C3.69385 11.0907 3.94249 11.4693 4.15212 11.7212C4.39684 12.0318 4.78717 12.3128 5.29439 12.5435C5.78725 12.7809 6.38754 12.9637 7.0511 13.0782C7.58916 13.1764 8.39792 13.2927 9.88731 13.3245C11.498 13.3587 11.9809 13.3662 16.0604 13.3662C20.1398 13.3662 20.6227 13.3587 22.2335 13.3245C23.7228 13.2927 24.5316 13.1764 25.0697 13.0782C25.7826 12.9487 26.2918 12.7938 26.8264 12.5435C27.3336 12.3128 27.724 12.0318 27.9687 11.7212C28.1783 11.4693 28.4269 11.0907 28.4948 10.3935C28.5679 9.63953 28.584 9.41312 28.584 7.5039C28.584 5.59468 28.5679 5.36825 28.4948 4.61425C28.4269 3.91707 28.1783 3.53848 27.9687 3.28662C27.692 2.95292 27.3611 2.71457 26.8264 2.46429C26.2918 2.21442 25.7826 2.05909 25.0697 1.92959C24.5316 1.83146 23.7228 1.71507 22.2335 1.68329ZM14.11 9.70818C14.7283 9.82811 15.391 9.8898 16.0604 9.8898C17.4123 9.8898 18.7086 9.63843 19.6645 9.19099C20.6205 8.74356 21.1575 8.13667 21.1575 7.5039C21.1575 6.87113 20.6205 6.26424 19.6645 5.81679C18.7086 5.36935 17.4123 5.11797 16.0604 5.11797C15.391 5.11797 14.7283 5.17969 14.11 5.29959C13.4914 5.41949 12.9296 5.59524 12.4563 5.81679C11.983 6.03835 11.6076 6.30136 11.3514 6.59083C11.0953 6.8803 10.9634 7.19057 10.9634 7.5039C10.9634 7.81723 11.0953 8.1275 11.3514 8.41697C11.6076 8.70644 11.983 8.96945 12.4563 9.19099C12.9296 9.41253 13.4914 9.58831 14.11 9.70818ZM10.5084 4.90498C11.9809 4.2157 13.978 3.82847 16.0604 3.82847C18.1429 3.82847 20.14 4.2157 21.6124 4.90498C23.0849 5.59425 23.9121 6.52914 23.9121 7.5039C23.9121 8.47866 23.0849 9.41351 21.6124 10.1028C20.14 10.7921 18.1429 11.1793 16.0604 11.1793C13.978 11.1793 11.9809 10.7921 10.5084 10.1028C9.03595 9.41351 8.20871 8.47866 8.20871 7.5039C8.20871 6.52914 9.03595 5.59425 10.5084 4.90498ZM25.6531 4.37607C26.0011 4.21314 26.1967 3.99216 26.1967 3.76174C26.1967 3.53131 26.0011 3.31033 25.6531 3.1474C25.305 2.98447 24.833 2.89293 24.3407 2.89293C23.8485 2.89293 23.3764 2.98447 23.0283 3.1474C22.6802 3.31033 22.4847 3.53131 22.4847 3.76174C22.4847 3.99216 22.6802 4.21314 23.0283 4.37607C23.3764 4.539 23.8485 4.63054 24.3407 4.63054C24.833 4.63054 25.305 4.539 25.6531 4.37607Z" fill="white"/>
</svg>
