<svg width="32" height="13" viewBox="0 0 32 13" fill="none" xmlns="http://www.w3.org/2000/svg">
<path fill-rule="evenodd" clip-rule="evenodd" d="M9.76254 0.2764C11.392 0.246831 11.9113 0.240112 16.0604 0.240112C20.2103 0.240112 20.7288 0.247166 22.3573 0.2764C23.9842 0.305634 25.0952 0.408115 26.0668 0.557632C27.086 0.709553 28.0092 0.947585 28.7723 1.25517C29.5493 1.55726 30.1506 1.92281 30.5341 2.32634C30.9117 2.71106 31.1698 3.15088 31.2445 3.79465C31.3192 4.43978 31.3361 4.64541 31.3361 6.28811C31.3361 7.9308 31.3183 8.13644 31.2445 8.78159C31.1706 9.42532 30.9117 9.86518 30.5341 10.2499C30.1438 10.6474 29.6209 10.985 28.7723 11.321C28.0093 11.6287 27.086 11.8667 26.0668 12.0186C25.0952 12.1681 23.9842 12.2702 22.3583 12.2998C20.7288 12.3294 20.2094 12.3361 16.0604 12.3361C11.9113 12.3361 11.392 12.3291 9.76254 12.2998C8.13654 12.2706 7.02565 12.1681 6.05395 12.0186C5.04998 11.864 4.1971 11.657 3.34845 11.321C2.57143 11.019 1.97018 10.6534 1.58664 10.2499C1.209 9.86518 0.951007 9.42532 0.876322 8.78159C0.801638 8.13644 0.784668 7.93113 0.784668 6.28811C0.784668 4.64507 0.802485 4.43978 0.876322 3.795C0.95016 3.15088 1.209 2.71106 1.58664 2.32634C1.97036 1.92284 2.57157 1.5573 3.34845 1.25517C4.11143 0.94753 5.03472 0.709481 6.05395 0.557632C7.02565 0.408115 8.13654 0.30597 9.76254 0.2764ZM22.2335 1.36504C20.6227 1.33614 20.139 1.32976 16.0604 1.32976C11.9818 1.32976 11.498 1.33614 9.88731 1.36504C8.39792 1.39192 7.58916 1.49037 7.0511 1.57336C6.33824 1.6829 5.82905 1.81393 5.29439 2.02561C4.76061 2.23729 4.42878 2.4389 4.15212 2.72113C3.94249 2.93416 3.69385 3.25437 3.62595 3.84405C3.55296 4.48178 3.53684 4.6733 3.53684 6.28811C3.53684 7.90293 3.55296 8.09443 3.62595 8.73216C3.69385 9.32185 3.94249 9.64206 4.15212 9.85511C4.39684 10.1178 4.78717 10.3554 5.29439 10.5506C5.78725 10.7514 6.38754 10.906 7.0511 11.0029C7.58916 11.0859 8.39792 11.1843 9.88731 11.2112C11.498 11.2401 11.9809 11.2465 16.0604 11.2465C20.1398 11.2465 20.6227 11.2401 22.2335 11.2112C23.7228 11.1843 24.5316 11.0859 25.0697 11.0029C25.7826 10.8933 26.2918 10.7623 26.8264 10.5506C27.3336 10.3555 27.724 10.1178 27.9687 9.85511C28.1783 9.64206 28.4269 9.32185 28.4948 8.73216C28.5679 8.09443 28.584 7.90293 28.584 6.28811C28.584 4.6733 28.5679 4.48178 28.4948 3.84405C28.4269 3.25437 28.1783 2.93416 27.9687 2.72113C27.692 2.4389 27.3611 2.23729 26.8264 2.02561C26.2918 1.81427 25.7826 1.6829 25.0697 1.57336C24.5316 1.49037 23.7228 1.39192 22.2335 1.36504ZM14.11 8.15249C14.7283 8.25393 15.391 8.30611 16.0604 8.30611C17.4123 8.30611 18.7086 8.0935 19.6645 7.71506C20.6205 7.33662 21.1575 6.82331 21.1575 6.28811C21.1575 5.75292 20.6205 5.23961 19.6645 4.86116C18.7086 4.48271 17.4123 4.27009 16.0604 4.27009C15.391 4.27009 14.7283 4.32229 14.11 4.42371C13.4914 4.52512 12.9296 4.67376 12.4563 4.86116C11.983 5.04855 11.6076 5.271 11.3514 5.51584C11.0953 5.76067 10.9634 6.0231 10.9634 6.28811C10.9634 6.55312 11.0953 6.81555 11.3514 7.06039C11.6076 7.30522 11.983 7.52768 12.4563 7.71506C12.9296 7.90243 13.4914 8.0511 14.11 8.15249ZM10.5084 4.08995C11.9809 3.50696 13.978 3.17944 16.0604 3.17944C18.1429 3.17944 20.14 3.50696 21.6124 4.08995C23.0849 4.67293 23.9121 5.46366 23.9121 6.28811C23.9121 7.11257 23.0849 7.90326 21.6124 8.48629C20.14 9.06926 18.1429 9.39678 16.0604 9.39678C13.978 9.39678 11.9809 9.06926 10.5084 8.48629C9.03595 7.90326 8.20871 7.11257 8.20871 6.28811C8.20871 5.46366 9.03595 4.67293 10.5084 4.08995ZM25.6531 3.6426C26.0011 3.50478 26.1967 3.31788 26.1967 3.12299C26.1967 2.9281 26.0011 2.74119 25.6531 2.60338C25.305 2.46558 24.833 2.38816 24.3407 2.38816C23.8485 2.38816 23.3764 2.46558 23.0283 2.60338C22.6802 2.74119 22.4847 2.9281 22.4847 3.12299C22.4847 3.31788 22.6802 3.50478 23.0283 3.6426C23.3764 3.7804 23.8485 3.85782 24.3407 3.85782C24.833 3.85782 25.305 3.7804 25.6531 3.6426Z" fill="white"/>
</svg>
