<svg width="36" height="39" viewBox="0 0 36 39" fill="none" xmlns="http://www.w3.org/2000/svg">
<path d="M1.19171 25.4688L6.09327 0.748572C6.12875 0.565329 6.23705 0.395531 6.40275 0.263351C6.56845 0.131172 6.78312 0.0433476 7.01617 0.0123811C7.24923 -0.0185854 7.48881 0.00888417 7.7008 0.0908793C7.9128 0.172874 8.0864 0.305216 8.19689 0.469064L13.4674 8.22217L1.19171 25.4688ZM36 31.4669L31.3326 8.71781C31.2983 8.55835 31.2088 8.40936 31.0738 8.2871C30.9388 8.16483 30.7636 8.07401 30.5672 8.02453C30.3709 7.97506 30.161 7.96884 29.9604 8.00656C29.7599 8.04428 29.5764 8.12449 29.4301 8.23842L0 31.4669L16.2839 38.6626C16.7861 38.8838 17.3525 39 17.9285 39C18.5045 39 19.0709 38.8838 19.5731 38.6626L36 31.4669ZM22.7668 11.6153L18.9948 5.95685C18.8996 5.81456 18.7566 5.69538 18.5813 5.61224C18.4059 5.52909 18.2049 5.48514 18 5.48514C17.7951 5.48514 17.5941 5.52909 17.4187 5.61224C17.2434 5.69538 17.1004 5.81456 17.0052 5.95685L0.445596 29.2243L22.7668 11.6153Z" fill="white"/>
</svg>
