<svg width="37" height="16" viewBox="0 0 37 16" fill="none" xmlns="http://www.w3.org/2000/svg">
<path d="M36.5708 8.10524C36.5708 4.02541 28.4039 0.720093 18.3385 0.720093C8.2663 0.720093 0.106201 4.02541 0.106201 8.10524C0.106201 11.7904 6.77125 14.846 15.4897 15.3995V10.2405H10.8598V8.1057H15.4897V6.47774C15.4897 4.6273 18.2075 3.60538 22.3736 3.60538C24.3689 3.60538 26.4576 3.74939 26.4576 3.74939V5.5666H24.1546C21.8938 5.5666 21.1873 6.13664 21.1873 6.72052V8.10524H26.2434L25.4309 10.24H21.1873V15.399C29.8989 14.8456 36.5708 11.79 36.5708 8.10478V8.10524Z" fill="white"/>
</svg>
