<svg width="43" height="61" viewBox="0 0 43 61" fill="none" xmlns="http://www.w3.org/2000/svg">
<path d="M21.499 14.6497C19.9342 14.6497 18.4045 15.1288 17.1034 16.0264C15.8023 16.924 14.7882 18.1999 14.1893 19.6926C13.5905 21.1853 13.4338 22.8278 13.7391 24.4124C14.0444 25.9971 14.7979 27.4527 15.9044 28.5951C17.0109 29.7376 18.4207 30.5156 19.9555 30.8308C21.4902 31.146 23.0811 30.9842 24.5268 30.3659C25.9725 29.7477 27.2082 28.7006 28.0776 27.3572C28.9469 26.0138 29.411 24.4344 29.411 22.8187C29.4086 20.6529 28.5742 18.5765 27.091 17.045C25.6077 15.5136 23.5967 14.6521 21.499 14.6497ZM21.499 26.9032C20.7166 26.9032 19.9518 26.6637 19.3012 26.2149C18.6506 25.7661 18.1436 25.1282 17.8442 24.3818C17.5448 23.6355 17.4664 22.8142 17.6191 22.0219C17.7717 21.2295 18.1485 20.5018 18.7017 19.9305C19.255 19.3593 19.9599 18.9703 20.7273 18.8127C21.4946 18.6551 22.29 18.736 23.0129 19.0451C23.7358 19.3543 24.3536 19.8778 24.7883 20.5495C25.223 21.2212 25.455 22.0109 25.455 22.8187C25.4538 23.9016 25.0366 24.9398 24.295 25.7055C23.5534 26.4713 22.5478 26.902 21.499 26.9032Z" fill="black"/>
<path d="M36.7026 7.10905C32.9435 3.2288 27.9256 0.923776 22.6173 0.638846C17.309 0.353916 12.0866 2.10928 7.95813 5.56615C3.82962 9.02303 1.08765 13.9363 0.261403 19.3578C-0.56484 24.7793 0.583222 30.3246 3.48401 34.9236L18.431 58.6155C18.7637 59.1427 19.2185 59.5758 19.7542 59.8757C20.2899 60.1755 20.8897 60.3325 21.4991 60.3325C22.1085 60.3325 22.7082 60.1755 23.244 59.8757C23.7797 59.5758 24.2345 59.1427 24.5671 58.6155L39.5146 34.9236C42.2062 30.6574 43.3957 25.5656 42.8838 20.5016C42.3718 15.4377 40.1895 10.7093 36.7026 7.10905ZM36.2 32.694L21.4991 55.995L6.79813 32.694C2.29821 25.5616 3.26334 16.0165 9.09297 9.9972C10.7222 8.31502 12.6563 6.98064 14.7849 6.07025C16.9136 5.15986 19.1951 4.69129 21.4991 4.69129C23.8032 4.69129 26.0847 5.15986 28.2133 6.07025C30.342 6.98064 32.2761 8.31502 33.9053 9.9972C39.7349 16.0165 40.7 25.5616 36.2 32.694Z" fill="black"/>
</svg>
