<svg width="43" height="48" viewBox="0 0 43 48" fill="none" xmlns="http://www.w3.org/2000/svg">
<path d="M21.499 11.2845C19.9342 11.2845 18.4045 11.6696 17.1034 12.391C15.8023 13.1125 14.7882 14.1378 14.1893 15.3375C13.5905 16.5372 13.4338 17.8573 13.7391 19.1309C14.0444 20.4045 14.7979 21.5743 15.9044 22.4925C17.0109 23.4107 18.4207 24.036 19.9555 24.2894C21.4902 24.5427 23.0811 24.4127 24.5268 23.9158C25.9725 23.4188 27.2082 22.5773 28.0776 21.4976C28.9469 20.4179 29.411 19.1486 29.411 17.85C29.4086 16.1094 28.5742 14.4406 27.091 13.2097C25.6077 11.9789 23.5967 11.2865 21.499 11.2845ZM21.499 21.1328C20.7166 21.1328 19.9518 20.9403 19.3012 20.5795C18.6506 20.2188 18.1436 19.7061 17.8442 19.1063C17.5448 18.5064 17.4664 17.8464 17.6191 17.2096C17.7717 16.5728 18.1485 15.9879 18.7017 15.5288C19.255 15.0697 19.9599 14.757 20.7272 14.6304C21.4946 14.5037 22.29 14.5687 23.0129 14.8172C23.7358 15.0656 24.3536 15.4864 24.7883 16.0262C25.223 16.5661 25.455 17.2008 25.455 17.85C25.4538 18.7204 25.0366 19.5548 24.295 20.1702C23.5533 20.7856 22.5478 21.1318 21.499 21.1328Z" fill="black"/>
<path d="M36.7026 5.2242C32.9435 2.10563 27.9256 0.253077 22.6173 0.0240785C17.309 -0.20492 12.0866 1.20587 7.95813 3.98417C3.82962 6.76246 1.08765 10.7113 0.261403 15.0686C-0.56484 19.4258 0.583222 23.8826 3.48401 27.5788L18.431 46.62C18.7637 47.0437 19.2185 47.3918 19.7542 47.6328C20.2899 47.8738 20.8897 48 21.4991 48C22.1085 48 22.7082 47.8738 23.244 47.6328C23.7797 47.3918 24.2345 47.0437 24.5671 46.62L39.5146 27.5788C42.2062 24.1501 43.3957 20.0578 42.8838 15.9879C42.3718 11.9179 40.1895 8.11772 36.7026 5.2242ZM36.2 25.7869L21.4991 44.5139L6.79813 25.7869C2.29821 20.0545 3.26334 12.3831 9.09297 7.5454C10.7222 6.19344 12.6563 5.12099 14.7849 4.38931C16.9136 3.65763 19.1951 3.28104 21.4991 3.28104C23.8032 3.28104 26.0847 3.65763 28.2133 4.38931C30.342 5.12099 32.2761 6.19344 33.9053 7.5454C39.7349 12.3831 40.7 20.0545 36.2 25.7869Z" fill="black"/>
</svg>
