<svg width="263" height="628" viewBox="0 0 263 628" fill="none" xmlns="http://www.w3.org/2000/svg">
<path opacity="0.2" d="M78.6526 32.6567L78.4656 32.5917L19.1159 204.026L228.336 226.309L228.572 226.334L236.238 87.1684L236.253 86.8948L78.6526 32.6567ZM138.755 142.904L19.9393 203.157L78.6413 33.5944L138.755 142.904ZM139.104 143.421L227.482 225.564L20.5741 203.528L139.104 143.421ZM139.213 142.661L79.1881 33.5104L235.255 87.2205L139.213 142.661ZM228.15 225.401L139.63 143.125L235.738 87.6476L228.15 225.401Z" fill="#0A0A0A"/>
<path d="M262.978 90.0665C262.789 96.6663 261.444 103.105 259.06 108.832C256.675 114.559 253.32 119.404 249.283 122.953C245.246 126.502 240.646 128.65 235.876 129.214C231.106 129.777 226.309 128.738 221.893 126.187C219.822 124.989 217.858 123.467 216.04 121.649C212.564 118.187 209.671 113.73 207.559 108.583V108.578C205.307 103.073 204.01 96.9223 203.772 90.6092C203.533 84.2962 204.359 77.9928 206.184 72.1944C208.009 66.396 210.784 61.2604 214.291 57.1912C217.797 53.122 221.939 50.2301 226.393 48.7426C230.846 47.255 235.488 47.2124 239.955 48.6182C244.423 50.0239 248.593 52.8396 252.138 56.8441C255.683 60.8486 258.507 65.9328 260.388 71.6972C262.269 77.4617 263.155 83.7493 262.978 90.0662L262.978 90.0665Z" fill="white"/>
<path opacity="0.09" d="M262.978 90.0665C262.789 96.6663 261.444 103.105 259.06 108.832C256.675 114.559 253.32 119.404 249.283 122.953C245.246 126.502 240.646 128.65 235.876 129.214C231.106 129.777 226.309 128.738 221.893 126.187C219.822 124.989 217.858 123.467 216.04 121.649C212.564 118.187 209.671 113.73 207.559 108.583V108.578C205.307 103.073 204.01 96.9223 203.772 90.6092C203.533 84.2962 204.359 77.9928 206.184 72.1944C208.009 66.396 210.784 61.2604 214.291 57.1912C217.797 53.122 221.939 50.2301 226.393 48.7426C230.846 47.255 235.488 47.2124 239.955 48.6182C244.423 50.0239 248.593 52.8396 252.138 56.8441C255.683 60.8486 258.507 65.9328 260.388 71.6972C262.269 77.4617 263.155 83.7493 262.978 90.0662L262.978 90.0665Z" fill="#367CFF"/>
<path d="M240.373 57.3438C240.373 57.3438 247.458 57.4635 245.015 70.9344L244.35 70.9793L242.999 71.0701" fill="#0C0C0C"/>
<path d="M232.462 85.0677C232.495 85.0634 232.626 93.4658 239.704 93.1128C244.605 92.8694 246.548 85.8098 246.66 85.8156C246.138 85.6331 245.257 85.3602 245.028 85.176C244.275 84.5647 243.339 83.9202 243.149 81.8451C243.04 80.6492 243.453 74.5835 243.412 73.3774L235.847 75.2856C235.88 77.8304 236.448 83.7556 233.848 84.6597C233.415 84.8093 232.95 84.9431 232.462 85.0677Z" fill="#E98862"/>
<path opacity="0.52" d="M235.543 82.3412C235.675 81.8251 235.766 81.2905 235.814 80.747C235.931 79.5074 235.95 78.2538 235.87 77.0085C237.402 76.8063 238.863 76.015 240.085 74.7246C240.205 75.4404 240.884 78.5838 240.651 79.2469C240.215 80.5008 238.273 82.4876 235.543 82.3412Z" fill="#0C0C0C"/>
<path d="M237.26 80.8567C240.226 80.5639 243.803 78.0727 243.928 72.5279L244.04 67.5257C244.164 61.9819 242.154 57.3975 238.371 57.2361C234.588 57.0734 231.659 61.448 231.535 66.9918L231.486 69.2065C231.478 69.9675 231.508 70.7284 231.576 71.4839C231.744 73.4815 232.004 76.5189 232.958 78.5929C233.858 80.5509 235.365 81.0431 237.26 80.8567Z" fill="#E98862"/>
<path d="M243.655 74.208C244.805 74.2568 245.775 72.5995 245.81 71.0134C245.846 69.4274 244.933 68.5125 243.784 68.4634L243.167 69.5009L242.666 74.1657L243.655 74.208Z" fill="#E98862"/>
<path d="M231.73 73.1582C231.937 73.4979 232.203 73.7606 232.503 73.9224C232.804 74.0841 233.128 74.1397 233.448 74.0841C234.132 73.9653 234.585 74.3525 235.156 74.2747C235.635 74.2097 235.718 73.9042 236.536 73.8375C239.693 73.5795 242.062 73.3049 242.215 67.8394L244.224 65.3776C244.224 65.3776 245.122 80.523 239.185 82.5362C235.536 83.7725 232.114 83.3206 231.674 78.593C231.317 74.7517 231.73 73.1582 231.73 73.1582Z" fill="#0C0C0C"/>
<path d="M233.225 69.9951C233.483 69.9951 233.692 69.7071 233.692 69.3519C233.692 68.9966 233.483 68.7087 233.225 68.7087C232.968 68.7087 232.759 68.9966 232.759 69.3519C232.759 69.7071 232.968 69.9951 233.225 69.9951Z" fill="#0C0C0C"/>
<path d="M237.39 69.8754C237.648 69.8754 237.856 69.5874 237.856 69.2322C237.856 68.877 237.648 68.589 237.39 68.589C237.133 68.589 236.924 68.877 236.924 69.2322C236.924 69.5874 237.133 69.8754 237.39 69.8754Z" fill="#0C0C0C"/>
<path d="M242.545 71.6293C242.545 71.6293 242.26 63.7736 240.542 63.2455C239.397 62.8938 236.583 65.0717 234.012 64.328C232.887 64.0026 231.811 64.3605 231.692 65.0938C231.645 65.384 230.755 62.8102 232.565 59.6785C234.005 57.185 238.69 56.4836 240.773 57.3653C246.544 59.8073 244.017 68.8151 244.017 68.8151L243.722 71.5135L242.545 71.6293Z" fill="#0C0C0C"/>
<path d="M245.167 65.2949C246.865 65.2949 248.242 63.3951 248.242 61.0517C248.242 58.7083 246.865 56.8086 245.167 56.8086C243.468 56.8086 242.092 58.7083 242.092 61.0517C242.092 63.3951 243.468 65.2949 245.167 65.2949Z" fill="#0C0C0C"/>
<g opacity="0.52">
<path d="M235.212 74.0222H235.205C234.835 74.0075 234.215 73.9262 234.222 73.5439C234.228 73.227 234.927 69.8311 235.007 69.4446C235.014 69.4114 235.03 69.3832 235.052 69.3664C235.074 69.3496 235.1 69.3455 235.124 69.3549C235.148 69.3644 235.168 69.3866 235.18 69.4168C235.192 69.447 235.195 69.4826 235.189 69.5158C234.878 71.0199 234.415 73.3357 234.41 73.5501C234.445 73.6418 234.827 73.7453 235.21 73.7606C235.235 73.7602 235.259 73.7735 235.277 73.7977C235.295 73.8218 235.305 73.8547 235.306 73.8893C235.306 73.9238 235.296 73.957 235.279 73.9817C235.261 74.0064 235.237 74.0205 235.212 74.0209V74.0222Z" fill="#0C0C0C"/>
</g>
<path d="M234.084 67.1665C233.702 67.0101 233.296 66.9989 232.909 67.134C232.718 67.1986 232.536 67.3023 232.368 67.4418C232.201 67.5785 232.048 67.7436 231.911 67.9334C231.888 67.9626 231.873 68.0036 231.872 68.0474C231.87 68.0912 231.881 68.1341 231.902 68.1668C231.923 68.1995 231.953 68.2192 231.985 68.2216C232.016 68.224 232.047 68.2089 232.071 68.1797L232.078 68.1712C232.206 68.0128 232.347 67.8772 232.499 67.7674C232.648 67.6582 232.809 67.5808 232.975 67.5378C233.303 67.4493 233.642 67.4819 233.958 67.6324L233.97 67.6386C233.992 67.6505 234.016 67.6562 234.04 67.6553C234.064 67.6544 234.087 67.6469 234.109 67.6333C234.131 67.6197 234.151 67.6003 234.167 67.5761C234.183 67.5519 234.196 67.5235 234.204 67.4926C234.212 67.4616 234.216 67.4286 234.215 67.3957C234.214 67.3627 234.208 67.3304 234.198 67.3005C234.188 67.2707 234.173 67.244 234.155 67.2219C234.138 67.1999 234.117 67.1829 234.094 67.1721L234.084 67.1665Z" fill="#0C0C0C"/>
<path d="M236.831 67.6331C237.135 67.4406 237.47 67.3626 237.803 67.407C237.971 67.4273 238.137 67.4829 238.293 67.5719C238.452 67.6607 238.602 67.7767 238.74 67.9171L238.747 67.9243C238.773 67.9473 238.804 67.956 238.834 67.9484C238.864 67.9408 238.891 67.9176 238.909 67.8836C238.927 67.8495 238.935 67.8071 238.931 67.7652C238.928 67.7233 238.912 67.685 238.889 67.6581C238.739 67.4876 238.575 67.3438 238.4 67.23C238.223 67.1138 238.034 67.035 237.84 66.9961C237.445 66.914 237.041 66.98 236.672 67.187C236.628 67.2129 236.594 67.2614 236.576 67.3219C236.558 67.3825 236.558 67.4502 236.577 67.5106C236.595 67.5709 236.629 67.6189 236.673 67.6443C236.717 67.6696 236.766 67.6703 236.81 67.6461L236.818 67.6409L236.831 67.6331Z" fill="#0C0C0C"/>
<path d="M255.718 106.048C255.454 108.795 255.197 112.568 254.967 116.469C254.069 117.788 253.108 119.023 252.092 120.167C251.446 120.891 250.78 121.579 250.092 122.232C246.375 125.733 242.13 128.022 237.677 128.926C233.225 129.83 228.681 129.326 224.391 127.452C224.332 123.828 224.252 118.94 224.173 114.462C224.082 109.297 223.991 104.672 223.941 103.152C223.738 97.121 222.579 93.0968 223.455 89.8063C223.717 88.8323 224.138 87.9546 224.686 87.2416C226.727 84.4856 231.796 84.5484 233.83 84.6574C233.865 84.6594 233.237 91.134 239.927 91.0559C244.844 91.0003 245.213 85.2668 245.213 85.2668C245.213 85.2668 247.636 85.6146 249.245 86.0001C251.877 86.6361 253.589 87.9681 254.92 89.9572C256.163 91.812 256.896 93.781 255.718 106.048Z" fill="#367CFF"/>
<path d="M216.387 85.2957L216.589 78.387C216.594 78.2351 216.575 78.0835 216.535 77.9419C216.495 77.8003 216.434 77.6719 216.356 77.5647C216.277 77.4576 216.184 77.3741 216.081 77.3196C215.978 77.2652 215.868 77.2409 215.758 77.2483C215.555 77.2709 215.366 77.3966 215.226 77.601C215.087 77.8054 215.007 78.0739 215.003 78.3545L214.96 79.8361L213.546 75.0916C213.395 74.5603 212.964 74.0411 212.543 74.3134C212.377 74.4035 212.237 74.5691 212.147 74.783C212.057 74.9969 212.022 75.2465 212.048 75.4912C212.044 75.4918 212.04 75.493 212.036 75.4947C212.034 75.4968 212.031 75.4992 212.029 75.5019L211.797 74.6827C211.754 74.5309 211.687 74.3943 211.601 74.2829C211.515 74.1714 211.411 74.0878 211.299 74.0383C211.186 73.9888 211.067 73.9745 210.95 73.9965C210.833 74.0186 210.721 74.0764 210.623 74.1657C210.469 74.3107 210.356 74.5239 210.303 74.7699C210.25 75.0159 210.26 75.2795 210.33 75.5169L210.429 75.8653C210.423 75.874 210.418 75.884 210.415 75.8949C210.309 75.681 210.151 75.5261 209.969 75.458C209.788 75.3899 209.595 75.4129 209.424 75.523C209.241 75.6514 209.099 75.8707 209.027 76.137C208.955 76.4034 208.959 76.6973 209.037 76.9601L209.282 77.8261C209.273 77.8173 209.262 77.8117 209.25 77.8099C209.239 77.8081 209.227 77.8101 209.216 77.8157C209.203 77.8235 209.192 77.8362 209.185 77.8522C209.052 77.6977 208.886 77.6078 208.712 77.5963C208.538 77.5849 208.366 77.6525 208.223 77.7887C208.075 77.9362 207.967 78.1483 207.917 78.3908C207.867 78.6333 207.878 78.8919 207.948 79.1249L210.017 86.4318C210.307 87.454 210.811 88.3337 211.465 88.9579C212.12 89.5822 212.894 89.9227 213.689 89.9358C214.375 89.947 215.037 89.5888 215.535 88.9373C216.032 88.2858 216.326 87.3924 216.354 86.4468L216.387 85.2957Z" fill="#E98862"/>
<g opacity="0.2">
<path d="M213.431 80.1973C213.413 80.2069 213.393 80.2064 213.375 80.1959C213.358 80.1855 213.344 80.1659 213.336 80.1414L211.996 75.6266C211.992 75.6142 211.99 75.6007 211.989 75.587C211.989 75.5732 211.991 75.5596 211.994 75.5468C211.998 75.534 212.003 75.5223 212.01 75.5126C212.017 75.5028 212.026 75.495 212.035 75.4899C212.044 75.4847 212.054 75.4821 212.064 75.4823C212.074 75.4826 212.084 75.4856 212.093 75.4913C212.102 75.4969 212.11 75.505 212.117 75.5151C212.123 75.5253 212.128 75.5372 212.132 75.5501L213.472 80.0649C213.476 80.0772 213.477 80.0904 213.477 80.1036C213.477 80.1169 213.475 80.13 213.472 80.1423C213.468 80.1545 213.462 80.1656 213.456 80.175C213.449 80.1843 213.441 80.1917 213.432 80.1967L213.431 80.1973Z" fill="#0C0C0C"/>
</g>
<g opacity="0.2">
<path d="M212.004 81.0679C211.986 81.0775 211.966 81.077 211.948 81.0665C211.931 81.0559 211.917 81.0362 211.909 81.0116L210.414 75.973C210.407 75.9484 210.407 75.9209 210.415 75.8966C210.422 75.8723 210.436 75.853 210.454 75.8428C210.472 75.834 210.491 75.8348 210.509 75.845C210.526 75.8552 210.54 75.874 210.548 75.8978L212.044 80.9364C212.051 80.9612 212.051 80.989 212.043 81.0137C212.036 81.0384 212.022 81.058 212.004 81.0682V81.0679Z" fill="#0C0C0C"/>
</g>
<g opacity="0.2">
<path d="M210.462 82.0228C210.444 82.0324 210.424 82.0319 210.407 82.0214C210.389 82.0108 210.375 81.9911 210.368 81.9665L209.175 77.9475C209.168 77.9228 209.168 77.895 209.175 77.8703C209.183 77.8456 209.197 77.8261 209.215 77.8159C209.233 77.8058 209.253 77.8059 209.271 77.8163C209.289 77.8266 209.303 77.8463 209.31 77.8711L210.504 81.8891C210.511 81.9139 210.511 81.9417 210.504 81.9664C210.496 81.9911 210.482 82.0107 210.464 82.0208L210.462 82.0228Z" fill="#0C0C0C"/>
</g>
<path d="M232.962 96.1271L220.776 121.978C220.332 122.917 219.739 123.704 219.041 124.278C218.002 123.488 217 122.61 216.04 121.649C213.993 119.612 212.143 117.221 210.536 114.537L207.976 87.1544L218.22 84.8897L219.388 98.07L224.068 88.1428L232.962 96.1271Z" fill="#367CFF"/>
<path d="M234.391 75.4326C235.509 75.535 236.62 75.1205 237.548 74.2545C237.58 74.2247 237.617 74.2082 237.656 74.2068C237.695 74.2055 237.733 74.2194 237.766 74.2469C237.8 74.2745 237.827 74.3145 237.844 74.3623C237.861 74.4102 237.868 74.4638 237.864 74.5171C237.79 75.428 237.464 77.1035 236.078 77.317C235.184 77.4546 234.536 76.5069 234.209 75.8767C234.186 75.8331 234.173 75.7815 234.171 75.7279C234.169 75.6744 234.178 75.6212 234.197 75.5746C234.217 75.5279 234.245 75.4898 234.279 75.4646C234.314 75.4395 234.352 75.4284 234.391 75.4326Z" fill="white"/>
<path d="M259.022 108.953C257.221 113.237 254.873 117.036 252.092 120.167C251.446 120.891 250.78 121.579 250.092 122.232L245.332 97.2482L256.052 93.358L259.022 108.953Z" fill="#367CFF"/>
<path d="M250.196 122.134C250.162 122.165 250.126 122.199 250.092 122.232C250.059 122.264 250.024 122.297 249.99 122.327L246.363 103.294L246.592 103.212L250.196 122.134Z" fill="#0C0C0C"/>
<path d="M224.202 115.639C224.172 115.638 224.144 115.621 224.124 115.592C224.103 115.563 224.09 115.525 224.089 115.484L223.855 108.392C223.854 108.348 223.865 108.306 223.886 108.274C223.907 108.243 223.936 108.224 223.968 108.222C223.999 108.22 224.029 108.235 224.053 108.264C224.076 108.293 224.089 108.334 224.091 108.377L224.325 115.469C224.326 115.512 224.315 115.555 224.294 115.586C224.273 115.618 224.243 115.637 224.212 115.639H224.202Z" fill="#0C0C0C"/>
<path d="M144.342 175.564C161.027 175.564 174.553 156.902 174.553 133.882C174.553 110.862 161.027 92.201 144.342 92.201C127.658 92.201 114.132 110.862 114.132 133.882C114.132 156.902 127.658 175.564 144.342 175.564Z" fill="white"/>
<path opacity="0.09" d="M174.552 133.881C174.552 142.125 172.781 150.184 169.461 157.038C166.142 163.892 161.424 169.235 155.903 172.389C150.383 175.544 144.309 176.37 138.449 174.761C132.589 173.153 127.206 169.183 122.981 163.354C118.756 157.525 115.879 150.098 114.713 142.013C113.548 133.928 114.146 125.547 116.432 117.931C118.719 110.315 122.591 103.805 127.559 99.2251C132.527 94.6452 138.368 92.2007 144.343 92.2007C148.314 92.1804 152.249 93.2447 155.921 95.3322C159.593 97.4196 162.929 100.489 165.737 104.364C168.545 108.238 170.77 112.841 172.283 117.907C173.796 122.973 174.567 128.402 174.552 133.881Z" fill="#367CFF"/>
<path d="M130.97 109.298C130.97 109.298 130.666 115.59 129.64 117.873C126.686 124.445 125.83 131.838 128.788 135.702C131.746 139.565 150.613 139.618 152.043 130.734C153.245 123.254 150.664 122.45 150.035 116.28C149.751 113.488 148.969 107.634 148.969 107.634" fill="#0A0A0A"/>
<path d="M147.159 129.43C147.127 129.424 146.765 137.698 139.799 136.978C134.976 136.48 133.256 129.42 133.146 129.42C133.666 129.267 134.541 129.046 134.773 128.876C135.532 128.313 136.472 127.727 136.717 125.692C136.858 124.521 136.618 118.519 136.693 117.333L144.096 119.613C143.993 122.118 143.269 127.928 145.806 128.956C146.227 129.125 146.682 129.282 147.159 129.43Z" fill="#E98862"/>
<path opacity="0.5" d="M144.198 126.581C144.082 126.065 144.008 125.534 143.976 124.996C143.894 123.768 143.911 122.531 144.024 121.309C142.519 121.029 141.102 120.172 139.933 118.836C139.795 119.536 139.039 122.597 139.249 123.263C139.645 124.52 141.503 126.581 144.198 126.581Z" fill="#0C0C0C"/>
<path d="M143.241 124.003C140.322 124.394 136.546 122.782 135.764 117.419L135.058 112.58C134.276 107.218 135.683 102.304 139.342 101.287C143.002 100.271 146.372 103.858 147.154 109.222L147.467 111.364C147.767 113.421 148.449 123.308 143.241 124.003Z" fill="#E98862"/>
<path opacity="0.1" d="M141.386 116.977C141.866 116.898 142.221 116.44 142.179 115.954C142.137 115.468 141.714 115.138 141.233 115.217C140.753 115.296 140.398 115.754 140.44 116.24C140.482 116.726 140.905 117.056 141.386 116.977Z" fill="#0C0C0C"/>
<path opacity="0.1" d="M146.461 115.033C146.504 115.518 146.928 115.846 147.408 115.769C147.491 115.756 147.573 115.73 147.652 115.693C147.674 115.114 147.676 114.557 147.663 114.042C147.53 113.996 147.391 113.985 147.255 114.009C146.775 114.087 146.42 114.545 146.461 115.033Z" fill="#0C0C0C"/>
<path opacity="0.5" d="M144.339 116.533H144.346C144.494 116.49 144.641 116.435 144.785 116.37C144.999 116.272 145.28 116.108 145.242 115.84C145.197 115.534 144.11 112.406 143.985 112.05C143.974 112.021 143.954 111.999 143.932 111.989C143.909 111.979 143.884 111.981 143.862 111.996C143.84 112.01 143.823 112.035 143.815 112.066C143.806 112.098 143.806 112.132 143.816 112.163C144.279 113.497 145.027 115.686 145.057 115.891C145.033 115.987 144.677 116.175 144.309 116.277C144.285 116.284 144.265 116.304 144.252 116.331C144.238 116.359 144.233 116.392 144.237 116.425C144.241 116.457 144.253 116.487 144.272 116.507C144.291 116.527 144.315 116.537 144.339 116.533V116.533Z" fill="#0C0C0C"/>
<path d="M132.138 114.317L135.419 113.433C137.897 112.002 138.6 106.044 138.6 106.044C138.6 106.044 141.659 110.063 148.969 107.633C148.969 107.633 147.381 93.5531 136.587 97.8268C133.107 99.2046 130.641 104.099 131.008 110.582C131.265 115.126 132.138 114.317 132.138 114.317Z" fill="#0A0A0A"/>
<path d="M136.229 118.99C135.117 119.299 133.976 117.908 133.753 116.373C133.53 114.838 134.307 113.742 135.42 113.433L136.143 114.302L137.186 118.725L136.229 118.99Z" fill="#E98862"/>
<path d="M144.774 109.555C145.052 109.284 145.378 109.119 145.717 109.077C145.888 109.055 146.06 109.068 146.227 109.116C146.397 109.163 146.561 109.24 146.716 109.344L146.721 109.347C146.738 109.356 146.757 109.356 146.774 109.347C146.792 109.338 146.805 109.32 146.813 109.297C146.821 109.274 146.822 109.247 146.817 109.223C146.811 109.199 146.798 109.179 146.782 109.167C146.618 109.047 146.443 108.956 146.262 108.897C146.08 108.835 145.892 108.812 145.705 108.828C145.326 108.857 144.959 109.026 144.643 109.316C144.631 109.327 144.621 109.341 144.612 109.358C144.604 109.374 144.598 109.393 144.596 109.412C144.593 109.432 144.593 109.452 144.595 109.472C144.598 109.491 144.604 109.51 144.612 109.526C144.62 109.543 144.631 109.557 144.643 109.568C144.655 109.579 144.669 109.586 144.683 109.589C144.697 109.593 144.712 109.592 144.726 109.588C144.74 109.583 144.754 109.575 144.765 109.563L144.768 109.561L144.774 109.555Z" fill="#0C0C0C"/>
<path d="M141.777 110.127C141.405 110.025 141.019 110.062 140.661 110.236C140.483 110.32 140.316 110.441 140.165 110.594C140.015 110.744 139.878 110.921 139.759 111.118C139.747 111.138 139.741 111.163 139.743 111.189C139.744 111.215 139.752 111.239 139.766 111.256C139.78 111.273 139.798 111.283 139.817 111.282C139.835 111.281 139.853 111.271 139.866 111.252L139.87 111.247C139.984 111.068 140.115 110.911 140.258 110.778C140.399 110.645 140.555 110.542 140.718 110.472C141.044 110.332 141.39 110.312 141.722 110.416L141.731 110.419C141.745 110.424 141.759 110.425 141.773 110.422C141.788 110.419 141.801 110.413 141.814 110.403C141.826 110.392 141.837 110.379 141.845 110.363C141.854 110.347 141.86 110.329 141.864 110.309C141.867 110.29 141.868 110.27 141.865 110.25C141.863 110.231 141.858 110.212 141.85 110.195C141.843 110.178 141.832 110.164 141.821 110.152C141.809 110.141 141.796 110.133 141.782 110.128L141.777 110.127Z" fill="#0C0C0C"/>
<path d="M135.421 113.359C137.626 112.227 138.358 110.125 138.584 108.561C138.73 107.518 138.716 106.445 138.544 105.41L138.475 105.436C138.645 106.457 138.658 107.517 138.514 108.546C138.291 110.084 137.57 112.152 135.396 113.268L135.421 113.359Z" fill="#0C0C0C"/>
<path d="M163.305 127.782L164.626 121.601C164.655 121.465 164.704 121.339 164.77 121.231C164.837 121.123 164.918 121.035 165.011 120.973C165.103 120.91 165.203 120.875 165.306 120.87C165.409 120.864 165.511 120.888 165.606 120.94C165.78 121.044 165.92 121.233 165.999 121.47C166.078 121.708 166.09 121.978 166.033 122.227L165.75 123.553L168.026 119.949C168.274 119.542 168.767 119.261 169.079 119.675C169.207 119.824 169.295 120.027 169.328 120.253C169.361 120.479 169.337 120.714 169.261 120.919C169.265 120.921 169.268 120.924 169.271 120.927C169.273 120.93 169.274 120.933 169.276 120.937L169.658 120.309C169.729 120.193 169.818 120.1 169.918 120.037C170.018 119.974 170.127 119.943 170.237 119.946C170.347 119.949 170.456 119.985 170.554 120.053C170.653 120.121 170.739 120.218 170.807 120.338C170.911 120.529 170.964 120.764 170.958 121.003C170.951 121.242 170.886 121.47 170.772 121.65L170.609 121.917C170.612 121.928 170.615 121.939 170.615 121.95C170.755 121.805 170.928 121.733 171.103 121.748C171.278 121.763 171.444 121.863 171.57 122.031C171.705 122.22 171.782 122.472 171.788 122.737C171.794 123.001 171.727 123.259 171.601 123.459L171.196 124.122C171.207 124.118 171.218 124.118 171.228 124.121C171.239 124.124 171.249 124.131 171.257 124.14C171.267 124.152 171.274 124.168 171.277 124.185C171.428 124.104 171.594 124.094 171.75 124.156C171.906 124.218 172.043 124.349 172.139 124.529C172.238 124.72 172.287 124.952 172.279 125.186C172.27 125.421 172.204 125.645 172.092 125.821L168.681 131.417C168.204 132.2 167.569 132.768 166.856 133.049C166.143 133.33 165.386 133.311 164.681 132.994C164.073 132.721 163.567 132.131 163.269 131.351C162.971 130.571 162.906 129.661 163.086 128.815L163.305 127.782Z" fill="#E98862"/>
<g opacity="0.2">
<path d="M167.02 124.503C167.034 124.519 167.051 124.526 167.069 124.524C167.086 124.522 167.102 124.511 167.114 124.493L169.276 121.061C169.287 121.042 169.293 121.018 169.292 120.993C169.291 120.968 169.282 120.945 169.269 120.929C169.255 120.912 169.237 120.904 169.219 120.906C169.201 120.907 169.184 120.919 169.173 120.938L167.011 124.369C167.005 124.378 167.001 124.389 166.998 124.401C166.995 124.413 166.994 124.425 166.995 124.437C166.995 124.45 166.998 124.462 167.002 124.473C167.006 124.484 167.011 124.494 167.018 124.502L167.02 124.503Z" fill="#0C0C0C"/>
</g>
<g opacity="0.2">
<path d="M168.09 125.86C168.104 125.875 168.122 125.883 168.139 125.881C168.157 125.879 168.173 125.868 168.185 125.849L170.597 122.02C170.603 122.011 170.607 122 170.61 121.988C170.613 121.976 170.614 121.964 170.613 121.952C170.613 121.939 170.61 121.927 170.606 121.916C170.602 121.905 170.597 121.895 170.59 121.887C170.576 121.872 170.558 121.864 170.541 121.866C170.523 121.868 170.506 121.879 170.494 121.897L168.083 125.726C168.077 125.735 168.073 125.746 168.07 125.758C168.067 125.77 168.066 125.782 168.067 125.794C168.067 125.807 168.07 125.819 168.074 125.83C168.078 125.841 168.083 125.851 168.09 125.859L168.09 125.86Z" fill="#0C0C0C"/>
</g>
<g opacity="0.2">
<path d="M169.244 127.339C169.257 127.354 169.275 127.362 169.292 127.36C169.31 127.358 169.326 127.347 169.338 127.328L171.262 124.274C171.273 124.255 171.278 124.231 171.276 124.207C171.275 124.183 171.266 124.161 171.253 124.145C171.24 124.129 171.223 124.121 171.205 124.122C171.188 124.123 171.171 124.133 171.159 124.15L169.235 127.205C169.229 127.214 169.225 127.225 169.222 127.237C169.219 127.249 169.218 127.261 169.218 127.273C169.219 127.286 169.222 127.298 169.226 127.309C169.23 127.32 169.235 127.33 169.242 127.338L169.244 127.339Z" fill="#0C0C0C"/>
</g>
<path d="M171.342 130.481L166.237 162.436C166.225 162.507 166.213 162.582 166.199 162.654C165.052 164.309 163.81 165.833 162.485 167.212C162.219 167.485 161.952 167.755 161.679 168.015C161.51 168.041 161.339 168.054 161.169 168.055C160.259 168.054 159.366 167.724 158.578 167.096C157.789 166.468 157.135 165.566 156.68 164.479L146.95 141.251L155.934 134.091L158.979 141.359L161.209 127.399L171.342 130.481Z" fill="#0CBC8B"/>
<path d="M155.63 145.05C155.6 145.557 155.538 146.462 155.453 147.652C155.029 153.739 154.036 167.306 153.576 173.576C147.767 176.138 141.534 176.225 135.688 173.826H135.686C131.369 172.043 127.396 168.948 124.061 164.769C124.079 159.163 124.02 152.858 123.747 148.804C122.929 136.691 123.702 134.795 124.973 133.041C125.077 132.898 125.185 132.758 125.294 132.621C126.607 130.975 128.256 129.902 130.658 129.452C132.248 129.156 134.639 128.942 134.639 128.942C134.639 128.942 134.842 134.596 139.669 134.908C146.24 135.335 145.802 128.942 145.835 128.942C147.488 128.942 151.166 129.085 153.487 130.715C153.489 130.715 153.489 130.715 153.491 130.718C153.959 131.032 154.384 131.453 154.748 131.964C157.406 135.849 156.095 137.51 155.63 145.05Z" fill="#0CBC8B"/>
<path d="M145.317 117.59C144.369 118.255 143.287 118.465 142.242 118.188C142.206 118.178 142.169 118.183 142.135 118.202C142.1 118.221 142.071 118.253 142.049 118.294C142.028 118.335 142.015 118.384 142.013 118.434C142.011 118.485 142.019 118.536 142.037 118.58C142.349 119.337 143.087 120.632 144.354 120.104C145.172 119.764 145.482 118.602 145.596 117.884C145.604 117.834 145.602 117.782 145.589 117.734C145.576 117.686 145.554 117.645 145.525 117.614C145.495 117.583 145.46 117.564 145.424 117.56C145.387 117.556 145.35 117.566 145.317 117.59Z" fill="white"/>
<path d="M145.377 111.771C145.63 111.771 145.835 111.488 145.835 111.139C145.835 110.789 145.63 110.506 145.377 110.506C145.124 110.506 144.919 110.789 144.919 111.139C144.919 111.488 145.124 111.771 145.377 111.771Z" fill="#0C0C0C"/>
<path d="M140.973 112.834C141.226 112.834 141.431 112.551 141.431 112.202C141.431 111.853 141.226 111.57 140.973 111.57C140.72 111.57 140.515 111.853 140.515 112.202C140.515 112.551 140.72 112.834 140.973 112.834Z" fill="#0C0C0C"/>
<path d="M154.617 158.696C154.614 158.696 154.611 158.696 154.608 158.696C154.589 158.693 154.573 158.679 154.561 158.658C154.55 158.638 154.545 158.612 154.548 158.586L155.358 147.326C155.359 147.313 155.362 147.301 155.366 147.29C155.371 147.279 155.377 147.269 155.385 147.261C155.392 147.253 155.401 147.248 155.41 147.245C155.419 147.241 155.428 147.241 155.438 147.243C155.456 147.247 155.473 147.26 155.484 147.281C155.496 147.301 155.5 147.327 155.498 147.353L154.688 158.613C154.685 158.636 154.677 158.658 154.664 158.673C154.651 158.688 154.634 158.696 154.617 158.696Z" fill="#0C0C0C"/>
<path d="M149.714 158.154L154.141 155.426C154.239 155.366 154.344 155.335 154.45 155.334C154.556 155.334 154.662 155.364 154.759 155.422C154.857 155.481 154.945 155.567 155.017 155.675C155.089 155.782 155.144 155.91 155.179 156.049C155.237 156.308 155.223 156.588 155.141 156.834C155.058 157.08 154.912 157.275 154.731 157.381L153.781 157.967L157.379 158.018C157.78 158.014 158.272 158.362 158.245 158.981C158.246 159.221 158.189 159.453 158.082 159.642C157.975 159.83 157.824 159.962 157.656 160.018C157.657 160.023 157.657 160.028 157.657 160.033C157.657 160.038 157.656 160.042 157.656 160.046L158.273 160.04C158.387 160.039 158.5 160.073 158.603 160.139C158.706 160.206 158.798 160.304 158.87 160.425C158.943 160.547 158.995 160.689 159.022 160.842C159.05 160.995 159.053 161.154 159.03 161.308C158.991 161.551 158.892 161.767 158.751 161.921C158.61 162.075 158.435 162.157 158.255 162.154L157.992 162.157C157.989 162.168 157.984 162.177 157.978 162.185C158.156 162.24 158.314 162.381 158.423 162.581C158.533 162.782 158.587 163.03 158.576 163.281C158.558 163.555 158.466 163.809 158.319 163.994C158.171 164.178 157.978 164.279 157.779 164.276L157.127 164.282C157.136 164.291 157.144 164.303 157.149 164.317C157.155 164.331 157.157 164.346 157.157 164.362C157.157 164.38 157.153 164.398 157.145 164.413C157.294 164.523 157.412 164.697 157.482 164.908C157.551 165.12 157.569 165.358 157.531 165.584C157.488 165.821 157.389 166.031 157.249 166.18C157.109 166.328 156.936 166.408 156.76 166.405L151.259 166.459C150.489 166.467 149.735 166.157 149.094 165.57C148.453 164.982 147.953 164.144 147.66 163.163C147.406 162.316 147.402 161.367 147.648 160.516C147.894 159.666 148.37 158.981 148.976 158.608L149.714 158.154Z" fill="#E98862"/>
<g opacity="0.2">
<path d="M154.095 159.992C154.095 160.019 154.102 160.044 154.116 160.062C154.129 160.081 154.147 160.091 154.166 160.091L157.587 160.134C157.605 160.134 157.624 160.124 157.637 160.106C157.65 160.087 157.658 160.062 157.658 160.036C157.658 160.01 157.651 159.985 157.638 159.966C157.625 159.948 157.607 159.937 157.588 159.937L154.166 159.894C154.148 159.894 154.13 159.904 154.116 159.923C154.103 159.941 154.096 159.966 154.096 159.992H154.095Z" fill="#0C0C0C"/>
</g>
<g opacity="0.2">
<path d="M154.04 162.074C154.04 162.101 154.047 162.126 154.06 162.144C154.074 162.163 154.092 162.173 154.111 162.173L157.928 162.221C157.947 162.221 157.965 162.211 157.978 162.192C157.991 162.174 157.999 162.149 157.999 162.123C157.998 162.097 157.991 162.072 157.978 162.054C157.964 162.035 157.947 162.025 157.928 162.024L154.11 161.976C154.092 161.976 154.074 161.986 154.06 162.005C154.047 162.023 154.04 162.048 154.04 162.074Z" fill="#0C0C0C"/>
</g>
<g opacity="0.2">
<path d="M153.97 164.327C153.97 164.353 153.978 164.378 153.991 164.397C154.004 164.415 154.022 164.426 154.041 164.426L157.087 164.464C157.105 164.464 157.123 164.454 157.137 164.435C157.15 164.417 157.157 164.392 157.157 164.365C157.157 164.339 157.15 164.314 157.137 164.296C157.123 164.277 157.105 164.267 157.087 164.267L154.041 164.228C154.022 164.228 154.004 164.239 153.991 164.257C153.978 164.276 153.97 164.301 153.97 164.327V164.327Z" fill="#0C0C0C"/>
</g>
<path d="M150.982 169.031L135.688 173.826H135.686C131.369 172.043 127.396 168.948 124.061 164.769C123.702 164.32 123.352 163.86 123.009 163.389C122.411 162.566 121.84 161.711 121.295 160.822L123.436 137.059C123.669 135.143 124.445 133.434 125.592 132.308C126.739 131.181 128.163 130.729 129.551 131.052C130.94 131.374 132.178 132.444 132.995 134.026C133.811 135.609 134.139 137.574 133.905 139.489L132.552 161.801L149.605 156.475L150.982 169.031Z" fill="#0CBC8B"/>
<path d="M129.102 162.678C129.093 162.679 129.084 162.677 129.075 162.673C129.066 162.669 129.058 162.663 129.051 162.655C129.044 162.646 129.038 162.636 129.034 162.624C129.029 162.613 129.027 162.6 129.026 162.588C129.026 162.575 129.027 162.562 129.03 162.55C129.033 162.538 129.037 162.526 129.043 162.516C129.049 162.507 129.057 162.499 129.065 162.493C129.073 162.487 129.082 162.484 129.092 162.483L132.511 161.474C132.52 161.472 132.529 161.473 132.539 161.476C132.548 161.479 132.556 161.484 132.564 161.492C132.571 161.5 132.577 161.509 132.582 161.52C132.587 161.531 132.59 161.543 132.592 161.556C132.593 161.569 132.592 161.582 132.59 161.594C132.588 161.607 132.584 161.618 132.578 161.629C132.573 161.639 132.566 161.648 132.558 161.654C132.55 161.661 132.541 161.665 132.532 161.667L129.112 162.676C129.109 162.677 129.105 162.678 129.102 162.678Z" fill="#0C0C0C"/>
<path d="M150.982 169.03C150.986 169.055 150.983 169.082 150.973 169.103C150.964 169.125 150.948 169.141 150.931 169.148L136.072 173.979C135.978 173.943 135.886 173.907 135.794 173.868L150.827 168.985L149.487 156.622L132.535 161.668C132.524 161.67 132.513 161.669 132.503 161.665C132.492 161.66 132.482 161.652 132.474 161.642C132.467 161.63 132.462 161.617 132.459 161.602C132.455 161.588 132.454 161.572 132.455 161.557L133.406 148.807C133.407 148.795 133.411 148.782 133.416 148.772C133.421 148.761 133.427 148.752 133.435 148.744C133.443 148.737 133.451 148.732 133.46 148.729C133.47 148.727 133.479 148.726 133.488 148.729C133.507 148.733 133.523 148.747 133.534 148.767C133.545 148.788 133.55 148.814 133.547 148.84L132.611 161.46L149.518 156.404C149.527 156.4 149.537 156.4 149.546 156.402C149.556 156.404 149.565 156.409 149.572 156.417C149.58 156.423 149.588 156.431 149.593 156.441C149.599 156.451 149.603 156.463 149.605 156.475L150.982 169.03Z" fill="#0C0C0C"/>
<path d="M27.701 229.295C42.9999 229.295 55.4021 212.183 55.4021 191.075C55.4021 169.967 42.9999 152.856 27.701 152.856C12.4022 152.856 0 169.967 0 191.075C0 212.183 12.4022 229.295 27.701 229.295Z" fill="white"/>
<path opacity="0.09" d="M27.701 229.295C42.9999 229.295 55.4021 212.183 55.4021 191.075C55.4021 169.967 42.9999 152.856 27.701 152.856C12.4022 152.856 0 169.967 0 191.075C0 212.183 12.4022 229.295 27.701 229.295Z" fill="#367CFF"/>
<path d="M20.0725 169.397C20.0725 169.397 20.3727 180.908 25.9412 181.437L26.8844 166.258L20.0725 169.397Z" fill="#0A0A0A"/>
<path d="M21.1449 183.789C22.9668 183.789 24.4438 181.751 24.4438 179.237C24.4438 176.723 22.9668 174.686 21.1449 174.686C19.3229 174.686 17.8459 176.723 17.8459 179.237C17.8459 181.751 19.3229 183.789 21.1449 183.789Z" fill="#0A0A0A"/>
<path d="M34.0527 186.78C34.0233 186.774 33.6974 194.238 27.4127 193.588C23.0618 193.139 21.5107 186.77 21.4112 186.77C21.9084 186.656 22.3988 186.492 22.8786 186.279C23.5636 185.771 24.4113 185.243 24.632 183.407C24.7594 182.349 24.5436 176.937 24.6099 175.866L31.2884 177.923C31.1941 180.184 30.5418 185.425 32.831 186.352C33.2116 186.506 33.6219 186.647 34.0527 186.78Z" fill="#E98862"/>
<path opacity="0.5" d="M31.3816 184.21C31.277 183.744 31.2096 183.264 31.1807 182.778C31.1074 181.671 31.122 180.555 31.2244 179.452C29.867 179.199 28.5882 178.426 27.5333 177.221C27.4093 177.853 26.7273 180.614 26.9162 181.214C27.2732 182.352 28.9505 184.21 31.3816 184.21Z" fill="#0C0C0C"/>
<path d="M30.3355 182.199C27.6904 182.245 24.3837 180.404 23.9739 175.502L23.6041 171.077C23.1941 166.175 24.728 161.902 28.0736 161.371C31.419 160.839 34.2517 164.414 34.6618 169.317L34.8254 171.275C34.9827 173.157 35.0549 182.116 30.3355 182.199Z" fill="#E98862"/>
<path d="M33.8665 171.144C34.0956 171.144 34.2813 170.888 34.2813 170.572C34.2813 170.256 34.0956 169.999 33.8665 169.999C33.6375 169.999 33.4518 170.256 33.4518 170.572C33.4518 170.888 33.6375 171.144 33.8665 171.144Z" fill="#0C0C0C"/>
<path d="M29.627 171.813C29.8561 171.813 30.0418 171.557 30.0418 171.241C30.0418 170.924 29.8561 170.668 29.627 170.668C29.3979 170.668 29.2122 170.924 29.2122 171.241C29.2122 171.557 29.3979 171.813 29.627 171.813Z" fill="#0C0C0C"/>
<path opacity="0.5" d="M31.7309 175.597H31.7375C31.873 175.574 32.0076 175.541 32.1405 175.498C32.339 175.431 32.6008 175.314 32.5803 175.069C32.5567 174.79 31.7505 171.864 31.6585 171.531C31.6545 171.517 31.6485 171.504 31.6409 171.493C31.6332 171.481 31.624 171.472 31.6138 171.466C31.6036 171.46 31.5927 171.456 31.5815 171.456C31.5704 171.456 31.5593 171.458 31.5488 171.464C31.5384 171.469 31.5289 171.477 31.5208 171.488C31.5127 171.499 31.5062 171.511 31.5016 171.525C31.4971 171.539 31.4946 171.554 31.4942 171.57C31.4939 171.585 31.4958 171.601 31.4998 171.615C31.8438 172.861 32.3959 174.908 32.4114 175.096C32.1992 175.261 31.9613 175.353 31.7179 175.365C31.6955 175.367 31.6746 175.382 31.66 175.405C31.6453 175.429 31.638 175.46 31.6397 175.491C31.6415 175.522 31.652 175.55 31.6691 175.571C31.6862 175.591 31.7084 175.601 31.7309 175.598V175.597Z" fill="#0C0C0C"/>
<path opacity="0.5" d="M31.1329 177.638C31.6762 177.595 32.2047 177.377 32.6758 177C32.6943 176.985 32.7077 176.959 32.7132 176.93C32.7187 176.901 32.7159 176.87 32.7053 176.844C32.6948 176.817 32.6773 176.798 32.6564 176.789C32.6356 176.78 32.6131 176.782 32.5935 176.795C31.5762 177.572 30.6033 177.617 29.7803 176.925C29.7637 176.911 29.7465 176.897 29.7289 176.885C29.7085 176.874 29.6858 176.874 29.6656 176.886C29.6454 176.897 29.6291 176.919 29.6202 176.947C29.6113 176.974 29.6105 177.005 29.6179 177.034C29.6252 177.062 29.6402 177.086 29.6598 177.099C29.6662 177.104 29.677 177.113 29.6919 177.126C30.1245 177.49 30.6263 177.669 31.1329 177.638Z" fill="#0C0C0C"/>
<path d="M20.8841 172.335L23.8819 171.881C26.1878 170.854 27.1459 165.57 27.1459 165.57C27.1459 165.57 29.2123 168.812 35.3357 167.331C35.3357 167.331 35.0985 156.44 25.7855 157.973C22.543 158.507 20.0979 162.994 20.0727 168.86C20.0552 172.971 20.8841 172.335 20.8841 172.335Z" fill="#0A0A0A"/>
<path d="M24.3066 176.962C23.2898 177.125 22.3402 175.754 22.223 174.351C22.1058 172.949 22.8651 172.044 23.8819 171.882L24.4844 172.739L25.1807 176.823L24.3066 176.962Z" fill="#E98862"/>
<path d="M32.3996 169.144C32.6995 168.915 33.0385 168.801 33.3811 168.814C33.5502 168.82 33.7179 168.86 33.8784 168.934C34.0378 169.006 34.19 169.106 34.3314 169.231C34.3455 169.243 34.3556 169.263 34.3596 169.285C34.3636 169.308 34.3612 169.331 34.3529 169.351C34.3445 169.371 34.3308 169.386 34.3148 169.393C34.2987 169.399 34.2814 169.397 34.2665 169.386L34.2623 169.383C34.1284 169.273 33.985 169.187 33.8355 169.127C33.6874 169.066 33.5335 169.036 33.3789 169.039C33.0715 169.041 32.7699 169.155 32.5048 169.37L32.4984 169.376C32.4875 169.386 32.4752 169.393 32.4623 169.396C32.4494 169.399 32.4362 169.399 32.4234 169.395C32.4106 169.391 32.3985 169.383 32.3879 169.373C32.3772 169.362 32.3682 169.349 32.3614 169.333C32.3546 169.318 32.3501 169.301 32.3482 169.283C32.3463 169.265 32.3471 169.247 32.3504 169.229C32.3537 169.212 32.3596 169.195 32.3676 169.181C32.3756 169.167 32.3856 169.155 32.397 169.146L32.3996 169.144Z" fill="#0C0C0C"/>
<path d="M29.7128 169.826C29.4197 169.697 29.1071 169.679 28.8071 169.772C28.656 169.817 28.5107 169.894 28.3763 170C28.2404 170.105 28.1146 170.233 28.0018 170.381L27.9983 170.385C27.9855 170.398 27.9696 170.404 27.9537 170.402C27.9378 170.4 27.923 170.39 27.9121 170.374C27.9012 170.358 27.8949 170.337 27.8945 170.315C27.8941 170.293 27.8996 170.272 27.9099 170.255C28.0274 170.09 28.1596 169.946 28.3032 169.826C28.4477 169.704 28.6046 169.614 28.7687 169.556C29.1005 169.438 29.4492 169.444 29.7786 169.575C29.7914 169.579 29.8033 169.587 29.8137 169.598C29.8242 169.609 29.8329 169.623 29.8394 169.639C29.8459 169.655 29.85 169.672 29.8514 169.69C29.8529 169.708 29.8518 169.726 29.848 169.744C29.8443 169.761 29.838 169.777 29.8296 169.791C29.8213 169.805 29.8109 169.817 29.7992 169.825C29.7876 169.833 29.7748 169.838 29.7617 169.84C29.7486 169.841 29.7354 169.839 29.723 169.833H29.7204L29.7128 169.826Z" fill="#0C0C0C"/>
<path opacity="0.52" d="M31.1897 178.746C31.2881 178.741 31.3859 178.723 31.4821 178.695C31.5036 178.688 31.5221 178.669 31.5338 178.643C31.5455 178.618 31.5495 178.587 31.5449 178.557C31.5404 178.527 31.5276 178.501 31.5094 178.484C31.4911 178.467 31.4687 178.46 31.447 178.465C31.2967 178.526 31.1388 178.542 30.9838 178.511C30.8288 178.481 30.6802 178.405 30.5481 178.289C30.5307 178.27 30.5083 178.26 30.4858 178.264C30.4634 178.267 30.4428 178.282 30.4286 178.306C30.4143 178.33 30.4076 178.361 30.4098 178.392C30.4121 178.423 30.4231 178.451 30.4406 178.471C30.6597 178.679 30.9245 178.777 31.1897 178.746Z" fill="#0C0C0C"/>
<path opacity="0.1" d="M29.0526 175.688C29.4887 175.667 29.8332 175.292 29.822 174.851C29.8108 174.409 29.4482 174.069 29.012 174.09C28.5759 174.111 28.2314 174.486 28.2426 174.927C28.2538 175.369 28.6164 175.709 29.0526 175.688Z" fill="#0C0C0C"/>
<path opacity="0.1" d="M33.7202 174.47C33.7324 174.911 34.0949 175.251 34.5311 175.231C34.6065 175.227 34.6814 175.213 34.7546 175.188C34.8063 174.67 34.8379 174.169 34.8551 173.705C34.7377 173.649 34.6138 173.625 34.4898 173.632C34.0545 173.653 33.7103 174.026 33.7202 174.47Z" fill="#0C0C0C"/>
<path d="M43.4389 194.641C43.4201 197.247 42.7716 200.354 42.5405 204.109C42.4792 205.111 40.9203 208.01 40.6939 211.234C40.4086 215.34 41.0432 221.743 41.128 224.511C36.7463 227.856 31.7897 229.502 26.7847 229.273C21.7797 229.044 16.913 226.948 12.7017 223.21C12.5885 216.098 12.4541 207.317 12.2819 205.212C11.7231 198.262 11.874 193.867 12.6804 191.811C13.9986 188.453 16.3449 187.429 18.7996 186.967C20.2993 186.687 22.5513 186.488 22.5513 186.488C22.5513 186.488 22.7423 191.814 27.2933 192.11C33.4879 192.514 33.0753 186.488 33.1059 186.488C35.3532 186.488 39.6118 187.23 41.2436 188.766C42.9744 190.389 43.4602 192.315 43.4389 194.641Z" fill="#FFC239"/>
<path d="M22.0372 198.695L13.633 223.999C10.4063 221.371 7.59875 217.868 5.37984 213.702L12.3903 192.594L22.0372 198.695Z" fill="#FFC239"/>
<path d="M50.2279 213.319C48.5815 216.489 46.5943 219.293 44.3351 221.635C43.5914 222.41 42.8193 223.131 42.0218 223.795L33.396 197.631L43.0546 191.567L50.2279 213.319Z" fill="#FFC239"/>
<path d="M85.3514 79.5849C101.28 79.5849 114.193 61.7692 114.193 39.7925C114.193 17.8157 101.28 0 85.3514 0C69.4228 0 56.5102 17.8157 56.5102 39.7925C56.5102 61.7692 69.4228 79.5849 85.3514 79.5849Z" fill="white"/>
<path opacity="0.09" d="M85.3514 79.5849C101.28 79.5849 114.193 61.7692 114.193 39.7925C114.193 17.8157 101.28 0 85.3514 0C69.4228 0 56.5102 17.8157 56.5102 39.7925C56.5102 61.7692 69.4228 79.5849 85.3514 79.5849Z" fill="#367CFF"/>
<path d="M90.928 15.9639C90.928 15.9639 92.7543 13.233 92.6131 8.03139C92.5039 4.00396 90.2128 7.20306 90.2128 7.20306C90.2128 7.20306 90.1135 4.30425 88.6565 4.95819C87.1995 5.61213 86.7514 8.79529 86.7514 8.79529" fill="#0C0C0C"/>
<path d="M80.9728 7.21936C80.9728 7.21936 73.6993 10.1686 78.1999 23.3665L78.8642 23.263L80.2125 23.0535" fill="#0C0C0C"/>
<path d="M91.2803 37.0565C91.2473 37.0507 90.8794 45.4699 83.7904 44.7346C78.8828 44.2274 77.1329 37.0435 77.0204 37.0435C77.5496 36.8883 78.2035 36.6531 78.4633 36.5721C79.0297 36.3907 79.5427 35.9757 79.934 35.3823C80.3253 34.7889 80.5763 34.0451 80.6537 33.25C80.7973 32.0566 80.5537 25.9512 80.6287 24.7439L88.1618 27.0636C88.0566 29.614 87.32 35.5258 89.902 36.5721C90.3319 36.7455 90.7948 36.9049 91.2803 37.0565Z" fill="#E98862"/>
<path opacity="0.52" d="M88.2677 34.1565C88.1498 33.6318 88.0739 33.0909 88.0411 32.5434C87.9584 31.2941 87.9749 30.036 88.0904 28.7916C86.5593 28.5064 85.1168 27.6344 83.927 26.2747C83.7869 26.9875 83.0177 30.1021 83.2307 30.7794C83.6334 32.06 85.5253 34.1565 88.2677 34.1565Z" fill="#0C0C0C"/>
<path d="M87.038 31.476C84.0668 31.8446 80.2314 30.1694 79.4625 24.7049L78.7685 19.7744C77.9995 14.3086 79.4563 9.32269 83.1854 8.32389C86.9144 7.32476 90.3251 11.008 91.0943 16.4724L91.4008 18.6552C91.497 19.4071 91.5558 20.1673 91.5768 20.9303C91.6433 22.9474 91.7388 26.0131 91.0361 28.2795C90.373 30.4196 88.9367 31.2408 87.038 31.476Z" fill="#E98862"/>
<path opacity="0.5" d="M87.4872 26.0737C88.0314 26.0596 88.5655 25.8692 89.0466 25.518C89.057 25.5115 89.0664 25.5021 89.0742 25.4904C89.0819 25.4788 89.0879 25.465 89.0917 25.4501C89.0955 25.4352 89.0971 25.4193 89.0964 25.4035C89.0957 25.3877 89.0926 25.3723 89.0874 25.3581C89.0823 25.344 89.0751 25.3314 89.0663 25.3212C89.0575 25.311 89.0473 25.3034 89.0364 25.2987C89.0254 25.2941 89.0138 25.2926 89.0024 25.2942C88.991 25.2959 88.98 25.3008 88.9699 25.3085C87.9324 26.0311 86.9587 26.0243 86.1554 25.2909C86.1392 25.2754 86.1224 25.2611 86.1051 25.248C86.0951 25.2412 86.0842 25.2372 86.0731 25.2362C86.0619 25.2352 86.0508 25.2373 86.0402 25.2422C86.0296 25.2472 86.0199 25.255 86.0115 25.2652C86.0031 25.2753 85.9963 25.2877 85.9914 25.3015C85.9864 25.3153 85.9835 25.3304 85.9828 25.3457C85.9821 25.3611 85.9836 25.3765 85.9872 25.3911C85.9908 25.4057 85.9964 25.4191 86.0038 25.4307C86.0112 25.4422 86.0201 25.4517 86.0301 25.4585C86.0365 25.4634 86.0469 25.4731 86.0615 25.4865C86.4838 25.8737 86.9802 26.0781 87.4872 26.0737Z" fill="#0C0C0C"/>
<path opacity="0.52" d="M87.5133 27.1854C87.6118 27.185 87.71 27.1731 87.8069 27.1496C87.8179 27.1471 87.8284 27.1415 87.8379 27.1333C87.8473 27.1251 87.8555 27.1144 87.8619 27.1019C87.8684 27.0893 87.873 27.0752 87.8755 27.0602C87.8779 27.0452 87.8782 27.0296 87.8764 27.0145C87.8745 26.9993 87.8705 26.9848 87.8645 26.9718C87.8586 26.9587 87.8509 26.9474 87.8418 26.9386C87.8327 26.9297 87.8224 26.9233 87.8115 26.9199C87.8006 26.9165 87.7894 26.9161 87.7784 26.9186C87.6265 26.9711 87.4683 26.9784 87.3142 26.9399C87.1602 26.9014 87.0138 26.8181 86.8849 26.6955C86.868 26.6757 86.8461 26.6659 86.8239 26.6681C86.8018 26.6703 86.7811 26.6845 86.7664 26.7075C86.7518 26.7304 86.7442 26.7605 86.7454 26.7911C86.7465 26.8217 86.7563 26.8504 86.7727 26.8711C86.9858 27.091 87.2475 27.202 87.5133 27.1854Z" fill="#0C0C0C"/>
<path d="M90.2018 20.0321C90.4601 20.0321 90.6696 19.7431 90.6696 19.3866C90.6696 19.0301 90.4601 18.7411 90.2018 18.7411C89.9434 18.7411 89.7339 19.0301 89.7339 19.3866C89.7339 19.7431 89.9434 20.0321 90.2018 20.0321Z" fill="#0C0C0C"/>
<path d="M85.6526 20.7658C85.911 20.7658 86.1204 20.4768 86.1204 20.1203C86.1204 19.7638 85.911 19.4748 85.6526 19.4748C85.3942 19.4748 85.1848 19.7638 85.1848 20.1203C85.1848 20.4768 85.3942 20.7658 85.6526 20.7658Z" fill="#0C0C0C"/>
<path d="M79.9284 26.3076C78.7951 26.6111 77.6411 25.1845 77.4208 23.6209C77.2006 22.0573 77.9983 20.9492 79.1314 20.6456L79.8624 21.5367L80.9023 26.0467L79.9284 26.3076Z" fill="#E98862"/>
<path d="M80.728 23.5071C80.728 23.5071 80.0949 15.6615 81.7354 14.7576C82.8279 14.1554 85.87 15.6885 88.3302 14.3819C89.4064 13.8099 90.5147 13.9264 90.7175 14.6262C90.7979 14.9031 90.9502 10.5959 88.7928 7.89452C87.0752 5.744 82.4346 6.17443 80.4726 7.51029C75.0404 11.2091 78.942 21.0446 78.942 21.0446L79.5481 23.6525L80.728 23.5071Z" fill="#0C0C0C"/>
<g opacity="0.52">
<path d="M88.1846 24.1307H88.1919C88.5574 24.0331 89.1625 23.8161 89.1116 23.4391C89.0679 23.1264 87.9797 19.9172 87.8561 19.5525C87.8509 19.537 87.8434 19.523 87.8342 19.5115C87.825 19.4999 87.8143 19.491 87.8026 19.4851C87.7909 19.4793 87.7785 19.4767 87.7661 19.4775C87.7537 19.4783 87.7415 19.4824 87.7302 19.4897C87.719 19.497 87.7089 19.5073 87.7005 19.5199C87.6921 19.5326 87.6856 19.5474 87.6814 19.5636C87.6772 19.5797 87.6753 19.5968 87.6758 19.614C87.6764 19.6311 87.6794 19.6479 87.6847 19.6635C88.1672 21.0846 88.8958 23.2748 88.9255 23.4879C88.9019 23.5855 88.536 23.7738 88.1577 23.8737C88.1327 23.8789 88.1102 23.8975 88.0951 23.9255C88.0801 23.9536 88.0737 23.9887 88.0774 24.0232C88.0812 24.0577 88.0947 24.0888 88.115 24.1096C88.1353 24.1303 88.1608 24.1391 88.1858 24.134L88.1846 24.1307Z" fill="#0C0C0C"/>
</g>
<path d="M88.443 16.2672C88.8087 16.0253 89.2149 15.9242 89.6187 15.9744C89.8168 15.9974 90.0114 16.0612 90.1958 16.1638C90.3779 16.2636 90.5501 16.3948 90.7084 16.5542C90.7378 16.5822 90.7581 16.6249 90.7652 16.6732C90.7722 16.7215 90.7654 16.7717 90.7461 16.8133C90.7269 16.8548 90.6967 16.8844 90.662 16.8958C90.6272 16.9073 90.5906 16.8997 90.5598 16.8746L90.5492 16.8694C90.4057 16.743 90.2512 16.6419 90.0894 16.5685C89.9303 16.4952 89.7641 16.4556 89.5963 16.451C89.2657 16.4383 88.9385 16.5464 88.6479 16.7643L88.6359 16.7738C88.6123 16.7924 88.5862 16.8044 88.5592 16.8091C88.5322 16.8139 88.5047 16.8112 88.4785 16.8013C88.4522 16.7914 88.4276 16.7745 88.4061 16.7515C88.3846 16.7285 88.3666 16.6998 88.353 16.6672C88.3395 16.6346 88.3308 16.5986 88.3274 16.5614C88.324 16.5241 88.3259 16.4863 88.3331 16.45C88.3403 16.4138 88.3525 16.3799 88.3692 16.3502C88.3859 16.3205 88.4066 16.2956 88.4303 16.277L88.443 16.2672Z" fill="#0C0C0C"/>
<path d="M85.7608 17.2673C85.4423 17.1443 85.106 17.1395 84.7857 17.2533C84.6229 17.3091 84.4673 17.3988 84.324 17.5191C84.1778 17.6402 84.0431 17.7861 83.9231 17.9534L83.9156 17.9638C83.8897 17.9983 83.8551 18.0176 83.8192 18.0174C83.7832 18.0173 83.7487 17.9977 83.723 17.963C83.6974 17.9282 83.6825 17.881 83.6817 17.8314C83.6809 17.7818 83.6942 17.7337 83.7187 17.6974C83.8471 17.493 83.9938 17.3118 84.1552 17.1583C84.3185 17.0017 84.4979 16.8796 84.6874 16.7962C84.8768 16.71 85.0739 16.6601 85.2731 16.6478C85.4771 16.6323 85.6817 16.6569 85.8808 16.7207C85.9343 16.7379 85.9807 16.7838 86.0097 16.8483C86.0387 16.9127 86.048 16.9904 86.0355 17.0643C86.023 17.1381 85.9897 17.2021 85.943 17.2421C85.8963 17.2821 85.84 17.2949 85.7865 17.2777L85.7742 17.2731L85.7608 17.2673Z" fill="#0C0C0C"/>
<path d="M87.1956 11.0692C88.0045 10.6169 88.2691 8.91854 87.7865 7.27575C87.304 5.63296 86.2571 4.66788 85.4482 5.12018C84.6393 5.57249 84.3747 7.27089 84.8572 8.91368C85.3398 10.5565 86.3867 11.5215 87.1956 11.0692Z" fill="#0C0C0C"/>
<path d="M101.078 45.7566C101.106 48.4537 107.445 60.6508 100.088 55.5917C100.036 56.4246 99.9132 58.2596 99.7505 60.6508C99.484 64.6103 99.1067 70.0858 98.7766 75.0213C94.0555 78.4401 88.7406 79.989 83.4206 79.4963C78.1007 79.0036 72.9835 76.4886 68.6359 72.2298C68.5322 72.1224 68.4284 72.0183 68.3247 71.9175C68.0488 66.3378 67.7234 60.4817 67.4262 56.7825C66.8674 49.8754 66.1057 46.4366 66.5325 44.1136C66.5667 43.9158 66.6125 43.7221 66.6693 43.5345C67.8979 39.4222 71.8099 37.5872 74.4603 37.0927C76.0779 36.7901 78.5115 36.5721 78.5115 36.5721C78.5115 36.5721 78.7166 42.3242 83.6285 42.6431C90.3159 43.079 89.8702 36.5721 89.9032 36.5721C90.9856 36.5721 96.8831 37.6588 98.3569 38.9862C98.604 39.2075 98.8403 39.4509 99.0643 39.715C99.7046 40.4518 100.218 41.3766 100.566 42.4218C100.914 43.467 101.089 44.6063 101.078 45.7566Z" fill="#0C0C0C" fill-opacity="0.69"/>
<path d="M76.4553 49.9275L68.636 72.2299C68.5322 72.1225 68.4284 72.0184 68.3247 71.9175C65.2935 68.8509 62.7228 65.0014 60.7553 60.5826L66.5326 44.1137L66.7613 43.4597L76.4553 49.9275Z" fill="#515357"/>
<path d="M75.7007 52.4945L68.5888 72.181C68.5416 72.1322 68.4968 72.0866 68.4497 72.0443L75.5522 52.3936C75.5624 52.3662 75.5799 52.3455 75.6011 52.3358C75.6222 52.326 75.6453 52.3281 75.6653 52.3415C75.6847 52.3554 75.6993 52.3792 75.706 52.4079C75.7126 52.4366 75.7107 52.4677 75.7007 52.4945Z" fill="white"/>
<path d="M111.76 55.813C110.343 60.2454 108.352 64.2847 105.886 67.7336L99.7505 60.6509L91.9571 51.6518L99.0643 39.715L99.0855 39.6792L111.76 55.813Z" fill="#515357"/>
<path d="M99.8451 60.7378C99.8651 60.7364 99.8841 60.725 99.8985 60.7058C99.913 60.6866 99.9219 60.6609 99.9236 60.6333L100.328 54.0842C100.33 54.0539 100.324 54.0239 100.309 54.0006C100.295 53.9774 100.275 53.9628 100.253 53.9602C100.231 53.958 100.21 53.9677 100.193 53.9871C100.176 54.0066 100.166 54.0343 100.163 54.0643L99.7585 60.6138C99.7567 60.644 99.7636 60.674 99.7778 60.6971C99.7919 60.7203 99.8121 60.7348 99.834 60.7374L99.8451 60.7378Z" fill="white"/>
<path d="M221.157 251.897C236.349 251.897 248.665 234.905 248.665 213.944C248.665 192.983 236.349 175.99 221.157 175.99C205.964 175.99 193.648 192.983 193.648 213.944C193.648 234.905 205.964 251.897 221.157 251.897Z" fill="white"/>
<path opacity="0.09" d="M193.648 213.943C193.648 221.449 195.261 228.787 198.284 235.028C201.307 241.27 205.603 246.134 210.629 249.007C215.656 251.88 221.186 252.631 226.522 251.167C231.859 249.703 236.76 246.088 240.607 240.78C244.454 235.472 247.074 228.71 248.135 221.348C249.197 213.985 248.652 206.354 246.57 199.419C244.488 192.484 240.962 186.557 236.439 182.386C231.915 178.216 226.597 175.99 221.156 175.99C217.54 175.972 213.957 176.941 210.614 178.842C207.27 180.743 204.232 183.537 201.675 187.065C199.118 190.593 197.093 194.784 195.715 199.397C194.337 204.01 193.635 208.954 193.648 213.943Z" fill="#367CFF"/>
<path d="M233.639 193C233.2 200.027 233.607 202.41 235.722 206.437C237.506 209.831 227.356 206.946 222.865 205.842L226.828 189.862C226.828 189.862 233.793 190.532 233.639 193Z" fill="#0A0A0A"/>
<path d="M218.145 190.076C216.82 196.888 216.969 198.996 214.376 202.573C212.227 205.539 220.603 206.141 225.097 207.219L225.324 190.333C225.324 190.333 218.611 187.684 218.145 190.076Z" fill="#0A0A0A"/>
<path d="M218.592 209.89C218.621 209.884 218.951 217.418 225.294 216.762C229.685 216.308 231.251 209.879 231.352 209.879C230.85 209.764 230.355 209.599 229.871 209.384C229.179 208.871 228.324 208.337 228.101 206.485C227.972 205.417 228.19 199.954 228.123 198.872L221.382 200.948C221.477 203.23 222.137 208.52 219.826 209.456C219.441 209.612 219.027 209.755 218.592 209.89Z" fill="#E98862"/>
<path opacity="0.5" d="M221.288 207.295C221.393 206.826 221.461 206.342 221.491 205.852C221.565 204.734 221.55 203.608 221.447 202.495C222.817 202.24 224.108 201.459 225.172 200.243C225.298 200.881 225.986 203.667 225.795 204.273C225.435 205.419 223.742 207.295 221.288 207.295Z" fill="#0C0C0C"/>
<path d="M222.16 204.948C224.817 205.303 228.256 203.836 228.968 198.953L229.611 194.547C230.323 189.664 229.042 185.189 225.71 184.264C222.377 183.339 219.309 186.606 218.596 191.489L218.312 193.441C218.039 195.313 217.418 204.316 222.16 204.948Z" fill="#E98862"/>
<path d="M232.827 195.938L229.83 195.485C223.964 193.997 222.527 187.466 222.527 187.466C222.527 187.466 220.066 191.998 217.977 190.958C217.977 190.958 218.651 180.029 227.925 181.949C231.57 182.704 233.639 186.872 233.639 192.463C233.639 196.573 232.827 195.938 232.827 195.938Z" fill="#0A0A0A"/>
<path opacity="0.1" d="M224.709 197.877C224.747 197.434 224.423 197.017 223.986 196.945C223.549 196.873 223.163 197.173 223.125 197.616C223.087 198.059 223.41 198.476 223.847 198.548C224.285 198.62 224.67 198.319 224.709 197.877Z" fill="#0C0C0C"/>
<path opacity="0.1" d="M219.229 196.78C219.189 197.222 218.804 197.522 218.367 197.451C218.291 197.438 218.216 197.415 218.144 197.381C218.124 196.854 218.123 196.347 218.134 195.878C218.255 195.836 218.381 195.826 218.506 195.848C218.942 195.919 219.265 196.336 219.229 196.78Z" fill="#0C0C0C"/>
<path opacity="0.5" d="M221.16 198.146H221.154C221.019 198.107 220.885 198.058 220.754 197.999C220.559 197.909 220.303 197.761 220.338 197.516C220.379 197.238 221.369 194.389 221.482 194.066C221.486 194.051 221.493 194.038 221.502 194.027C221.51 194.017 221.52 194.008 221.531 194.003C221.541 193.997 221.553 193.995 221.564 193.996C221.576 193.996 221.587 194 221.597 194.007C221.608 194.014 221.617 194.024 221.625 194.035C221.632 194.047 221.638 194.061 221.642 194.076C221.645 194.091 221.647 194.107 221.646 194.123C221.645 194.139 221.642 194.154 221.636 194.168C221.214 195.381 220.534 197.376 220.506 197.563C220.71 197.754 220.943 197.874 221.187 197.914C221.209 197.92 221.228 197.938 221.24 197.963C221.253 197.988 221.258 198.019 221.254 198.049C221.251 198.079 221.239 198.106 221.222 198.124C221.204 198.143 221.182 198.151 221.16 198.148V198.146Z" fill="#0C0C0C"/>
<path d="M228.544 200.383C229.557 200.665 230.596 199.398 230.8 198.001C231.004 196.603 230.295 195.605 229.282 195.324L228.624 196.115L227.674 200.142L228.544 200.383Z" fill="#E98862"/>
<path d="M220.764 191.792C220.639 191.67 220.502 191.572 220.358 191.5C220.213 191.424 220.06 191.377 219.905 191.359C219.749 191.338 219.593 191.35 219.44 191.394C219.286 191.437 219.137 191.507 218.995 191.602L218.991 191.605C218.976 191.612 218.959 191.612 218.944 191.603C218.929 191.595 218.917 191.579 218.91 191.558C218.903 191.538 218.901 191.515 218.906 191.493C218.911 191.472 218.921 191.454 218.935 191.442C219.085 191.333 219.244 191.25 219.409 191.196C219.575 191.14 219.746 191.119 219.916 191.134C220.262 191.16 220.596 191.314 220.883 191.579C220.904 191.6 220.918 191.631 220.923 191.666C220.927 191.701 220.922 191.737 220.907 191.766C220.893 191.795 220.871 191.816 220.845 191.823C220.82 191.83 220.794 191.823 220.772 191.804L220.77 191.802L220.764 191.792Z" fill="#0C0C0C"/>
<path d="M223.493 192.313C223.832 192.22 224.183 192.254 224.509 192.412C224.671 192.489 224.823 192.598 224.961 192.738C225.098 192.875 225.222 193.035 225.331 193.215C225.342 193.233 225.348 193.256 225.348 193.28C225.347 193.304 225.339 193.327 225.326 193.343C225.314 193.359 225.297 193.367 225.279 193.366C225.262 193.365 225.245 193.355 225.234 193.337L225.23 193.332C225.126 193.17 225.007 193.026 224.876 192.905C224.748 192.784 224.606 192.69 224.457 192.627C224.161 192.499 223.845 192.481 223.543 192.576L223.535 192.578C223.51 192.587 223.483 192.581 223.461 192.563C223.438 192.544 223.422 192.514 223.416 192.479C223.41 192.444 223.414 192.407 223.427 192.376C223.441 192.345 223.463 192.323 223.488 192.314L223.493 192.313Z" fill="#0C0C0C"/>
<path d="M208.375 247.557C207.294 246.907 206.485 246.21 204.638 244.291C203.306 242.911 202.068 241.366 200.939 239.675L210.421 214.782L210.833 213.7L219.385 219.904L211.967 239.382L211.932 239.468L211.997 239.814" fill="#EA394A"/>
<path d="M239.909 227.532C239.66 231.223 239.606 236.964 239.623 242.069C236.048 246.543 231.682 249.64 226.964 251.048C222.246 252.455 217.343 252.124 212.747 250.088C212.185 242.391 211.349 231.079 210.877 224.113C210.399 216.899 208.994 214.516 212.829 211.061C214.942 209.577 218.291 209.446 219.796 209.446C219.285 216.285 229.731 217.127 229.991 209.446C237.804 210.454 241.421 210.705 239.909 227.532Z" fill="#EA394A"/>
<path d="M220.269 199.108C221.132 199.714 222.118 199.906 223.069 199.653C223.102 199.644 223.136 199.649 223.167 199.666C223.198 199.683 223.225 199.712 223.245 199.75C223.265 199.787 223.276 199.832 223.278 199.878C223.28 199.924 223.273 199.97 223.256 200.011C222.973 200.7 222.3 201.879 221.146 201.399C220.401 201.088 220.119 200.032 220.014 199.377C220.007 199.331 220.009 199.284 220.02 199.24C220.032 199.196 220.052 199.158 220.079 199.13C220.106 199.102 220.138 199.085 220.172 199.081C220.206 199.077 220.239 199.087 220.269 199.108Z" fill="white"/>
<path d="M220.215 193.81C220.445 193.81 220.632 193.552 220.632 193.234C220.632 192.917 220.445 192.659 220.215 192.659C219.985 192.659 219.798 192.917 219.798 193.234C219.798 193.552 219.985 193.81 220.215 193.81Z" fill="#0C0C0C"/>
<path d="M224.225 194.778C224.455 194.778 224.642 194.52 224.642 194.203C224.642 193.885 224.455 193.627 224.225 193.627C223.994 193.627 223.808 193.885 223.808 194.203C223.808 194.52 223.994 194.778 224.225 194.778Z" fill="#0C0C0C"/>
<path d="M211.801 236.538H211.809C211.826 236.535 211.841 236.523 211.851 236.504C211.862 236.485 211.866 236.461 211.864 236.438L211.126 226.185C211.125 226.174 211.122 226.162 211.118 226.152C211.114 226.142 211.108 226.133 211.102 226.126C211.095 226.119 211.087 226.114 211.079 226.111C211.07 226.108 211.062 226.108 211.053 226.109C211.045 226.111 211.037 226.115 211.03 226.121C211.022 226.127 211.016 226.134 211.011 226.144C211.006 226.153 211.002 226.164 211 226.175C210.998 226.186 210.997 226.198 210.999 226.21L211.736 236.463C211.738 236.484 211.746 236.503 211.758 236.517C211.77 236.531 211.785 236.539 211.801 236.538Z" fill="#0C0C0C"/>
<path d="M210.837 228.73H203.307V241.47H210.837V228.73Z" fill="white"/>
<path d="M207.753 235.1C207.754 234.259 207.935 233.436 208.273 232.737C208.612 232.038 209.094 231.492 209.657 231.171C210.221 230.849 210.841 230.765 211.439 230.929C212.037 231.093 212.586 231.498 213.017 232.094C213.449 232.689 213.742 233.447 213.861 234.272C213.98 235.097 213.919 235.952 213.685 236.73C213.452 237.507 213.057 238.171 212.55 238.639C212.043 239.106 211.446 239.356 210.837 239.355C210.019 239.354 209.235 238.905 208.657 238.108C208.079 237.31 207.754 236.228 207.753 235.1ZM209.016 235.1C209.016 235.597 209.123 236.083 209.323 236.496C209.523 236.909 209.807 237.231 210.14 237.421C210.473 237.611 210.839 237.661 211.192 237.564C211.545 237.467 211.869 237.228 212.124 236.876C212.378 236.525 212.552 236.077 212.622 235.59C212.692 235.103 212.656 234.598 212.518 234.139C212.381 233.68 212.147 233.288 211.848 233.012C211.549 232.736 211.197 232.589 210.837 232.589C210.354 232.589 209.891 232.854 209.55 233.325C209.209 233.796 209.017 234.434 209.016 235.1Z" fill="white"/>
<path d="M210.777 236.677C210.802 236.461 210.881 236.265 211.001 236.122C211.121 235.979 211.273 235.899 211.432 235.896C211.427 235.887 211.424 235.877 211.422 235.867L211.198 235.8C211.042 235.757 210.901 235.642 210.799 235.472C210.698 235.303 210.642 235.09 210.641 234.87C210.643 234.732 210.666 234.597 210.71 234.473C210.754 234.349 210.818 234.24 210.896 234.155C210.974 234.069 211.065 234.008 211.163 233.977C211.26 233.945 211.361 233.944 211.459 233.973L211.988 234.131C211.988 234.128 211.988 234.126 211.988 234.123C211.989 234.117 211.99 234.111 211.992 234.106C211.854 234.016 211.743 233.865 211.675 233.677C211.607 233.489 211.588 233.274 211.62 233.069C211.678 232.529 212.147 232.351 212.491 232.454L213.861 232.792L213.399 232.369C213.253 232.23 213.151 232.019 213.113 231.78C213.076 231.541 213.105 231.291 213.196 231.08C213.245 230.974 213.31 230.883 213.386 230.812C213.462 230.741 213.548 230.693 213.638 230.669C213.728 230.646 213.821 230.648 213.91 230.676C213.999 230.703 214.084 230.755 214.158 230.829L219.68 239.549L218.454 238.781C218.074 239.553 217.535 240.151 216.906 240.498C216.278 240.845 215.589 240.925 214.927 240.727L211.932 239.827C211.776 239.784 211.635 239.668 211.534 239.499C211.432 239.33 211.376 239.117 211.375 238.897C211.377 238.699 211.425 238.506 211.512 238.348C211.599 238.19 211.72 238.075 211.858 238.019C211.854 238.005 211.852 237.989 211.854 237.974C211.855 237.96 211.86 237.947 211.866 237.935C211.872 237.924 211.881 237.915 211.89 237.909L211.337 237.745C211.163 237.698 211.009 237.561 210.904 237.363C210.8 237.165 210.755 236.92 210.777 236.677Z" fill="#E98862"/>
<path opacity="0.2" d="M212.988 234.439C213.002 234.435 213.015 234.424 213.024 234.408C213.033 234.392 213.038 234.372 213.038 234.352C213.038 234.331 213.032 234.312 213.023 234.296C213.013 234.281 213 234.27 212.985 234.267L212.06 234.05C212.052 234.048 212.043 234.047 212.035 234.05C212.027 234.052 212.019 234.057 212.012 234.063C212.005 234.07 211.999 234.079 211.994 234.089C211.989 234.098 211.986 234.11 211.985 234.121C211.983 234.133 211.984 234.145 211.986 234.156C211.988 234.168 211.991 234.179 211.996 234.188C212.001 234.198 212.008 234.206 212.015 234.212C212.022 234.218 212.031 234.221 212.039 234.223L212.964 234.44C212.972 234.442 212.98 234.441 212.988 234.439Z" fill="#0C0C0C"/>
<path opacity="0.2" d="M212.764 236.243C212.779 236.239 212.792 236.228 212.801 236.212C212.81 236.196 212.815 236.177 212.815 236.156C212.815 236.136 212.809 236.116 212.8 236.101C212.79 236.085 212.777 236.075 212.763 236.071L211.495 235.761C211.487 235.759 211.478 235.758 211.47 235.76C211.461 235.763 211.453 235.767 211.446 235.774C211.439 235.78 211.433 235.789 211.428 235.799C211.423 235.808 211.42 235.82 211.419 235.831C211.417 235.843 211.417 235.855 211.419 235.867C211.421 235.878 211.425 235.889 211.43 235.899C211.435 235.908 211.442 235.916 211.449 235.922C211.456 235.928 211.465 235.932 211.473 235.933L212.74 236.244C212.748 236.246 212.757 236.246 212.764 236.243Z" fill="#0C0C0C"/>
<path opacity="0.2" d="M212.532 238.201C212.546 238.197 212.559 238.186 212.568 238.17C212.578 238.154 212.582 238.134 212.582 238.113C212.582 238.093 212.576 238.073 212.566 238.057C212.556 238.042 212.543 238.032 212.528 238.029L211.927 237.901C211.911 237.899 211.895 237.906 211.882 237.92C211.869 237.933 211.861 237.953 211.858 237.976C211.856 237.998 211.86 238.02 211.869 238.039C211.878 238.057 211.892 238.07 211.908 238.075L212.509 238.202C212.517 238.204 212.524 238.204 212.532 238.201Z" fill="#0C0C0C"/>
<path d="M243.745 235.599C240.357 242.321 235.488 247.357 229.861 249.958L229.859 249.955C228.609 249.618 216.687 243.123 215.11 242.696L216.836 231.59C221.266 232.806 229.348 237.496 233.804 238.717L230.66 219.05C230.546 218.182 230.558 217.291 230.696 216.428C230.833 215.566 231.094 214.75 231.462 214.028C231.829 213.306 232.298 212.692 232.839 212.221C233.38 211.75 233.984 211.432 234.615 211.286C235.246 211.14 235.892 211.167 236.515 211.368C237.138 211.568 237.726 211.938 238.245 212.454C238.764 212.971 239.203 213.624 239.538 214.377C239.872 215.129 240.095 215.966 240.193 216.838L243.745 235.599Z" fill="#EA394A"/>
<path d="M237.181 240.164C237.197 240.164 237.212 240.155 237.224 240.14C237.236 240.125 237.243 240.104 237.244 240.082C237.245 240.06 237.241 240.038 237.231 240.02C237.221 240.003 237.207 239.991 237.191 239.987L233.84 238.419C233.832 238.417 233.823 238.418 233.815 238.42C233.807 238.423 233.799 238.428 233.792 238.435C233.785 238.442 233.78 238.451 233.775 238.461C233.771 238.471 233.768 238.482 233.767 238.494C233.765 238.517 233.769 238.541 233.779 238.56C233.789 238.579 233.804 238.591 233.821 238.595L237.172 240.163C237.175 240.164 237.178 240.164 237.181 240.164Z" fill="#0C0C0C"/>
<path d="M233.892 238.494C233.894 238.522 233.887 238.55 233.875 238.571C233.867 238.581 233.858 238.588 233.849 238.592C233.839 238.596 233.829 238.597 233.819 238.595L216.943 231.723L215.252 242.654L229.784 249.99C229.739 250.011 229.691 250.032 229.646 250.052C229.614 250.067 229.582 250.082 229.548 250.094L215.157 242.804C215.141 242.798 215.127 242.784 215.118 242.764C215.109 242.744 215.107 242.72 215.11 242.697L216.836 231.59C216.838 231.579 216.841 231.569 216.847 231.559C216.852 231.55 216.858 231.543 216.866 231.537C216.873 231.53 216.881 231.526 216.889 231.524C216.898 231.522 216.907 231.522 216.915 231.525L233.75 238.406L231.844 227.565C231.842 227.542 231.846 227.518 231.856 227.499C231.866 227.481 231.881 227.468 231.898 227.464C231.906 227.462 231.915 227.462 231.923 227.464C231.932 227.467 231.939 227.471 231.946 227.478C231.953 227.484 231.959 227.493 231.964 227.503C231.969 227.513 231.972 227.524 231.973 227.535L233.892 238.494Z" fill="#0C0C0C"/>
<path d="M12.0981 627.401C12.0844 627.401 12.0708 627.389 12.0581 627.365C12.0457 627.342 12.0343 627.308 12.0248 627.266C12.0153 627.223 12.0077 627.173 12.0026 627.118C11.9975 627.062 11.9949 627.003 11.995 626.943C11.9951 626.883 11.9978 626.824 12.0031 626.769L16.0437 584.391C16.0544 584.28 16.0746 584.192 16.0999 584.146C16.1253 584.101 16.1537 584.102 16.1789 584.149C16.2041 584.196 16.2241 584.285 16.2344 584.397C16.2447 584.509 16.2445 584.634 16.2338 584.745L12.1932 627.121C12.1854 627.204 12.1722 627.275 12.1552 627.324C12.1383 627.374 12.1185 627.401 12.0981 627.401Z" fill="#0C0C0C"/>
<path d="M41.0219 224.499H41.0167C41.0013 224.5 40.9858 224.497 40.9712 224.489C40.9567 224.482 40.9433 224.471 40.9319 224.456C40.9204 224.442 40.9112 224.425 40.9046 224.405C40.8981 224.386 40.8943 224.365 40.8936 224.344L40.3786 208.846C40.3782 208.804 40.3896 208.762 40.4104 208.731C40.4313 208.699 40.46 208.68 40.4909 208.676C40.5064 208.675 40.5218 208.678 40.5364 208.686C40.551 208.693 40.5644 208.704 40.5759 208.718C40.5873 208.733 40.5966 208.75 40.6032 208.77C40.6098 208.789 40.6135 208.81 40.6142 208.831L41.1292 224.329C41.1307 224.371 41.1204 224.412 41.1004 224.444C41.0804 224.475 41.0523 224.495 41.0219 224.499Z" fill="#0C0C0C"/>
</svg>
