<svg width="179" height="250" viewBox="0 0 179 250" fill="none" xmlns="http://www.w3.org/2000/svg">
<path d="M51.0329 102.171L124.739 102.171C126.549 102.171 128.017 99.6994 128.017 96.6505V5.74808C128.017 2.69916 126.549 0.227516 124.739 0.227516L51.0329 0.227516C49.2229 0.227516 47.7556 2.69916 47.7556 5.74808V96.6505C47.7556 99.6994 49.2229 102.171 51.0329 102.171Z" fill="white"/>
<path d="M124.74 102.399H51.0331C50.1284 102.397 49.261 101.791 48.6213 100.713C47.9816 99.6356 47.6217 98.1745 47.6207 96.6505V5.74811C47.6217 4.22413 47.9816 2.76306 48.6213 1.68544C49.261 0.607824 50.1284 0.00168125 51.0331 0L124.74 0C125.644 0.00168111 126.512 0.607815 127.151 1.68542C127.791 2.76303 128.151 4.22411 128.152 5.74811V96.6505C128.151 98.1745 127.791 99.6356 127.151 100.713C126.512 101.791 125.644 102.397 124.74 102.399ZM51.0331 0.455121C50.2001 0.456729 49.4014 1.0149 48.8123 2.00718C48.2232 2.99946 47.8919 4.34482 47.8909 5.74811V96.6505C47.8919 98.0538 48.2232 99.3992 48.8123 100.391C49.4014 101.384 50.2001 101.942 51.0331 101.943H124.74C125.573 101.942 126.371 101.384 126.96 100.391C127.549 99.3992 127.881 98.0538 127.882 96.6505V5.74811C127.881 4.34479 127.549 2.99943 126.96 2.00716C126.371 1.01489 125.573 0.456729 124.74 0.455121H51.0331Z" fill="#292A2E"/>
<path d="M57.307 8.79127L52.0391 9.63273C51.495 9.71965 51.0958 10.5331 51.1474 11.4496L51.6469 20.3233C51.6985 21.2398 52.1814 21.9123 52.7255 21.8254L57.9934 20.984C58.5375 20.8971 58.9367 20.0836 58.8851 19.1671L58.3856 10.2934C58.334 9.37688 57.8511 8.70436 57.307 8.79127Z" fill="#292A2E"/>
<path d="M72.3084 28.0408L67.0472 27.0873C66.5038 26.9888 66.0159 27.651 65.9575 28.5663L65.3914 37.4287C65.3329 38.344 65.7261 39.1659 66.2695 39.2644L71.5306 40.2179C72.074 40.3164 72.5619 39.6542 72.6204 38.7389L73.1865 29.8765C73.2449 28.9611 72.8518 28.1393 72.3084 28.0408Z" fill="white"/>
<path d="M71.6385 40.504C71.5966 40.504 71.5548 40.5002 71.5131 40.4927L66.2521 39.5391C65.948 39.4834 65.6695 39.2268 65.4776 38.8256C65.2857 38.4244 65.1961 37.9114 65.2285 37.3991L65.7947 28.5372C65.8108 28.2835 65.8565 28.0376 65.9291 27.8136C66.0018 27.5896 66.0998 27.3919 66.2178 27.2317C66.3358 27.0716 66.4713 26.9522 66.6167 26.8803C66.7621 26.8084 66.9144 26.7855 67.0651 26.8128L72.3261 27.7664C72.6303 27.8217 72.909 28.0782 73.1009 28.4795C73.2928 28.8808 73.3823 29.3941 73.3496 29.9064L72.7835 38.7683C72.7532 39.2444 72.6195 39.6848 72.4082 40.0051C72.197 40.3254 71.9228 40.5031 71.6385 40.504ZM71.548 39.9434C71.7657 39.9829 71.9838 39.8751 72.1544 39.6437C72.3249 39.4123 72.4338 39.0762 72.4573 38.7095L73.0236 29.8473C73.0469 29.4806 72.9829 29.1131 72.8455 28.8259C72.7081 28.5386 72.5086 28.355 72.2909 28.3155L67.0297 27.3621C66.9219 27.3426 66.8128 27.359 66.7088 27.4105C66.6047 27.4619 66.5077 27.5474 66.4233 27.662C66.3389 27.7766 66.2686 27.9181 66.2167 28.0784C66.1647 28.2387 66.132 28.4147 66.1204 28.5963L65.5543 37.4582C65.5312 37.8249 65.5954 38.1922 65.7327 38.4793C65.8701 38.7665 66.0695 38.9502 66.2872 38.9901L71.548 39.9434Z" fill="#292A2E"/>
<path d="M95.6537 42.092C95.6268 42.092 95.6003 42.0809 95.5766 42.0596C95.5528 42.0383 95.5325 42.0075 95.5175 41.9699C92.1792 33.606 87.1152 32.0832 83.4537 32.2765C80.9776 32.4353 78.533 33.2658 76.214 34.736C76.1739 34.7634 76.129 34.7629 76.0891 34.7348C76.0492 34.7067 76.0176 34.6532 76.001 34.586C75.9844 34.5187 75.9843 34.4432 76.0006 34.3757C76.0169 34.3083 76.0484 34.2545 76.0882 34.2259C78.4441 32.7314 80.9277 31.8867 83.4433 31.7244C87.1862 31.5262 92.3676 33.0881 95.7896 41.6614C95.8062 41.703 95.8158 41.7513 95.8173 41.8013C95.8189 41.8513 95.8123 41.9011 95.7983 41.9453C95.7844 41.9894 95.7635 42.0264 95.7381 42.0522C95.7126 42.078 95.6835 42.0917 95.6537 42.0917V42.092Z" fill="#292A2E"/>
<path d="M95.7144 42.205C95.6993 42.2049 95.6842 42.2014 95.6697 42.1945L92.3104 40.5963C92.2685 40.5764 92.2331 40.5294 92.2118 40.4654C92.1906 40.4015 92.1853 40.326 92.1971 40.2555C92.2089 40.185 92.2369 40.1253 92.2748 40.0895C92.3127 40.0537 92.3576 40.0448 92.3994 40.0647L95.601 41.5875L96.5051 36.1945C96.5178 36.1256 96.5459 36.0678 96.5835 36.0333C96.6211 35.9989 96.6652 35.9906 96.7064 36.0102C96.7476 36.0299 96.7826 36.0758 96.8039 36.1383C96.8252 36.2008 96.8312 36.2749 96.8206 36.3447L95.872 42.0034C95.8623 42.0613 95.8417 42.1123 95.8133 42.1487C95.7848 42.1851 95.7501 42.2049 95.7144 42.205Z" fill="#292A2E"/>
<path d="M100.983 44.6823L95.7153 45.5238C95.1712 45.6107 94.7719 46.4241 94.8235 47.3406L95.323 56.2143C95.3746 57.1308 95.8575 57.8034 96.4016 57.7165L101.67 56.875C102.214 56.7881 102.613 55.9746 102.561 55.0581L102.062 46.1844C102.01 45.2679 101.527 44.5954 100.983 44.6823Z" fill="#367CFF"/>
<path d="M118.2 17.4023L112.919 16.8303C112.374 16.7712 111.903 17.4681 111.868 18.3869L111.529 27.282C111.494 28.2007 111.907 28.9934 112.453 29.0525L117.733 29.6244C118.279 29.6835 118.749 28.9866 118.785 28.0679L119.124 19.1727C119.159 18.254 118.745 17.4613 118.2 17.4023Z" fill="#292A2E"/>
<path d="M121.184 46.4299L115.923 45.4764C115.379 45.3779 114.891 46.0401 114.833 46.9554L114.267 55.8178C114.208 56.7331 114.601 57.555 115.145 57.6535L120.406 58.607C120.949 58.7055 121.437 58.0433 121.496 57.128L122.062 48.2656C122.12 47.3502 121.727 46.5284 121.184 46.4299Z" fill="#0CBC8B"/>
<path d="M92.3032 75.2994L87.0353 76.1409C86.4912 76.2278 86.092 77.0412 86.1436 77.9577L86.6431 86.8314C86.6947 87.748 87.1776 88.4205 87.7217 88.3336L92.9896 87.4921C93.5337 87.4052 93.9329 86.5918 93.8813 85.6752L93.3818 76.8015C93.3302 75.885 92.8473 75.2125 92.3032 75.2994Z" fill="white"/>
<path d="M87.6277 88.6173C87.3409 88.6164 87.0645 88.4357 86.8524 88.1104C86.6402 87.7852 86.5075 87.3386 86.4801 86.8576L85.9806 77.9839C85.9521 77.4709 86.0455 76.9599 86.2404 76.5628C86.4353 76.1658 86.7157 75.9152 87.0201 75.8659L92.2877 75.0245C92.4386 75.0004 92.5907 75.0265 92.7355 75.1015C92.8803 75.1765 93.015 75.2988 93.1317 75.4614C93.2485 75.624 93.3451 75.8237 93.416 76.0492C93.4869 76.2747 93.5308 76.5216 93.545 76.7756L94.0446 85.6491C94.0731 86.162 93.9797 86.673 93.7848 87.0701C93.59 87.4671 93.3096 87.7178 93.0052 87.767L87.7376 88.6085C87.7005 88.6143 87.6638 88.6173 87.6277 88.6173ZM92.3986 75.568C92.3723 75.568 92.3458 75.5702 92.3194 75.5743L87.051 76.415C86.833 76.4501 86.6322 76.6295 86.4927 76.9138C86.3531 77.198 86.2862 77.5639 86.3066 77.9311L86.8062 86.8046C86.8273 87.1715 86.9339 87.5094 87.1026 87.7443C87.2713 87.9792 87.4883 88.0919 87.7063 88.0578L92.974 87.2163C93.1919 87.1811 93.3927 87.0017 93.5322 86.7174C93.6717 86.4332 93.7386 86.0674 93.7182 85.7002L93.2186 76.8267C93.1992 76.4825 93.1043 76.1629 92.9526 75.9301C92.8009 75.6972 92.6032 75.5678 92.3979 75.5671L92.3986 75.568Z" fill="#292A2E"/>
<path d="M58.3362 72.2981L53.0683 73.1396C52.5242 73.2265 52.125 74.0399 52.1766 74.9565L52.6761 83.8302C52.7277 84.7467 53.2106 85.4192 53.7547 85.3323L59.0226 84.4908C59.5667 84.4039 59.966 83.5905 59.9144 82.674L59.4148 73.8003C59.3632 72.8837 58.8803 72.2112 58.3362 72.2981Z" fill="#367CFF"/>
<path d="M100.483 40.1613C100.477 40.1613 100.47 40.1608 100.464 40.1597C100.443 40.1555 100.422 40.1443 100.403 40.1267C100.384 40.1091 100.368 40.0854 100.354 40.0569C100.341 40.0285 100.331 39.996 100.325 39.9611C100.319 39.9262 100.317 39.8897 100.32 39.8537C100.566 37.0655 101.078 34.3626 101.835 31.849C103.475 26.4961 106.046 23.426 109.269 22.9686C109.312 22.9625 109.355 22.9856 109.388 23.0328C109.421 23.0801 109.442 23.1476 109.446 23.2206C109.449 23.2936 109.436 23.3661 109.408 23.422C109.38 23.478 109.34 23.5129 109.296 23.519C101.779 24.5839 100.656 39.7636 100.645 39.9169C100.641 39.9841 100.622 40.0462 100.592 40.0912C100.562 40.1363 100.523 40.1612 100.483 40.1613Z" fill="#292A2E"/>
<path d="M107.71 26.2558C107.677 26.2558 107.645 26.2397 107.619 26.2094C107.592 26.1791 107.571 26.136 107.558 26.0856C107.546 26.0352 107.542 25.9797 107.549 25.9261C107.555 25.8726 107.57 25.8233 107.593 25.7847L109.108 23.2216L107.587 20.6698C107.571 20.6444 107.559 20.614 107.55 20.5803C107.541 20.5466 107.537 20.5104 107.537 20.4737C107.536 20.4371 107.54 20.4007 107.549 20.3667C107.557 20.3328 107.569 20.3019 107.584 20.2759C107.6 20.2499 107.618 20.2294 107.638 20.2154C107.658 20.2014 107.68 20.1944 107.702 20.1946C107.723 20.1949 107.745 20.2024 107.765 20.2168C107.785 20.2312 107.803 20.2522 107.818 20.2785L109.456 23.0252C109.486 23.077 109.504 23.1472 109.504 23.2205C109.504 23.2937 109.486 23.3639 109.456 23.4157L107.825 26.1743C107.81 26.2001 107.792 26.2205 107.772 26.2345C107.752 26.2485 107.731 26.2557 107.71 26.2558Z" fill="#292A2E"/>
<path d="M89.8245 71.1742C89.7894 71.1742 89.7552 71.1552 89.727 71.1201C89.6988 71.0849 89.678 71.0354 89.6678 70.9789C89.6433 70.8439 87.2855 57.4316 93.3893 51.8683C93.4083 51.8502 93.4292 51.8386 93.4509 51.8343C93.4725 51.83 93.4945 51.833 93.5154 51.8432C93.5364 51.8533 93.5559 51.8704 93.5729 51.8934C93.5899 51.9165 93.604 51.945 93.6143 51.9773C93.6247 52.0096 93.6311 52.045 93.6333 52.0816C93.6354 52.1181 93.6332 52.155 93.6268 52.1901C93.6203 52.2252 93.6098 52.2577 93.5958 52.2859C93.5818 52.314 93.5646 52.3372 93.5453 52.354C87.6794 57.6998 89.9581 70.6854 89.9817 70.816C89.9892 70.8573 89.9909 70.901 89.9866 70.9435C89.9822 70.9861 89.972 71.0264 89.9568 71.0611C89.9416 71.0958 89.9217 71.124 89.8988 71.1435C89.8759 71.1629 89.8506 71.1731 89.825 71.1731L89.8245 71.1742Z" fill="#292A2E"/>
<path d="M92.7659 55.5523C92.7392 55.5523 92.713 55.5413 92.6894 55.5203C92.6658 55.4993 92.6457 55.469 92.6306 55.4319C92.6156 55.3948 92.6061 55.3521 92.6031 55.3075C92.6001 55.2629 92.6035 55.2177 92.6132 55.1759L93.2972 52.2162L91.5402 51.0629C91.5004 51.0355 91.4687 50.9829 91.4517 50.9164C91.4347 50.8499 91.434 50.7749 91.4495 50.7074C91.4651 50.6399 91.4957 50.5855 91.5349 50.5557C91.574 50.5259 91.6186 50.5232 91.6589 50.5482L93.5689 51.8003C93.5889 51.8135 93.6073 51.8332 93.6228 51.8583C93.6384 51.8834 93.6508 51.9134 93.6595 51.9466C93.6682 51.9798 93.6729 52.0155 93.6733 52.0518C93.6738 52.0881 93.67 52.1241 93.6622 52.1579L92.9187 55.375C92.9068 55.4271 92.8859 55.4719 92.8586 55.5036C92.8313 55.5352 92.799 55.5522 92.7659 55.5523Z" fill="#292A2E"/>
<path d="M69.4339 25.5568C69.3905 25.5568 69.3488 25.5277 69.318 25.476C69.2873 25.4242 69.27 25.3539 69.27 25.2807C69.27 21.0854 68.535 17.883 67.0849 15.7626C64.511 11.9993 60.5076 12.9065 60.4674 12.9162C60.4243 12.9266 60.3806 12.9077 60.3458 12.8637C60.311 12.8198 60.288 12.7544 60.2819 12.6819C60.2757 12.6093 60.2869 12.5357 60.313 12.4771C60.3391 12.4185 60.3779 12.3797 60.421 12.3694C60.5907 12.3282 64.61 11.415 67.2984 15.3431C68.8244 17.5732 69.5981 20.9167 69.5979 25.2807C69.5979 25.3169 69.5936 25.3528 69.5854 25.3864C69.5772 25.4199 69.5651 25.4503 69.5499 25.476C69.5346 25.5016 69.5166 25.5219 69.4967 25.5358C69.4768 25.5497 69.4555 25.5568 69.4339 25.5568Z" fill="#292A2E"/>
<path d="M69.4418 25.6557C69.4367 25.6557 69.4315 25.6557 69.4264 25.6557C69.4049 25.6524 69.3841 25.6419 69.3651 25.6249C69.346 25.6079 69.3291 25.5848 69.3154 25.5569L67.841 22.558C67.8133 22.5016 67.8 22.4289 67.8041 22.3559C67.8081 22.283 67.8292 22.2157 67.8627 22.169C67.8963 22.1223 67.9394 22.0999 67.9827 22.1067C68.026 22.1136 68.0659 22.1492 68.0937 22.2056L69.4641 24.9929L71.118 22.6864C71.1346 22.6633 71.1537 22.6459 71.1743 22.6352C71.1949 22.6246 71.2165 22.6208 71.2379 22.6242C71.2594 22.6277 71.2802 22.6381 71.2992 22.6551C71.3182 22.6721 71.3351 22.6952 71.3488 22.7231C71.3626 22.7511 71.3729 22.7833 71.3792 22.818C71.3855 22.8526 71.3878 22.8891 71.3857 22.9252C71.3837 22.9613 71.3775 22.9964 71.3674 23.0284C71.3573 23.0605 71.3436 23.0889 71.327 23.112L69.5461 25.5933C69.5167 25.6339 69.4798 25.6559 69.4418 25.6557Z" fill="#292A2E"/>
<path d="M73.0667 56.0223H67.7751C67.2286 56.0223 66.7855 56.7686 66.7855 57.6892V66.6028C66.7855 67.5234 67.2286 68.2697 67.7751 68.2697H73.0667C73.6132 68.2697 74.0562 67.5234 74.0562 66.6028V57.6892C74.0562 56.7686 73.6132 56.0223 73.0667 56.0223Z" fill="#0CBC8B"/>
<path d="M86.5434 72.3122C86.5069 72.3121 86.4715 72.2915 86.4427 72.2536C86.414 72.2158 86.3936 72.1628 86.3847 72.1032C84.5569 59.7862 75.6195 60.65 75.5306 60.6603C75.5091 60.6627 75.4875 60.658 75.467 60.6464C75.4466 60.6348 75.4277 60.6165 75.4114 60.5926C75.3952 60.5686 75.3819 60.5396 75.3723 60.507C75.3627 60.4744 75.3571 60.439 75.3556 60.4027C75.3541 60.3665 75.3569 60.3301 75.3638 60.2956C75.3707 60.2612 75.3816 60.2294 75.3958 60.202C75.41 60.1746 75.4272 60.1522 75.4466 60.1361C75.4659 60.1199 75.4869 60.1104 75.5085 60.1079C77.1546 60.0141 78.7986 60.3786 80.3742 61.1866C82.7141 62.4181 85.7114 65.2882 86.7026 71.9679C86.7078 72.0031 86.7089 72.0396 86.7057 72.0755C86.7025 72.1114 86.6952 72.1459 86.6841 72.177C86.673 72.2081 86.6584 72.2353 86.6411 72.2568C86.6238 72.2784 86.6041 72.2941 86.5832 72.3028C86.5702 72.3088 86.5568 72.312 86.5434 72.3122Z" fill="#292A2E"/>
<path d="M86.5662 72.4053C86.5322 72.4053 86.499 72.3875 86.4713 72.3542L84.6159 70.1364C84.5805 70.0939 84.5565 70.0295 84.5493 69.9573C84.542 69.885 84.5521 69.8109 84.5773 69.7512C84.6025 69.6915 84.6407 69.6512 84.6836 69.639C84.7265 69.6268 84.7705 69.6438 84.8059 69.6862L86.5256 71.742L87.7514 68.7478C87.7762 68.6881 87.8141 68.6473 87.8567 68.6344C87.8993 68.6215 87.9432 68.6375 87.9788 68.6789C88.0144 68.7203 88.0389 68.7838 88.0468 68.8555C88.0548 68.9272 88.0456 69.0012 88.0212 69.0615L86.7011 72.286C86.6888 72.3161 86.6731 72.3418 86.6548 72.3616C86.6365 72.3814 86.6161 72.3948 86.5947 72.4012C86.5853 72.4039 86.5758 72.4053 86.5662 72.4053Z" fill="#292A2E"/>
<path d="M167.166 250L167.488 249.896L162.455 165.656L162.133 165.761L167.166 250Z" fill="#494949"/>
<path d="M148.427 250L148.749 249.896L143.717 165.656L143.395 165.761L148.427 250Z" fill="#494949"/>
<path d="M107.006 250L106.684 249.896L111.717 165.656L112.039 165.761L107.006 250Z" fill="#494949"/>
<path d="M125.745 250L125.423 249.896L130.455 165.656L130.777 165.761L125.745 250Z" fill="#494949"/>
<path d="M132.417 128.58L129.477 165.671L129.802 165.744L132.742 128.654L132.417 128.58Z" fill="#494949"/>
<path d="M166.161 128.58L163.221 165.671L163.546 165.744L166.486 128.653L166.161 128.58Z" fill="#494949"/>
<path d="M129.507 168.425H162.513C163.403 168.425 164.125 167.209 164.125 165.709V165.708C164.125 164.208 163.403 162.992 162.513 162.992H129.507C128.617 162.992 127.895 164.208 127.895 165.708V165.709C127.895 167.209 128.617 168.425 129.507 168.425Z" fill="#292A2E"/>
<path opacity="0.8" d="M129.507 168.425H162.513C163.403 168.425 164.125 167.209 164.125 165.709V165.708C164.125 164.208 163.403 162.992 162.513 162.992H129.507C128.617 162.992 127.895 164.208 127.895 165.708V165.709C127.895 167.209 128.617 168.425 129.507 168.425Z" fill="white"/>
<path d="M127.731 165.709C127.731 164.915 127.919 164.155 128.252 163.594C128.585 163.033 129.036 162.718 129.507 162.717H162.513C162.984 162.717 163.436 163.032 163.769 163.593C164.102 164.154 164.289 164.915 164.289 165.709C164.289 166.503 164.102 167.264 163.769 167.825C163.436 168.386 162.984 168.701 162.513 168.701H129.507C129.036 168.7 128.585 168.385 128.252 167.824C127.919 167.263 127.731 166.502 127.731 165.709ZM129.507 163.269C129.123 163.269 128.755 163.526 128.483 163.983C128.211 164.441 128.059 165.062 128.059 165.709C128.059 166.356 128.211 166.976 128.483 167.434C128.755 167.892 129.123 168.149 129.507 168.149H162.513C162.897 168.149 163.265 167.892 163.537 167.434C163.809 166.976 163.961 166.356 163.961 165.709C163.961 165.062 163.809 164.441 163.537 163.983C163.265 163.526 162.897 163.269 162.513 163.269H129.507Z" fill="#292A2E"/>
<path d="M111.392 168.425H144.397C145.288 168.425 146.01 167.209 146.01 165.709V165.708C146.01 164.208 145.288 162.992 144.397 162.992H111.392C110.501 162.992 109.779 164.208 109.779 165.708V165.709C109.779 167.209 110.501 168.425 111.392 168.425Z" fill="white"/>
<path d="M109.615 165.709C109.615 164.915 109.803 164.155 110.136 163.594C110.469 163.033 110.921 162.717 111.392 162.717H144.398C144.869 162.717 145.32 163.032 145.654 163.593C145.987 164.154 146.174 164.915 146.174 165.709C146.174 166.503 145.987 167.264 145.654 167.825C145.32 168.386 144.869 168.701 144.398 168.701H111.392C110.921 168.701 110.469 168.385 110.136 167.824C109.803 167.263 109.615 166.502 109.615 165.709ZM111.392 163.269C111.202 163.269 111.013 163.332 110.838 163.455C110.662 163.577 110.502 163.757 110.368 163.984C110.233 164.21 110.126 164.479 110.054 164.775C109.981 165.071 109.943 165.389 109.943 165.709C109.943 166.029 109.981 166.347 110.054 166.643C110.126 166.939 110.233 167.208 110.368 167.434C110.502 167.661 110.662 167.841 110.838 167.963C111.013 168.086 111.202 168.149 111.392 168.149H144.398C144.782 168.149 145.15 167.892 145.422 167.434C145.693 166.977 145.846 166.356 145.846 165.709C145.846 165.062 145.693 164.441 145.422 163.984C145.15 163.526 144.782 163.269 144.398 163.269H111.392Z" fill="#292A2E"/>
<path d="M134.227 128.619H166.237C166.76 128.618 167.266 128.298 167.659 127.716C168.052 127.134 168.306 126.331 168.374 125.457L170.491 98.0664C170.531 97.5544 170.505 97.0341 170.416 96.5402C170.327 96.0463 170.176 95.5901 169.974 95.2022C169.771 94.8143 169.522 94.5035 169.243 94.2905C168.964 94.0776 168.661 93.9675 168.354 93.9675H136.344C135.821 93.9672 135.315 94.288 134.922 94.8699C134.528 95.4518 134.274 96.2551 134.207 97.1296L132.089 124.52C132.05 125.032 132.075 125.552 132.165 126.046C132.254 126.54 132.405 126.996 132.607 127.384C132.81 127.772 133.059 128.083 133.338 128.296C133.617 128.509 133.92 128.619 134.227 128.619Z" fill="#292A2E"/>
<path opacity="0.8" d="M134.227 128.619H166.237C166.76 128.618 167.266 128.298 167.659 127.716C168.052 127.134 168.306 126.331 168.374 125.457L170.491 98.0664C170.531 97.5544 170.505 97.0341 170.416 96.5402C170.327 96.0463 170.176 95.5901 169.974 95.2022C169.771 94.8143 169.522 94.5035 169.243 94.2905C168.964 94.0776 168.661 93.9675 168.354 93.9675H136.344C135.821 93.9672 135.315 94.288 134.922 94.8699C134.528 95.4518 134.274 96.2551 134.207 97.1296L132.089 124.52C132.05 125.032 132.075 125.552 132.165 126.046C132.254 126.54 132.405 126.996 132.607 127.384C132.81 127.772 133.059 128.083 133.338 128.296C133.617 128.509 133.92 128.619 134.227 128.619Z" fill="white"/>
<path d="M132.485 127.566C132.267 127.149 132.105 126.658 132.009 126.126C131.913 125.595 131.885 125.035 131.928 124.484L134.045 97.094C134.119 96.1541 134.393 95.2913 134.816 94.6656C135.239 94.04 135.782 93.694 136.345 93.6919H168.355C168.685 93.6919 169.011 93.8104 169.311 94.0395C169.612 94.2686 169.88 94.6031 170.097 95.0206C170.315 95.438 170.477 95.9289 170.573 96.4604C170.669 96.992 170.697 97.5519 170.654 98.1028L168.537 125.493C168.463 126.433 168.189 127.295 167.766 127.921C167.344 128.547 166.8 128.893 166.237 128.895H134.227C133.897 128.895 133.571 128.776 133.271 128.547C132.971 128.318 132.703 127.983 132.485 127.566ZM136.344 94.2442C135.861 94.2463 135.395 94.5435 135.032 95.0806C134.669 95.6178 134.434 96.3584 134.371 97.1652L132.253 124.555C132.217 125.028 132.24 125.509 132.323 125.965C132.405 126.422 132.545 126.843 132.732 127.202C132.918 127.56 133.149 127.847 133.407 128.044C133.664 128.241 133.944 128.342 134.228 128.342H166.238C166.721 128.341 167.187 128.044 167.55 127.506C167.914 126.969 168.149 126.228 168.212 125.421L170.329 98.0313C170.366 97.5583 170.342 97.0776 170.26 96.6212C170.177 96.1649 170.038 95.7435 169.851 95.385C169.664 95.0266 169.434 94.7395 169.176 94.5427C168.918 94.346 168.638 94.2442 168.355 94.2442H136.344Z" fill="#292A2E"/>
<path d="M132.417 128.619H164.427C164.95 128.618 165.456 128.298 165.849 127.716C166.242 127.134 166.496 126.331 166.564 125.457L168.681 98.0664C168.721 97.5544 168.695 97.0341 168.606 96.5402C168.517 96.0463 168.366 95.5901 168.163 95.2022C167.961 94.8142 167.712 94.5035 167.433 94.2905C167.154 94.0776 166.851 93.9675 166.544 93.9675H134.535C134.011 93.9675 133.506 94.2883 133.113 94.87C132.719 95.4517 132.465 96.2546 132.398 97.1288L130.28 124.519C130.241 125.031 130.266 125.551 130.355 126.045C130.445 126.539 130.595 126.995 130.798 127.383C131 127.771 131.249 128.082 131.528 128.295C131.807 128.508 132.11 128.618 132.417 128.619Z" fill="white"/>
<path d="M130.674 127.566C130.457 127.149 130.294 126.658 130.198 126.126C130.102 125.595 130.074 125.035 130.117 124.484L132.234 97.094C132.308 96.1539 132.582 95.291 133.005 94.6653C133.428 94.0397 133.972 93.6938 134.535 93.6919H166.545C166.874 93.6919 167.2 93.8104 167.501 94.0395C167.801 94.2686 168.069 94.6031 168.287 95.0206C168.505 95.438 168.667 95.9289 168.763 96.4604C168.859 96.992 168.887 97.5519 168.844 98.1028L166.727 125.493C166.653 126.433 166.379 127.295 165.956 127.921C165.533 128.547 164.99 128.893 164.427 128.895H132.417C132.087 128.895 131.761 128.776 131.461 128.547C131.16 128.318 130.892 127.983 130.674 127.566ZM134.535 94.2442C134.051 94.2461 133.585 94.5432 133.222 95.0804C132.859 95.6175 132.624 96.3583 132.56 97.1652L130.443 124.555C130.406 125.028 130.43 125.509 130.512 125.965C130.595 126.422 130.734 126.843 130.921 127.202C131.108 127.56 131.338 127.847 131.596 128.044C131.854 128.241 132.134 128.342 132.417 128.342H164.427C164.91 128.341 165.377 128.044 165.74 127.506C166.103 126.969 166.338 126.228 166.401 125.421L168.519 98.0316C168.555 97.5585 168.531 97.0778 168.449 96.6215C168.366 96.1651 168.227 95.7437 168.04 95.3852C167.853 95.0268 167.623 94.7396 167.365 94.5428C167.107 94.3461 166.827 94.2443 166.544 94.2442H134.535Z" fill="#292A2E"/>
<path d="M108.224 235.408C108.224 235.408 107.345 243.083 103.079 243.511C98.8125 243.939 99.7377 249.664 99.7377 249.664H116.041V235.943L108.224 235.408Z" fill="#367CFF"/>
<path d="M122.853 230.562C122.853 230.562 124.075 238.103 120.359 241.659C116.643 245.215 118.973 249.664 118.973 249.664L133.603 237.54L130.007 225.23L122.853 230.562Z" fill="#367CFF"/>
<path d="M131.914 228.432L119.577 162.873H141.939C146.431 162.873 148.304 156.456 148.304 148.889C148.304 141.323 143.888 134.69 139.396 134.69H109.215C106.475 134.69 103.403 137.513 101.9 141.371C100.396 145.229 100.802 151.207 101.892 155.442L121.647 236.266" fill="#262626"/>
<path opacity="0.8" d="M131.914 228.432L119.577 162.873H141.939C146.431 162.873 148.304 156.456 148.304 148.889C148.304 141.323 143.888 134.69 139.396 134.69H109.215C106.475 134.69 103.403 137.513 101.9 141.371C100.396 145.229 100.802 151.207 101.892 155.442L121.647 236.266" fill="#0A0A0A"/>
<path d="M117.316 240.91L121.218 162.873L148.303 162.87C154.65 162.032 157.556 156.173 157.464 148.608C157.373 141.139 155.128 133.762 150.714 133.762H114.208C110.942 133.875 107.162 139.079 107.162 145.064L105.265 240.003" fill="#262626"/>
<path d="M159.312 133.853C159.312 133.853 160.515 147.067 158.608 154.413C156.228 163.585 147.305 162.87 147.305 162.87L147.807 133.762L159.312 133.853Z" fill="#262626"/>
<path d="M160.638 132.36L160.673 132.363C160.673 132.363 160.648 131.237 160.638 132.36Z" fill="#333333"/>
<path d="M160.594 132.36L160.63 132.363C160.63 132.363 160.604 131.237 160.594 132.36Z" fill="#333333"/>
<path d="M102.527 78.79C102.59 78.5771 102.692 78.4028 102.817 78.2912C102.942 78.1796 103.085 78.1362 103.225 78.167C103.224 78.146 103.227 78.1249 103.233 78.1065C103.24 78.0924 103.248 78.0814 103.258 78.0746C103.268 78.0679 103.279 78.0657 103.289 78.0681L102.815 77.4959C102.674 77.3324 102.572 77.0882 102.529 76.8083C102.486 76.5285 102.505 76.2318 102.581 75.9732C102.662 75.7217 102.795 75.5297 102.955 75.4343C103.115 75.339 103.291 75.347 103.447 75.457C103.446 75.4457 103.451 75.4349 103.452 75.4233L103.257 75.1883C103.124 75.0335 103.027 74.806 102.982 74.5443C102.937 74.2827 102.947 74.0029 103.01 73.7522C103.052 73.5964 103.114 73.4581 103.191 73.3473C103.268 73.2365 103.359 73.156 103.457 73.1116C103.555 73.0672 103.658 73.06 103.758 73.0905C103.858 73.121 103.952 73.1884 104.035 73.288L104.484 73.8304C104.486 73.826 104.484 73.8207 104.486 73.8166C104.488 73.8124 104.493 73.8108 104.495 73.8064C104.392 73.6108 104.331 73.3621 104.323 73.1008C104.315 72.8396 104.36 72.5815 104.45 72.3686C104.662 71.7939 105.152 71.9113 105.442 72.262L108.087 75.3391L107.614 73.9958C107.519 73.7378 107.486 73.4286 107.521 73.1306C107.556 72.8326 107.656 72.5681 107.803 72.3905C107.88 72.3032 107.967 72.2435 108.059 72.2148C108.15 72.1862 108.244 72.1893 108.335 72.2239C108.426 72.2586 108.512 72.324 108.587 72.4163C108.662 72.5085 108.726 72.6257 108.773 72.7605L111.354 80.0789C111.657 80.9376 111.749 81.9613 111.611 82.9325C111.473 83.9037 111.115 84.7459 110.614 85.2802C110.033 85.8999 109.356 86.2132 108.669 86.1799C107.981 86.1467 107.316 85.7684 106.757 85.0935L102.763 80.2717C102.63 80.1056 102.535 79.8689 102.492 79.6C102.449 79.3311 102.461 79.0457 102.527 78.79Z" fill="#E98862"/>
<g opacity="0.25">
<path d="M107.101 76.8687C107.092 76.8912 107.077 76.9065 107.061 76.9111C107.044 76.9157 107.028 76.9095 107.014 76.8936L104.501 73.9621C104.488 73.9459 104.478 73.9213 104.475 73.8936C104.473 73.8659 104.476 73.8374 104.486 73.8143C104.495 73.7911 104.51 73.7753 104.526 73.7701C104.543 73.7649 104.56 73.7709 104.573 73.7867L107.086 76.7188C107.093 76.7267 107.099 76.7368 107.103 76.7485C107.108 76.7603 107.111 76.7734 107.113 76.7872C107.114 76.801 107.114 76.8151 107.112 76.8288C107.111 76.8425 107.107 76.8555 107.103 76.8671L107.101 76.8687Z" fill="#0C0C0C"/>
</g>
<g opacity="0.25">
<path d="M106.364 78.7712C106.355 78.7937 106.34 78.809 106.324 78.8136C106.307 78.8182 106.291 78.812 106.277 78.7961L103.474 75.5244C103.46 75.5083 103.45 75.4837 103.447 75.4559C103.444 75.4281 103.448 75.3994 103.457 75.3761C103.467 75.3535 103.482 75.3381 103.498 75.333C103.514 75.3279 103.531 75.3334 103.545 75.3484L106.35 78.6202C106.356 78.6281 106.362 78.6382 106.367 78.65C106.371 78.6617 106.374 78.6748 106.376 78.6886C106.378 78.7024 106.377 78.7165 106.376 78.7302C106.374 78.7439 106.371 78.7569 106.366 78.7685L106.364 78.7712Z" fill="#0C0C0C"/>
</g>
<g opacity="0.25">
<path d="M105.573 80.8394C105.563 80.862 105.549 80.8772 105.532 80.8818C105.516 80.8864 105.499 80.8802 105.486 80.8643L103.249 78.2545C103.236 78.2381 103.227 78.2136 103.224 78.1862C103.221 78.1588 103.225 78.1307 103.234 78.1078C103.244 78.085 103.258 78.0693 103.274 78.064C103.291 78.0587 103.307 78.0642 103.321 78.0794L105.558 80.6892C105.565 80.6971 105.571 80.7072 105.575 80.719C105.58 80.7307 105.583 80.7439 105.584 80.7576C105.586 80.7714 105.586 80.7856 105.584 80.7993C105.582 80.813 105.579 80.826 105.574 80.8375L105.573 80.8394Z" fill="#0C0C0C"/>
</g>
<path d="M112.877 78.4128L120.457 100.158L129.705 79.7235L137.386 91.3879L124.269 120.003L124.183 120.207C123.658 121.418 122.958 122.384 122.15 123.014C121.342 123.644 120.452 123.917 119.564 123.808C118.676 123.699 117.82 123.21 117.075 122.389C116.33 121.567 115.721 120.44 115.306 119.112L104.528 86.2333L112.877 78.4128Z" fill="#367CFF"/>
<path d="M121.199 102.773C121.216 102.773 121.232 102.765 121.246 102.752C121.261 102.738 121.273 102.719 121.281 102.695C121.29 102.671 121.295 102.644 121.295 102.617C121.296 102.589 121.292 102.561 121.285 102.537L120.542 100.084C120.53 100.047 120.51 100.02 120.486 100.007C120.462 99.9951 120.436 99.9989 120.414 100.018C120.392 100.037 120.375 100.07 120.366 100.11C120.358 100.15 120.36 100.193 120.37 100.232L121.113 102.684C121.122 102.711 121.134 102.733 121.149 102.749C121.164 102.764 121.181 102.773 121.199 102.773Z" fill="#0C0C0C"/>
<path d="M130.238 100.034L130.046 100.053L130.277 106.921L130.469 106.902L130.238 100.034Z" fill="#0C0C0C"/>
<path d="M154.661 50.3284C154.661 50.3284 155.017 57.9733 156.058 60.7291C159.054 68.6625 159.968 77.6357 157.055 82.3893C154.141 87.143 135.352 87.5752 133.854 76.8017C132.593 67.7305 135.158 66.7026 135.733 59.1878C135.992 55.788 136.722 48.6546 136.722 48.6546" fill="#0A0A0A"/>
<path d="M138.637 75.0781C138.67 75.071 139.03 85.1306 145.968 84.2546C150.772 83.6484 152.484 75.0638 152.594 75.0638C152.076 74.8785 151.204 74.6089 150.974 74.401C150.218 73.7164 149.282 73.0041 149.038 70.53C148.898 69.1038 149.137 61.8084 149.063 60.3654L141.69 63.1376C141.793 66.1848 142.514 73.2491 139.986 74.4993C139.566 74.7072 139.113 74.8975 138.637 75.0781Z" fill="#E98862"/>
<path opacity="0.52" d="M141.586 71.6134C141.702 70.9864 141.776 70.34 141.808 69.6857C141.889 68.1928 141.873 66.6895 141.76 65.2025C143.258 64.8618 144.67 63.8198 145.835 62.195C145.972 63.0467 146.725 66.7683 146.516 67.5778C146.122 69.108 144.27 71.6134 141.586 71.6134Z" fill="#0C0C0C"/>
<path d="M142.564 68.4471C145.473 68.8641 149.221 66.8321 149.955 60.2966L150.618 54.3994C151.352 47.8637 149.909 41.9167 146.257 40.7513C142.604 39.5867 139.278 44.0145 138.544 50.5502L138.25 53.1608C137.968 55.6687 137.371 67.7029 142.564 68.4471Z" fill="#E98862"/>
<path d="M139.291 53.4455C139.544 53.4455 139.749 53.1002 139.749 52.6742C139.749 52.2482 139.544 51.9029 139.291 51.9029C139.038 51.9029 138.833 52.2482 138.833 52.6742C138.833 53.1002 139.038 53.4455 139.291 53.4455Z" fill="#0C0C0C"/>
<path d="M143.982 54.501C144.235 54.501 144.44 54.1557 144.44 53.7297C144.44 53.3037 144.235 52.9584 143.982 52.9584C143.73 52.9584 143.525 53.3037 143.525 53.7297C143.525 54.1557 143.73 54.501 143.982 54.501Z" fill="#0C0C0C"/>
<path d="M141.408 59.385C141.405 59.3848 141.403 59.3842 141.401 59.3834C141.253 59.3342 141.107 59.2714 140.963 59.1953C140.748 59.079 140.466 58.8863 140.504 58.5601C140.545 58.1879 141.602 54.3624 141.723 53.928C141.733 53.89 141.752 53.8606 141.776 53.8462C141.799 53.8318 141.825 53.8337 141.847 53.8514C141.87 53.8691 141.887 53.9011 141.896 53.9405C141.905 53.9799 141.903 54.0234 141.893 54.0614C141.442 55.6908 140.716 58.3696 140.688 58.6181C140.712 58.7344 141.069 58.955 141.436 59.0724C141.46 59.0796 141.482 59.1023 141.496 59.1357C141.51 59.1691 141.516 59.2106 141.512 59.2513C141.509 59.292 141.496 59.3287 141.476 59.3536C141.457 59.3785 141.433 59.3897 141.408 59.3848L141.408 59.385Z" fill="#0C0C0C"/>
<path d="M141.949 62.2069C141.353 62.0765 140.784 61.7121 140.287 61.1431C140.266 61.1202 140.251 61.0843 140.246 61.0433C140.241 61.0023 140.246 60.9595 140.259 60.9244C140.273 60.8893 140.294 60.8647 140.318 60.856C140.343 60.8474 140.368 60.8554 140.389 60.8783C141.464 62.0586 142.533 62.2494 143.479 61.4306C143.498 61.4129 143.518 61.3972 143.538 61.3834C143.562 61.3691 143.587 61.3711 143.61 61.3889C143.632 61.4067 143.65 61.4388 143.658 61.4782C143.667 61.5176 143.666 61.5611 143.655 61.599C143.644 61.637 143.625 61.6663 143.602 61.6805C143.595 61.6858 143.582 61.6968 143.565 61.7117C143.068 62.144 142.505 62.3164 141.949 62.2069Z" fill="#0C0C0C"/>
<path d="M153.54 56.4546L150.265 55.4433C147.785 53.7526 147.036 46.5204 147.036 46.5204C147.036 46.5204 144.023 51.4665 136.723 48.6535C136.723 48.6535 138.187 31.5036 148.973 36.49C152.45 38.0982 154.946 44.0017 154.635 51.8912C154.416 57.4204 153.54 56.4546 153.54 56.4546Z" fill="#0A0A0A"/>
<path d="M149.505 62.2155C150.615 62.5692 151.739 60.8556 151.95 58.9843C152.16 57.113 151.376 55.796 150.265 55.4422L149.553 56.5129L148.55 61.91L149.505 62.2155Z" fill="#E98862"/>
<path d="M141.053 50.8018C140.73 50.4495 140.355 50.2505 139.97 50.2257C139.781 50.2115 139.591 50.2453 139.407 50.326C139.225 50.4047 139.05 50.5217 138.885 50.6742C138.864 50.6955 138.849 50.7293 138.842 50.7689C138.835 50.8085 138.837 50.8511 138.847 50.8884C138.858 50.9256 138.877 50.9548 138.9 50.9701C138.922 50.9855 138.948 50.9859 138.971 50.9714L138.978 50.9661C139.13 50.8407 139.291 50.748 139.456 50.69C139.62 50.6308 139.789 50.6139 139.956 50.6397C140.287 50.6862 140.605 50.8797 140.877 51.2006L140.886 51.2114C140.902 51.2332 140.92 51.2494 140.939 51.259C140.959 51.2686 140.979 51.2714 140.999 51.2671C141.019 51.2629 141.038 51.2518 141.056 51.2345C141.073 51.2171 141.088 51.194 141.1 51.1664C141.112 51.1388 141.12 51.1074 141.125 51.0742C141.129 51.0409 141.129 51.0065 141.126 50.973C141.122 50.9396 141.114 50.9079 141.102 50.8798C141.091 50.8517 141.076 50.8279 141.059 50.8098L141.053 50.8018Z" fill="#0C0C0C"/>
<path d="M143.974 51.96C144.297 51.8271 144.635 51.8401 144.954 51.9979C145.115 52.0756 145.268 52.1939 145.409 52.3489C145.551 52.5042 145.681 52.689 145.795 52.899L145.801 52.9078C145.819 52.9354 145.843 52.9504 145.867 52.95C145.892 52.9495 145.915 52.9337 145.933 52.9055C145.951 52.8773 145.962 52.8388 145.964 52.7976C145.966 52.7564 145.959 52.7154 145.944 52.6828C145.823 52.4405 145.685 52.2248 145.532 52.0407C145.378 51.8537 145.208 51.7066 145.029 51.6043C144.664 51.3931 144.272 51.351 143.895 51.4826C143.859 51.4999 143.828 51.5396 143.809 51.5936C143.79 51.6477 143.783 51.7121 143.791 51.7737C143.799 51.8354 143.821 51.8897 143.851 51.9257C143.882 51.9617 143.92 51.9766 143.957 51.9675L143.963 51.965L143.974 51.96Z" fill="#0C0C0C"/>
<path d="M141.822 63.6907C141.714 63.67 141.607 63.6339 141.503 63.5828C141.479 63.5712 141.459 63.544 141.447 63.5073C141.435 63.4706 141.432 63.4274 141.439 63.3871C141.446 63.3468 141.462 63.3128 141.484 63.2925C141.505 63.2722 141.531 63.2674 141.555 63.279C142.183 63.5828 142.54 63.1801 142.555 63.1627C142.576 63.1386 142.601 63.1291 142.625 63.1364C142.65 63.1436 142.672 63.1669 142.686 63.2012C142.7 63.2356 142.706 63.278 142.702 63.3193C142.697 63.3606 142.683 63.3974 142.663 63.4215C142.41 63.6721 142.112 63.7673 141.822 63.6907Z" fill="#0C0C0C"/>
<path d="M150.258 55.3735L150.291 55.2207C146.142 52.7118 147.157 45.8529 147.167 45.7839L147.074 45.7427C147.063 45.8132 146.025 52.8134 150.258 55.3735Z" fill="#0C0C0C"/>
<path opacity="0.1" d="M145.288 58.9514C145.325 58.3595 144.968 57.8093 144.489 57.7225C144.01 57.6357 143.591 58.0451 143.553 58.637C143.515 59.2289 143.873 59.7791 144.352 59.8659C144.831 59.9527 145.25 59.5433 145.288 58.9514Z" fill="#0C0C0C"/>
<path opacity="0.1" d="M139.282 57.6021C139.243 58.1931 138.824 58.6021 138.345 58.5162C138.262 58.5013 138.181 58.4719 138.101 58.4284C138.074 57.725 138.069 57.0476 138.076 56.4212C138.209 56.3627 138.346 56.3464 138.482 56.3732C138.961 56.4588 139.319 57.0089 139.282 57.6021Z" fill="#0C0C0C"/>
<path d="M130.017 97.2269C130.236 101.552 131.299 128.434 131.509 133.762L159.312 133.861C159.476 129.056 161.366 108.048 161.986 98.6519C162.578 89.6865 163.74 85.1977 162.888 82.547C161.496 78.2151 157.694 75.7119 155.1 75.1204C153.517 74.7594 151.135 74.5007 151.135 74.5007C151.135 74.5007 150.934 81.3714 146.126 81.7539C139.581 82.2739 140.018 74.5007 139.986 74.5007C138.926 74.5007 132.869 75.631 131.387 77.1107C127.349 81.1375 129.553 88.0618 130.017 97.2269Z" fill="#367CFF"/>
<path d="M111.97 100.248L114.65 122.19C114.705 122.636 114.848 123.037 115.057 123.325C115.265 123.614 115.526 123.774 115.796 123.778L134.25 124.043C134.426 124.045 134.6 123.981 134.76 123.856C134.919 123.73 135.06 123.546 135.172 123.317C135.284 123.088 135.364 122.82 135.406 122.532C135.449 122.244 135.452 121.944 135.417 121.653L132.737 99.7112C132.682 99.2657 132.539 98.8651 132.33 98.5763C132.121 98.2874 131.86 98.1277 131.59 98.1238L113.136 97.859C112.96 97.8564 112.786 97.9203 112.627 98.0458C112.467 98.1713 112.326 98.3553 112.215 98.5844C112.103 98.8134 112.023 99.0817 111.98 99.3696C111.938 99.6575 111.935 99.9576 111.97 100.248Z" fill="#292A2E"/>
<path d="M129.178 115.834C129.168 116.123 129.221 116.408 129.326 116.637C129.431 116.866 129.582 117.023 129.75 117.08L130.318 117.291C130.308 117.296 130.299 117.306 130.291 117.319C130.284 117.332 130.279 117.348 130.276 117.365C130.274 117.385 130.277 117.406 130.283 117.423C130.147 117.488 130.026 117.623 129.937 117.809C129.848 117.995 129.795 118.223 129.787 118.462C129.786 118.74 129.841 119.01 129.942 119.229C130.044 119.448 130.187 119.603 130.347 119.668L135.144 121.463C135.389 121.556 135.64 121.602 135.891 121.602C136.451 121.601 137.003 121.372 137.498 120.933C137.994 120.494 138.418 119.858 138.736 119.081C139.072 118.259 139.205 117.248 139.106 116.263C139.006 115.279 138.683 114.398 138.204 113.809L134.124 108.783C134.034 108.673 133.929 108.6 133.819 108.572L134.195 111.644L134.095 111.605L134.073 111.599L130.944 110.527C130.595 110.397 130.118 110.61 130.056 111.28C130.023 111.535 130.042 111.802 130.111 112.037C130.179 112.272 130.293 112.462 130.433 112.574C130.431 112.577 130.427 112.58 130.427 112.587C130.427 112.594 130.429 112.597 130.429 112.603L129.888 112.402C129.789 112.365 129.687 112.366 129.588 112.403C129.489 112.441 129.397 112.516 129.317 112.621C129.237 112.727 129.172 112.86 129.127 113.013C129.082 113.166 129.057 113.333 129.055 113.504C129.055 113.777 129.111 114.041 129.213 114.252C129.316 114.463 129.459 114.608 129.617 114.662L129.85 114.75C129.852 114.763 129.85 114.776 129.854 114.785C129.684 114.788 129.521 114.896 129.396 115.09C129.271 115.284 129.193 115.549 129.178 115.834Z" fill="#E98862"/>
<g opacity="0.25">
<path d="M133.545 113.668C133.541 113.695 133.532 113.719 133.518 113.734C133.504 113.749 133.487 113.754 133.471 113.748L130.477 112.714C130.468 112.711 130.46 112.706 130.453 112.698C130.446 112.691 130.44 112.681 130.435 112.669C130.431 112.657 130.427 112.644 130.426 112.63C130.424 112.616 130.424 112.601 130.426 112.588C130.427 112.574 130.431 112.56 130.435 112.549C130.44 112.537 130.446 112.527 130.453 112.519C130.461 112.512 130.469 112.506 130.477 112.504C130.485 112.501 130.494 112.502 130.502 112.505L133.496 113.54C133.504 113.542 133.512 113.548 133.519 113.556C133.526 113.564 133.532 113.574 133.536 113.585C133.541 113.597 133.544 113.61 133.546 113.624C133.547 113.638 133.547 113.652 133.545 113.665L133.545 113.668Z" fill="#0C0C0C"/>
</g>
<g opacity="0.25">
<path d="M133.311 115.905C133.307 115.932 133.297 115.956 133.283 115.971C133.269 115.986 133.253 115.991 133.236 115.985L129.895 114.831C129.887 114.828 129.879 114.823 129.872 114.815C129.865 114.807 129.859 114.797 129.855 114.785C129.85 114.774 129.847 114.761 129.845 114.747C129.844 114.733 129.844 114.719 129.846 114.705C129.849 114.678 129.859 114.654 129.873 114.639C129.887 114.624 129.904 114.618 129.92 114.622L133.262 115.777C133.278 115.783 133.293 115.799 133.302 115.823C133.311 115.846 133.314 115.875 133.311 115.903L133.311 115.905Z" fill="#0C0C0C"/>
</g>
<g opacity="0.25">
<path d="M133.065 118.33C133.062 118.357 133.052 118.381 133.038 118.396C133.024 118.411 133.007 118.416 132.991 118.411L130.325 117.49C130.309 117.484 130.295 117.468 130.286 117.444C130.277 117.421 130.274 117.392 130.277 117.365C130.28 117.337 130.29 117.313 130.304 117.297C130.318 117.282 130.334 117.276 130.351 117.281L133.016 118.202C133.033 118.208 133.047 118.224 133.056 118.248C133.065 118.271 133.069 118.3 133.065 118.328L133.065 118.33Z" fill="#0C0C0C"/>
</g>
<path d="M135.441 124.66L161.467 132.582C162.279 132.731 163.101 132.561 163.867 132.085C164.634 131.609 165.325 130.841 165.885 129.84C166.446 128.839 166.861 127.633 167.099 126.316C167.336 124.999 167.389 123.608 167.253 122.251L163.61 85.7691C163.496 84.6129 163.249 83.5058 162.881 82.5112C162.513 81.5165 162.032 80.654 161.466 79.9729C160.9 79.2918 160.26 78.8056 159.582 78.5421C158.904 78.2787 158.202 78.2431 157.516 78.4375C156.83 78.6319 156.174 79.0524 155.584 79.675C154.995 80.2975 154.484 81.1099 154.082 82.0655C153.679 83.0211 153.392 84.1011 153.238 85.2437C153.083 86.3863 153.064 87.569 153.182 88.724L155.667 113.838L136.585 109.802L135.441 124.66Z" fill="#367CFF"/>
<path d="M161.467 132.745C161.491 132.744 161.514 132.729 161.532 132.701C161.549 132.674 161.56 132.636 161.562 132.596C161.564 132.556 161.557 132.516 161.543 132.484C161.528 132.452 161.507 132.43 161.484 132.423L135.547 124.528L136.668 109.983L155.653 113.999C155.668 114.003 155.683 114 155.697 113.992C155.711 113.983 155.724 113.969 155.735 113.951C155.745 113.933 155.753 113.911 155.757 113.887C155.762 113.863 155.763 113.837 155.76 113.813L154.182 97.7627C154.18 97.7416 154.176 97.7213 154.169 97.7031C154.162 97.6849 154.154 97.6691 154.143 97.6567C154.133 97.6443 154.121 97.6355 154.109 97.6307C154.097 97.626 154.084 97.6255 154.071 97.6293C154.046 97.6364 154.024 97.66 154.009 97.695C153.994 97.73 153.988 97.7735 153.992 97.816L155.55 113.651L136.597 109.642C136.572 109.637 136.547 109.649 136.527 109.675C136.506 109.701 136.493 109.74 136.49 109.782L135.346 124.64C135.342 124.681 135.349 124.723 135.363 124.757C135.378 124.79 135.4 124.813 135.424 124.821L161.45 132.742C161.456 132.744 161.462 132.744 161.467 132.745Z" fill="#0C0C0C"/>
<path d="M155.682 113.679L155.652 114L157.326 114.452L157.356 114.131L155.682 113.679Z" fill="#0C0C0C"/>
<path d="M178.886 249.836H0.114763C0.0843256 249.836 0.0551353 249.816 0.0336132 249.78C0.012091 249.744 0 249.694 0 249.643C0 249.592 0.012091 249.543 0.0336132 249.506C0.0551353 249.47 0.0843256 249.45 0.114763 249.45H178.885C178.916 249.45 178.945 249.47 178.966 249.506C178.988 249.543 179 249.592 179 249.643C179 249.694 178.988 249.744 178.966 249.78C178.945 249.816 178.916 249.836 178.885 249.836H178.886Z" fill="#292A2E"/>
<g opacity="0.65">
<path d="M178.886 249.836H0.114763C0.0843256 249.836 0.0551353 249.816 0.0336132 249.78C0.012091 249.744 0 249.694 0 249.643C0 249.592 0.012091 249.543 0.0336132 249.506C0.0551353 249.47 0.0843256 249.45 0.114763 249.45H178.885C178.916 249.45 178.945 249.47 178.966 249.506C178.988 249.543 179 249.592 179 249.643C179 249.694 178.988 249.744 178.966 249.78C178.945 249.816 178.916 249.836 178.885 249.836H178.886Z" fill="#292A2E"/>
</g>
<path d="M11.1082 250L10.7862 249.896L15.8187 165.656L16.1407 165.761L11.1082 250Z" fill="#494949"/>
<path d="M29.847 250L29.525 249.896L34.5573 165.656L34.8793 165.761L29.847 250Z" fill="#494949"/>
<path d="M71.2677 250L71.5897 249.896L66.5572 165.656L66.2352 165.761L71.2677 250Z" fill="#494949"/>
<path d="M52.529 250L52.8509 249.896L47.8186 165.656L47.4966 165.761L52.529 250Z" fill="#494949"/>
<path d="M45.855 128.583L45.53 128.656L48.4699 165.746L48.7949 165.673L45.855 128.583Z" fill="#494949"/>
<path d="M12.1108 128.582L11.7858 128.655L14.7257 165.746L15.0507 165.673L12.1108 128.582Z" fill="#494949"/>
<path d="M48.7668 162.993H15.7611C14.8706 162.993 14.1487 164.209 14.1487 165.709V165.709C14.1487 167.209 14.8706 168.425 15.7611 168.425H48.7668C49.6574 168.425 50.3793 167.209 50.3793 165.709V165.709C50.3793 164.209 49.6574 162.993 48.7668 162.993Z" fill="#292A2E"/>
<path opacity="0.8" d="M48.7668 162.993H15.7611C14.8706 162.993 14.1487 164.209 14.1487 165.709V165.709C14.1487 167.209 14.8706 168.425 15.7611 168.425H48.7668C49.6574 168.425 50.3793 167.209 50.3793 165.709V165.709C50.3793 164.209 49.6574 162.993 48.7668 162.993Z" fill="white"/>
<path d="M48.7669 168.701H15.7612C15.5279 168.701 15.2969 168.624 15.0814 168.473C14.8659 168.323 14.67 168.102 14.5051 167.825C14.3401 167.547 14.2093 167.217 14.12 166.854C14.0307 166.491 13.9848 166.102 13.9848 165.709C13.9848 165.316 14.0307 164.927 14.12 164.564C14.2093 164.201 14.3401 163.871 14.5051 163.593C14.67 163.315 14.8659 163.095 15.0814 162.944C15.2969 162.794 15.5279 162.716 15.7612 162.716H48.7669C49.238 162.716 49.6898 163.032 50.0229 163.593C50.3561 164.154 50.5432 164.915 50.5432 165.709C50.5432 166.502 50.3561 167.263 50.0229 167.825C49.6898 168.386 49.238 168.701 48.7669 168.701ZM15.7612 163.269C15.5709 163.269 15.3826 163.332 15.2069 163.455C15.0311 163.577 14.8714 163.757 14.7369 163.984C14.6024 164.21 14.4957 164.479 14.423 164.775C14.3502 165.071 14.3127 165.389 14.3127 165.709C14.3127 166.029 14.3502 166.347 14.423 166.643C14.4957 166.939 14.6024 167.208 14.7369 167.434C14.8714 167.661 15.0311 167.841 15.2069 167.963C15.3826 168.086 15.5709 168.149 15.7612 168.149H48.7669C49.151 168.149 49.5194 167.892 49.7911 167.434C50.0627 166.977 50.2153 166.356 50.2153 165.709C50.2153 165.062 50.0627 164.441 49.7911 163.984C49.5194 163.526 49.151 163.269 48.7669 163.269H15.7612Z" fill="#292A2E"/>
<path d="M66.8822 162.993H33.8765C32.986 162.993 32.2641 164.209 32.2641 165.709V165.709C32.2641 167.209 32.986 168.425 33.8765 168.425H66.8822C67.7727 168.425 68.4946 167.209 68.4946 165.709V165.709C68.4946 164.209 67.7727 162.993 66.8822 162.993Z" fill="white"/>
<path d="M66.8822 168.701H33.8765C33.6432 168.701 33.4122 168.624 33.1967 168.473C32.9812 168.323 32.7853 168.102 32.6204 167.825C32.4554 167.547 32.3246 167.217 32.2353 166.854C32.1461 166.491 32.1001 166.102 32.1001 165.709C32.1001 165.316 32.1461 164.927 32.2353 164.564C32.3246 164.201 32.4554 163.871 32.6204 163.593C32.7853 163.315 32.9812 163.095 33.1967 162.944C33.4122 162.794 33.6432 162.716 33.8765 162.716H66.8822C67.1154 162.716 67.3464 162.794 67.562 162.944C67.7775 163.095 67.9733 163.315 68.1382 163.593C68.3032 163.871 68.434 164.201 68.5233 164.564C68.6126 164.927 68.6585 165.316 68.6585 165.709C68.6585 166.102 68.6126 166.491 68.5233 166.854C68.434 167.217 68.3032 167.547 68.1382 167.825C67.9733 168.102 67.7775 168.323 67.562 168.473C67.3464 168.624 67.1154 168.701 66.8822 168.701ZM33.8765 163.269C33.6863 163.269 33.4979 163.332 33.3222 163.455C33.1464 163.577 32.9868 163.757 32.8523 163.984C32.7177 164.21 32.6111 164.479 32.5383 164.775C32.4655 165.071 32.428 165.389 32.428 165.709C32.428 166.029 32.4655 166.347 32.5383 166.643C32.6111 166.939 32.7177 167.208 32.8523 167.434C32.9868 167.661 33.1464 167.841 33.3222 167.963C33.4979 168.086 33.6863 168.149 33.8765 168.149H66.8822C67.0724 168.149 67.2607 168.086 67.4365 167.963C67.6122 167.841 67.7719 167.661 67.9064 167.434C68.0409 167.208 68.1476 166.939 68.2204 166.643C68.2932 166.347 68.3306 166.029 68.3306 165.709C68.3306 165.389 68.2932 165.071 68.2204 164.775C68.1476 164.479 68.0409 164.21 67.9064 163.984C67.7719 163.757 67.6122 163.577 67.4365 163.455C67.2607 163.332 67.0724 163.269 66.8822 163.269H33.8765Z" fill="#292A2E"/>
<path d="M44.047 128.619H12.037C11.5136 128.618 11.0081 128.298 10.6149 127.716C10.2217 127.134 9.96753 126.331 9.89993 125.457L7.78256 98.0664C7.74299 97.5544 7.76871 97.0341 7.858 96.5402C7.94729 96.0463 8.0981 95.5901 8.30035 95.2022C8.50261 94.8142 8.75167 94.5035 9.03089 94.2905C9.31012 94.0776 9.6131 93.9675 9.9196 93.9675H41.9297C42.453 93.9675 42.9585 94.2883 43.3517 94.87C43.745 95.4517 43.9991 96.2546 44.0667 97.1288L46.1839 124.519C46.2236 125.031 46.1979 125.551 46.1087 126.045C46.0195 126.539 45.8687 126.996 45.6664 127.384C45.4642 127.772 45.2151 128.082 44.9358 128.295C44.6566 128.508 44.3536 128.619 44.047 128.619Z" fill="#292A2E"/>
<path opacity="0.8" d="M44.047 128.619H12.037C11.5136 128.618 11.0081 128.298 10.6149 127.716C10.2217 127.134 9.96753 126.331 9.89993 125.457L7.78256 98.0664C7.74299 97.5544 7.76871 97.0341 7.858 96.5402C7.94729 96.0463 8.0981 95.5901 8.30035 95.2022C8.50261 94.8142 8.75167 94.5035 9.03089 94.2905C9.31012 94.0776 9.6131 93.9675 9.9196 93.9675H41.9297C42.453 93.9675 42.9585 94.2883 43.3517 94.87C43.745 95.4517 43.9991 96.2546 44.0667 97.1288L46.1839 124.519C46.2236 125.031 46.1979 125.551 46.1087 126.045C46.0195 126.539 45.8687 126.996 45.6664 127.384C45.4642 127.772 45.2151 128.082 44.9358 128.295C44.6566 128.508 44.3536 128.619 44.047 128.619Z" fill="white"/>
<path d="M44.047 128.895H12.037C11.4741 128.893 10.9308 128.547 10.5079 127.921C10.085 127.295 9.81122 126.433 9.73728 125.493L7.62008 98.1028C7.57745 97.5519 7.60509 96.9919 7.70114 96.4604C7.7972 95.9289 7.95946 95.438 8.1771 95.0206C8.39474 94.6031 8.66275 94.2686 8.96324 94.0395C9.26372 93.8104 9.58976 93.6919 9.91959 93.6919H41.9296C42.4925 93.694 43.0357 94.04 43.4586 94.6656C43.8815 95.2913 44.1553 96.1541 44.2292 97.094L46.3465 124.484C46.3891 125.035 46.3615 125.595 46.2654 126.126C46.1693 126.658 46.0071 127.149 45.7894 127.566C45.5718 127.984 45.3038 128.318 45.0033 128.547C44.7029 128.776 44.3768 128.895 44.047 128.895ZM9.91959 94.2442C9.63641 94.2442 9.35649 94.346 9.09851 94.5427C8.84053 94.7394 8.61043 95.0266 8.42356 95.385C8.2367 95.7434 8.09737 96.1649 8.01488 96.6212C7.93238 97.0775 7.90863 97.5583 7.94519 98.0313L10.0626 125.421C10.126 126.228 10.3611 126.969 10.7242 127.506C11.0872 128.044 11.5537 128.341 12.037 128.342H44.047C44.3302 128.342 44.6101 128.241 44.8681 128.044C45.1261 127.847 45.3562 127.56 45.543 127.202C45.7299 126.843 45.8692 126.422 45.9517 125.965C46.0342 125.509 46.058 125.028 46.0214 124.555L43.9049 97.1652C43.8414 96.3583 43.6063 95.6175 43.2432 95.0803C42.8801 94.5431 42.4137 94.2461 41.9305 94.2442H9.91959Z" fill="#292A2E"/>
<path d="M45.857 128.619H13.847C13.3236 128.618 12.8182 128.298 12.425 127.716C12.0318 127.134 11.7777 126.331 11.7101 125.457L9.59274 98.0663C9.55317 97.5544 9.57889 97.0341 9.66818 96.5401C9.75747 96.0462 9.90828 95.5901 10.1105 95.2022C10.3128 94.8142 10.5618 94.5034 10.8411 94.2905C11.1203 94.0776 11.4233 93.9675 11.7298 93.9675H43.7398C44.2632 93.9675 44.7686 94.2883 45.1618 94.87C45.555 95.4517 45.8092 96.2546 45.8767 97.1287L47.9941 124.519C48.0337 125.031 48.0081 125.551 47.9188 126.045C47.8296 126.539 47.6788 126.996 47.4765 127.384C47.2742 127.772 47.0252 128.082 46.7459 128.295C46.4666 128.508 46.1636 128.619 45.857 128.619Z" fill="white"/>
<path d="M45.857 128.895H13.8469C13.2841 128.893 12.7409 128.547 12.318 127.921C11.8951 127.295 11.6213 126.433 11.5474 125.493L9.43006 98.1028C9.38749 97.5519 9.41517 96.992 9.51125 96.4605C9.60734 95.929 9.76962 95.4381 9.98727 95.0206C10.2049 94.6032 10.4729 94.2687 10.7734 94.0396C11.0739 93.8105 11.3999 93.6919 11.7297 93.6919H43.7396C44.3025 93.694 44.8457 94.04 45.2686 94.6657C45.6915 95.2913 45.9654 96.1541 46.0393 97.094L48.1567 124.484C48.1992 125.035 48.1715 125.595 48.0754 126.126C47.9793 126.658 47.817 127.149 47.5994 127.566C47.3817 127.984 47.1138 128.318 46.8133 128.547C46.5128 128.776 46.1868 128.895 45.857 128.895ZM11.7297 94.2442C11.4465 94.2442 11.1665 94.3459 10.9085 94.5426C10.6504 94.7393 10.4203 95.0264 10.2334 95.3849C10.0465 95.7433 9.90709 96.1648 9.82457 96.6212C9.74205 97.0777 9.71828 97.5585 9.75484 98.0316L11.872 125.421C11.9355 126.228 12.1707 126.969 12.5339 127.507C12.8971 128.044 13.3636 128.341 13.8469 128.342H45.857C46.1402 128.342 46.4201 128.241 46.6781 128.044C46.9361 127.847 47.1662 127.56 47.353 127.202C47.5399 126.843 47.6792 126.422 47.7617 125.965C47.8442 125.509 47.868 125.028 47.8314 124.555L45.714 97.1652C45.6506 96.3582 45.4155 95.6174 45.0524 95.0802C44.6893 94.5431 44.2229 94.246 43.7396 94.2442H11.7297Z" fill="#292A2E"/>
<path d="M42.3287 51.7092C42.3287 51.7092 44.4559 49.0047 44.983 42.7794C45.3911 37.9592 42.7516 41.0821 42.7516 41.0821C42.7516 41.0821 43.0253 37.6065 41.522 37.9515C40.0186 38.2964 39.1775 41.9473 39.1775 41.9473" fill="#0C0C0C"/>
<path d="M33.7525 38.3594C33.7525 38.3594 26.2939 39.7065 28.9902 56.7316L29.6501 56.8059L30.9899 56.9572" fill="#0C0C0C"/>
<path d="M41.0795 74.5094C41.0467 74.5023 40.6829 84.6723 33.6683 83.7867C28.8122 83.1739 27.0806 74.4951 26.9694 74.4951C27.4929 74.3076 28.14 74.0231 28.3971 73.9253C28.9575 73.7063 29.4651 73.2049 29.8522 72.488C30.2394 71.7711 30.4878 70.8726 30.5644 69.9121C30.7064 68.4705 30.4661 61.0947 30.5397 59.6363L37.9938 62.441C37.8895 65.5216 37.1606 72.6635 39.7153 73.9276C40.1409 74.1352 40.5988 74.3277 41.0795 74.5094Z" fill="#E98862"/>
<path opacity="0.52" d="M38.0983 71.0074C37.9815 70.3736 37.9063 69.7202 37.8741 69.0588C37.7923 67.5494 37.8088 66.0294 37.9233 64.5261C36.4083 64.1816 34.981 63.1283 33.8035 61.4858C33.665 62.3468 32.9038 66.109 33.1149 66.9276C33.5125 68.4744 35.3846 71.0074 38.0983 71.0074Z" fill="#0C0C0C"/>
<path d="M36.5601 68.9944C33.6194 68.5504 30.0996 65.4203 30.0488 58.6962L30.0022 52.6289C29.9514 45.9045 32.007 40.4085 35.7655 40.3282C39.5239 40.2475 42.3745 45.6386 42.4253 52.3626L42.4455 55.0489C42.4429 55.9713 42.403 56.8923 42.3261 57.8056C42.1333 60.222 41.8343 63.8959 40.8607 66.3813C39.942 68.7277 38.4386 69.2783 36.5601 68.9944Z" fill="#E98862"/>
<path d="M37.9241 62.8481C38.5311 62.8944 39.1359 62.6998 39.69 62.28C39.7015 62.2718 39.7118 62.2598 39.7206 62.2448C39.7293 62.2298 39.7361 62.2121 39.7408 62.1926C39.7454 62.1732 39.7478 62.1524 39.7476 62.1314C39.7475 62.1104 39.7449 62.0897 39.74 62.0704C39.7351 62.0511 39.728 62.0336 39.7191 62.0189C39.7102 62.0043 39.6997 61.9927 39.6882 61.9849C39.6766 61.977 39.6642 61.9731 39.6518 61.9734C39.6393 61.9736 39.627 61.9779 39.6156 61.9862C38.4219 62.8423 37.338 62.718 36.4813 61.6233C36.464 61.6002 36.446 61.5786 36.4275 61.5587C36.4059 61.5416 36.3814 61.5388 36.3586 61.5508C36.3359 61.5628 36.3167 61.5888 36.3048 61.6235C36.2929 61.6583 36.2892 61.6993 36.2945 61.7385C36.2997 61.7776 36.3135 61.812 36.333 61.8348C36.3399 61.8423 36.3511 61.8569 36.3658 61.8768C36.8162 62.4548 37.3589 62.793 37.9241 62.8481Z" fill="#0C0C0C"/>
<path d="M37.8959 64.3631C38.0055 64.3744 38.1156 64.3699 38.2248 64.3499C38.2493 64.3443 38.2715 64.3229 38.2868 64.2901C38.302 64.2573 38.3091 64.2158 38.3065 64.1744C38.3038 64.133 38.2917 64.095 38.2727 64.0684C38.2537 64.0418 38.2293 64.0287 38.2046 64.032C37.5478 64.1497 37.2342 63.6426 37.2209 63.6211C37.203 63.5924 37.1791 63.5767 37.1544 63.5772C37.1297 63.5777 37.1061 63.5944 37.0886 63.6238C37.0711 63.6532 37.0611 63.6929 37.0607 63.7345C37.0603 63.7762 37.0696 63.8164 37.0865 63.8467C37.3128 64.1711 37.5988 64.3536 37.8959 64.3631Z" fill="#0C0C0C"/>
<path d="M41.1846 56.3419C41.4403 56.3419 41.6476 55.9927 41.6476 55.562C41.6476 55.1313 41.4403 54.7821 41.1846 54.7821C40.9289 54.7821 40.7216 55.1313 40.7216 55.562C40.7216 55.9927 40.9289 56.3419 41.1846 56.3419Z" fill="#0C0C0C"/>
<path d="M36.6614 55.8636C36.9171 55.8636 37.1244 55.5144 37.1244 55.0837C37.1244 54.653 36.9171 54.3038 36.6614 54.3038C36.4057 54.3038 36.1985 54.653 36.1985 55.0837C36.1985 55.5144 36.4057 55.8636 36.6614 55.8636Z" fill="#0C0C0C"/>
<path d="M30.2973 60.7395C29.1553 60.7641 28.2138 58.7255 28.1988 56.8017C28.1839 54.8779 29.1023 53.7967 30.2446 53.7722L30.8428 55.0489L31.2791 60.7185L30.2973 60.7395Z" fill="#E98862"/>
<path d="M31.4338 57.6479C31.4338 57.6479 31.8194 48.1331 33.5323 47.5457C34.673 47.1544 37.4393 49.8799 40.0016 49.0569C41.1225 48.6979 42.1867 49.1641 42.2949 50.0561C42.3379 50.4093 43.0361 45.3337 41.2807 41.4825C39.8831 38.4171 35.3095 37.5499 33.2287 38.5552C27.4669 41.3392 30.0094 54.1908 30.0094 54.1908L30.2663 57.4711L31.4338 57.6479Z" fill="#0C0C0C"/>
<path d="M38.6147 60.6028H38.6219C38.99 60.5965 39.6071 60.5169 39.6046 60.053C39.6021 59.6688 38.9528 55.5308 38.8786 55.0602C38.8723 55.0197 38.8566 54.9851 38.8351 54.964C38.8136 54.943 38.788 54.9372 38.764 54.9479C38.7399 54.9587 38.7194 54.985 38.7069 55.0213C38.6944 55.0575 38.691 55.1006 38.6973 55.1411C38.9859 56.9737 39.4154 59.795 39.417 60.0569C39.3815 60.1673 39.0013 60.2808 38.6203 60.2875C38.5959 60.2874 38.5724 60.3034 38.5549 60.3321C38.5374 60.3607 38.5272 60.3996 38.5265 60.4407C38.5258 60.4818 38.5346 60.5217 38.551 60.552C38.5675 60.5824 38.5903 60.6007 38.6147 60.6031V60.6028Z" fill="#0C0C0C"/>
<path d="M39.8705 51.3334C40.2573 51.1542 40.6657 51.1542 41.0525 51.3334C41.2425 51.4196 41.4238 51.5533 41.5903 51.7299C41.7548 51.9031 41.9057 52.1106 42.0393 52.3474C42.064 52.3896 42.078 52.4462 42.0786 52.5054C42.0791 52.5646 42.066 52.6219 42.0421 52.6653C42.0182 52.7087 41.9853 52.7349 41.9502 52.7384C41.9151 52.742 41.8806 52.7226 41.8538 52.6844L41.8456 52.6722C41.7218 52.4793 41.5841 52.3133 41.4357 52.1782C41.2901 52.0439 41.1333 51.9475 40.9706 51.8923C40.6503 51.7793 40.3179 51.8105 40.0071 51.9829L39.9941 51.9906C39.9687 52.0058 39.9418 52.0123 39.9149 52.0099C39.888 52.0075 39.8617 51.9962 39.8374 51.9767C39.813 51.9571 39.7913 51.9297 39.7733 51.8959C39.7552 51.8622 39.7413 51.8228 39.7324 51.7801C39.7234 51.7373 39.7195 51.6919 39.7209 51.6466C39.7224 51.6013 39.7291 51.5569 39.7407 51.516C39.7523 51.4751 39.7686 51.4384 39.7886 51.408C39.8086 51.3777 39.832 51.3543 39.8574 51.3392C39.8618 51.3375 39.8664 51.3353 39.8705 51.3334Z" fill="#0C0C0C"/>
<path d="M37.1313 51.7257C36.8369 51.4848 36.51 51.3792 36.1835 51.4195C36.0179 51.4376 35.8549 51.498 35.7001 51.5984C35.5425 51.6992 35.3931 51.8329 35.2553 51.9964L35.2464 52.0061C35.2169 52.0397 35.1807 52.0526 35.1456 52.0418C35.1104 52.0311 35.0792 51.9975 35.0586 51.9485C35.038 51.8994 35.0296 51.8387 35.0353 51.7794C35.0409 51.72 35.0602 51.6668 35.0889 51.631C35.2401 51.4262 35.4061 51.2543 35.5828 51.1196C35.7618 50.9818 35.952 50.8901 36.1471 50.8473C36.5447 50.7563 36.9494 50.8477 37.3187 51.1118C37.3687 51.1484 37.408 51.217 37.428 51.3025C37.448 51.3879 37.447 51.4833 37.4253 51.5675C37.4035 51.6517 37.3628 51.718 37.3121 51.7516C37.2614 51.7853 37.2048 51.7836 37.1548 51.747C37.1508 51.7442 37.1471 51.7412 37.1433 51.7379L37.1313 51.7257Z" fill="#0C0C0C"/>
<path d="M39.3199 44.7831C40.1654 44.4855 40.64 42.545 40.38 40.4489C40.12 38.3527 39.2239 36.8947 38.3784 37.1922C37.533 37.4898 37.0584 39.4302 37.3184 41.5264C37.5783 43.6225 38.4745 45.0806 39.3199 44.7831Z" fill="#0C0C0C"/>
<path d="M86.4732 235.408C86.4732 235.408 87.3523 243.083 91.6187 243.511C95.8851 243.939 94.9599 249.664 94.9599 249.664H78.6563V235.943L86.4732 235.408Z" fill="#367CFF"/>
<path d="M55.4567 230.562C55.4567 230.562 54.2335 238.103 57.9502 241.659C61.6669 245.215 59.336 249.664 59.336 249.664L44.7068 237.54L48.3023 225.229L55.4567 230.562Z" fill="#367CFF"/>
<path d="M46.3957 228.431L58.7326 162.872H36.3703C31.8781 162.872 30.0057 156.456 30.0057 148.889C30.0057 141.323 34.4216 134.69 38.9134 134.69H69.0943C71.834 134.69 74.906 137.512 76.4098 141.371C77.9135 145.229 77.507 151.207 76.4176 155.441L56.6621 236.266" fill="#262626"/>
<path opacity="0.8" d="M46.3957 228.431L58.7326 162.872H36.3703C31.8781 162.872 30.0057 156.456 30.0057 148.889C30.0057 141.323 34.4216 134.69 38.9134 134.69H69.0943C71.834 134.69 74.906 137.512 76.4098 141.371C77.9135 145.229 77.507 151.207 76.4176 155.441L56.6621 236.266" fill="#0A0A0A"/>
<path d="M77.7189 242.536L57.0913 162.872L30.0059 162.869C23.6592 162.032 20.7527 156.172 20.845 148.608C20.9362 141.139 23.1813 133.762 27.5954 133.762H64.101C67.3668 133.875 69.9362 139.954 71.1477 145.064L88.2965 237.659" fill="#262626"/>
<path d="M18.9973 133.853C18.9973 133.853 17.7944 147.067 19.7011 154.413C22.0815 163.584 31.0048 162.87 31.0048 162.87L30.5019 133.762L18.9973 133.853Z" fill="#262626"/>
<path d="M71.9234 133.593L52.7908 126.915C51.9936 126.637 51.2508 126.024 50.6314 125.134C50.0119 124.244 49.5357 123.105 49.2468 121.823L41.7216 88.4199C41.4961 87.4186 41.3898 86.3523 41.4089 85.2819C41.4279 84.2114 41.572 83.1578 41.8328 82.1811C42.0936 81.2044 42.4661 80.3238 42.9289 79.5896C43.3917 78.8554 43.9359 78.282 44.5303 77.902C45.1247 77.522 45.7577 77.343 46.3932 77.3751C47.0287 77.4073 47.6542 77.6499 48.234 78.0892C48.8138 78.5286 49.3365 79.156 49.7724 79.9356C50.2083 80.7152 50.5487 81.6319 50.7743 82.6331L57.357 111.851L73.8884 117.622C73.8884 117.622 72.2554 133.709 71.9234 133.593Z" fill="#367CFF"/>
<path d="M49.7947 96.9026C49.5737 101.275 48.0077 128.554 47.7945 133.939H19.0098C18.8444 129.082 18.3075 108.459 17.6804 98.96C17.0816 89.896 16.8646 84.7234 17.5541 81.9065C18.7703 76.9386 21.8136 75.1509 24.435 74.553C26.0357 74.188 28.4433 73.9261 28.4433 73.9261C28.4433 73.9261 28.6471 80.8725 33.5077 81.2592C40.1246 81.7839 39.6828 73.9261 39.7154 73.9261C40.7875 73.9261 46.6223 75.2393 48.0813 76.8414C50.1419 79.1037 50.751 82.1871 50.7751 85.0197C50.8028 88.2812 50.0457 91.9435 49.7947 96.9026Z" fill="#367CFF"/>
<path d="M48.663 119.193C48.6607 119.193 48.6584 119.193 48.6561 119.193C48.6344 119.19 48.6144 119.173 48.6003 119.145C48.5863 119.117 48.5794 119.081 48.5812 119.044L49.3284 103.923C49.3291 103.905 49.3319 103.887 49.3367 103.87C49.3416 103.854 49.3483 103.84 49.3566 103.828C49.3649 103.816 49.3745 103.807 49.3849 103.802C49.3953 103.796 49.4062 103.795 49.417 103.797C49.4386 103.8 49.4586 103.817 49.4726 103.845C49.4866 103.873 49.4935 103.909 49.4917 103.946L48.7446 119.067C48.7428 119.101 48.7334 119.133 48.7183 119.157C48.7032 119.18 48.6835 119.193 48.663 119.193Z" fill="#0C0C0C"/>
<path d="M62.3728 128.268L68.6889 95.5632C68.7999 94.9885 69.016 94.4877 69.3063 94.1325C69.5966 93.7774 69.9461 93.5861 70.3049 93.5861H96.0366C96.3048 93.5861 96.5692 93.6931 96.8082 93.8983C97.0472 94.1034 97.2539 94.401 97.4116 94.7666C97.5692 95.1321 97.6732 95.5554 97.7151 96.0016C97.757 96.4479 97.7356 96.9045 97.6526 97.3342L91.3366 130.039C91.2256 130.613 91.0095 131.114 90.7192 131.469C90.4289 131.824 90.0793 132.016 89.7206 132.016H63.9884C63.7202 132.015 63.4558 131.908 63.2169 131.703C62.978 131.498 62.7713 131.2 62.6138 130.835C62.4562 130.469 62.3522 130.046 62.3103 129.6C62.2685 129.154 62.2899 128.697 62.3728 128.268Z" fill="#292A2E"/>
<path d="M62.3728 128.268L68.6889 95.5632C68.7999 94.9885 69.016 94.4877 69.3063 94.1325C69.5966 93.7774 69.9461 93.5861 70.3049 93.5861H96.0366C96.3048 93.5861 96.5692 93.6931 96.8082 93.8983C97.0472 94.1034 97.2539 94.401 97.4116 94.7666C97.5692 95.1321 97.6732 95.5554 97.7151 96.0016C97.757 96.4479 97.7356 96.9045 97.6526 97.3342L91.3366 130.039C91.2256 130.613 91.0095 131.114 90.7192 131.469C90.4289 131.824 90.0793 132.016 89.7206 132.016H63.9884C63.7202 132.015 63.4558 131.908 63.2169 131.703C62.978 131.498 62.7713 131.2 62.6138 130.835C62.4562 130.469 62.3522 130.046 62.3103 129.6C62.2685 129.154 62.2899 128.697 62.3728 128.268Z" fill="#292A2E"/>
<path d="M67.5252 129.364H50.3003C49.8712 129.364 49.5232 129.95 49.5232 130.673V130.707C49.5232 131.43 49.8712 132.016 50.3003 132.016H67.5252C67.9544 132.016 68.3023 131.43 68.3023 130.707V130.673C68.3023 129.95 67.9544 129.364 67.5252 129.364Z" fill="#292A2E"/>
<path d="M67.5252 129.364H50.3003C49.8712 129.364 49.5232 129.95 49.5232 130.673V130.707C49.5232 131.43 49.8712 132.016 50.3003 132.016H67.5252C67.9544 132.016 68.3023 131.43 68.3023 130.707V130.673C68.3023 129.95 67.9544 129.364 67.5252 129.364Z" fill="#292A2E"/>
<path d="M80.0126 118.942C81.5031 118.942 82.7114 116.907 82.7114 114.396C82.7114 111.886 81.5031 109.85 80.0126 109.85C78.5222 109.85 77.3139 111.886 77.3139 114.396C77.3139 116.907 78.5222 118.942 80.0126 118.942Z" fill="white"/>
<path d="M60.9332 120.606L56.6342 118.068L57.2515 117.996C57.4504 117.967 57.6352 117.811 57.7684 117.56C57.9017 117.31 57.9735 116.983 57.9694 116.647C57.9637 116.473 57.937 116.304 57.8911 116.148C57.8452 115.993 57.7809 115.854 57.7023 115.742C57.6236 115.63 57.5322 115.546 57.4335 115.495C57.3349 115.444 57.2312 115.427 57.1287 115.446L49.5232 116.807L49.7199 120.925C49.7813 122.203 50.068 123.422 50.5432 124.425C51.0185 125.427 51.6606 126.168 52.3873 126.551L55.6809 128.28C55.851 128.375 56.0354 128.368 56.203 128.261C56.3705 128.154 56.5109 127.952 56.6004 127.69C56.6783 127.451 56.7087 127.176 56.6872 126.906C56.6658 126.636 56.5936 126.384 56.4812 126.188C56.4885 126.179 56.4947 126.168 56.4993 126.155C56.5039 126.142 56.5069 126.128 56.5081 126.113C56.5094 126.098 56.5088 126.083 56.5064 126.069C56.504 126.054 56.4999 126.041 56.4944 126.029L57.101 126.35C57.2903 126.457 57.4967 126.439 57.6785 126.299C57.8603 126.16 58.0039 125.909 58.0802 125.598C58.1426 125.316 58.1439 125.006 58.0839 124.723C58.0239 124.439 57.9065 124.201 57.7523 124.049C57.7594 124.042 57.7658 124.033 57.771 124.023L58.0205 124.155C58.1907 124.25 58.3751 124.244 58.5427 124.136C58.7102 124.029 58.8506 123.827 58.9401 123.566C59.0345 123.276 59.0586 122.935 59.0072 122.615C58.9558 122.296 58.833 122.022 58.6645 121.852C58.6659 121.844 58.6667 121.835 58.667 121.826L60.4571 122.883C60.6364 122.989 60.8332 122.971 61.0044 122.832C61.1756 122.693 61.307 122.446 61.3699 122.144C61.4327 121.842 61.4218 121.51 61.3394 121.222C61.2571 120.934 61.1102 120.712 60.9309 120.606H60.9332Z" fill="#E98862"/>
<path opacity="0.2" d="M58.5988 121.944C58.5905 121.944 58.5822 121.942 58.5744 121.937L56.8426 120.878C56.8249 120.867 56.8104 120.844 56.8025 120.815C56.7945 120.786 56.7937 120.753 56.8002 120.723C56.8068 120.693 56.8201 120.669 56.8372 120.656C56.8544 120.642 56.874 120.641 56.8918 120.652L58.6234 121.712C58.6392 121.722 58.6524 121.741 58.6608 121.765C58.6692 121.79 58.6723 121.818 58.6694 121.846C58.6665 121.874 58.6578 121.899 58.645 121.917C58.6321 121.936 58.6159 121.946 58.5991 121.946L58.5988 121.944Z" fill="#0A0A0A"/>
<path opacity="0.2" d="M57.7233 124.065C57.7152 124.065 57.7071 124.063 57.6995 124.058L56.3345 123.242C56.3257 123.237 56.3175 123.229 56.3106 123.218C56.3036 123.208 56.298 123.195 56.2939 123.181C56.2899 123.167 56.2876 123.151 56.2871 123.135C56.2866 123.12 56.288 123.104 56.2911 123.089C56.2943 123.074 56.2991 123.06 56.3054 123.049C56.3116 123.037 56.3192 123.028 56.3277 123.021C56.3361 123.014 56.3453 123.01 56.3547 123.009C56.364 123.008 56.3734 123.011 56.3822 123.016L57.7472 123.832C57.7631 123.841 57.7764 123.86 57.7849 123.884C57.7934 123.909 57.7965 123.938 57.7937 123.965C57.7908 123.993 57.7822 124.019 57.7693 124.037C57.7564 124.055 57.7401 124.065 57.7233 124.065Z" fill="#0A0A0A"/>
<path opacity="0.2" d="M56.4381 126.217C56.4294 126.217 56.4207 126.214 56.4125 126.209L55.7731 125.798C55.764 125.793 55.7556 125.785 55.7484 125.774C55.7411 125.764 55.7353 125.75 55.7312 125.736C55.7271 125.721 55.7247 125.705 55.7244 125.689C55.724 125.673 55.7256 125.657 55.729 125.642C55.7324 125.626 55.7376 125.613 55.7443 125.601C55.751 125.589 55.7591 125.58 55.7679 125.574C55.7768 125.567 55.7863 125.564 55.796 125.564C55.8056 125.564 55.8151 125.568 55.824 125.574L56.4633 125.985C56.4789 125.995 56.4918 126.014 56.5 126.038C56.5081 126.063 56.5109 126.091 56.5079 126.119C56.5049 126.146 56.4962 126.171 56.4834 126.189C56.4707 126.207 56.4546 126.217 56.4379 126.217H56.4381Z" fill="#0A0A0A"/>
<path d="M52.8892 114.371L34.8551 114.351L28.0328 86.3163L17.8553 93.5243L26.3676 126.796L26.4509 127.128C26.8673 128.745 27.5688 130.108 28.4602 131.031C29.3517 131.954 30.3901 132.394 31.4348 132.29L53.1623 130.128L52.8892 114.371Z" fill="#367CFF"/>
<path d="M31.1358 132.442C30.1248 132.439 29.1362 131.94 28.2908 131.006C27.4454 130.072 26.7799 128.743 26.3756 127.182L26.2921 126.851L19.0392 98.5002L19.1897 98.3911L26.5263 127.074C26.938 128.662 27.6286 130.001 28.5053 130.908C29.382 131.816 30.4026 132.25 31.4301 132.152L53.078 129.998L52.8098 114.51L34.8005 114.489L29.5542 92.9338L29.7058 92.8291L34.9102 114.213L52.9687 114.234L53.2463 130.258L53.1667 130.266L31.4394 132.428C31.338 132.438 31.2368 132.442 31.1358 132.442Z" fill="#0C0C0C"/>
<path d="M139.518 134.662L139.192 134.718L146.103 249.975L146.43 249.92L139.518 134.662Z" fill="#494949"/>
<path d="M11.0765 134.663L4.16023 249.92L4.48646 249.976L11.4028 134.719L11.0765 134.663Z" fill="#494949"/>
<path d="M39.6521 134.663L32.7358 249.92L33.062 249.976L39.9784 134.719L39.6521 134.663Z" fill="#494949"/>
<path d="M168.094 134.662L167.767 134.717L174.679 249.975L175.005 249.919L168.094 134.662Z" fill="#494949"/>
<path d="M174.326 132.427H5.29696C4.55503 132.427 3.95358 133.44 3.95358 134.69C3.95358 135.94 4.55503 136.953 5.29696 136.953H174.326C175.068 136.953 175.67 135.94 175.67 134.69C175.67 133.44 175.068 132.427 174.326 132.427Z" fill="#292A2E"/>
<path opacity="0.8" d="M174.326 132.427H5.29696C4.55503 132.427 3.95358 133.44 3.95358 134.69C3.95358 135.94 4.55503 136.953 5.29696 136.953H174.326C175.068 136.953 175.67 135.94 175.67 134.69C175.67 133.44 175.068 132.427 174.326 132.427Z" fill="white"/>
<path d="M174.326 137.229H5.29764C5.09838 137.233 4.90069 137.17 4.716 137.044C4.53131 136.917 4.36329 136.731 4.22165 136.495C4.08002 136.259 3.96758 135.978 3.89084 135.668C3.81411 135.358 3.7746 135.026 3.7746 134.69C3.7746 134.355 3.81411 134.022 3.89084 133.712C3.96758 133.403 4.08002 133.122 4.22165 132.885C4.36329 132.649 4.53131 132.463 4.716 132.337C4.90069 132.211 5.09838 132.148 5.29764 132.151H174.326C174.723 132.158 175.103 132.429 175.382 132.904C175.661 133.38 175.818 134.021 175.818 134.69C175.818 135.359 175.661 136.001 175.382 136.476C175.103 136.952 174.723 137.222 174.326 137.229ZM5.29764 132.704C5.1416 132.7 4.98674 132.75 4.84204 132.848C4.69734 132.946 4.56568 133.092 4.45468 133.277C4.34369 133.462 4.25556 133.682 4.19542 133.924C4.13527 134.167 4.1043 134.427 4.1043 134.69C4.1043 134.953 4.13527 135.213 4.19542 135.456C4.25556 135.698 4.34369 135.919 4.45468 136.103C4.56568 136.288 4.69734 136.434 4.84204 136.532C4.98674 136.631 5.1416 136.68 5.29764 136.677H174.326C174.637 136.671 174.933 136.459 175.151 136.087C175.37 135.715 175.492 135.213 175.492 134.69C175.492 134.167 175.37 133.666 175.151 133.294C174.933 132.922 174.637 132.71 174.326 132.704H5.29764Z" fill="#292A2E"/>
<path d="M174.326 132.428H34.9649C34.223 132.428 33.6215 133.441 33.6215 134.69C33.6215 135.94 34.223 136.953 34.9649 136.953H174.326C175.068 136.953 175.67 135.94 175.67 134.69C175.67 133.441 175.068 132.428 174.326 132.428Z" fill="white"/>
<path d="M174.326 137.229H34.9647C34.5677 137.222 34.1884 136.952 33.9091 136.476C33.6298 136.001 33.4731 135.359 33.4731 134.69C33.4731 134.021 33.6298 133.38 33.9091 132.904C34.1884 132.429 34.5677 132.158 34.9647 132.151H174.326C174.723 132.158 175.103 132.429 175.382 132.904C175.661 133.38 175.818 134.021 175.818 134.69C175.818 135.359 175.661 136.001 175.382 136.476C175.103 136.952 174.723 137.222 174.326 137.229ZM34.9647 132.704C34.6544 132.71 34.3579 132.922 34.1398 133.294C33.9216 133.666 33.7992 134.167 33.7992 134.69C33.7992 135.213 33.9216 135.715 34.1398 136.087C34.3579 136.459 34.6544 136.671 34.9647 136.677H174.326C174.637 136.671 174.933 136.459 175.151 136.087C175.37 135.715 175.492 135.213 175.492 134.69C175.492 134.167 175.37 133.666 175.151 133.294C174.933 132.922 174.637 132.71 174.326 132.704H34.9647Z" fill="#292A2E"/>
</svg>
