<svg width="8" height="223" viewBox="0 0 8 223" fill="none" xmlns="http://www.w3.org/2000/svg">
<path d="M2.50011 220.022C2.51251 221.403 3.6418 222.512 5.02246 222.5C6.40312 222.487 7.51231 221.358 7.4999 219.978L2.50011 220.022ZM4.03056 112.07L1.53066 112.093L1.53066 112.093L4.03056 112.07ZM0.533187 1.00149L0.574748 5.63029L5.57455 5.5854L5.53299 0.956594L0.533187 1.00149ZM0.657871 14.8879L0.740993 24.1455L5.74079 24.1006L5.65767 14.843L0.657871 14.8879ZM0.824116 33.4031L0.907239 42.6607L5.90704 42.6158L5.82391 33.3582L0.824116 33.4031ZM0.990361 51.9183L1.07348 61.176L6.07328 61.1311L5.99016 51.8735L0.990361 51.9183ZM1.15661 70.4336L1.23973 79.6912L6.23953 79.6463L6.1564 70.3887L1.15661 70.4336ZM1.32285 88.9488L1.40597 98.2064L6.40577 98.1615L6.32265 88.9039L1.32285 88.9488ZM1.4891 107.464L1.53066 112.093L6.53046 112.048L6.4889 107.419L1.4891 107.464ZM1.53066 112.093L1.57913 117.489L6.57893 117.444L6.53046 112.048L1.53066 112.093ZM1.67608 128.282L1.77302 139.075L6.77282 139.03L6.67587 128.237L1.67608 128.282ZM1.86996 149.868L1.96691 160.661L6.96671 160.616L6.86976 149.823L1.86996 149.868ZM2.06385 171.454L2.1608 182.247L7.1606 182.202L7.06365 171.409L2.06385 171.454ZM2.25774 193.04L2.35469 203.833L7.35449 203.788L7.25754 192.995L2.25774 193.04ZM2.45163 214.626L2.50011 220.022L7.4999 219.978L7.45143 214.581L2.45163 214.626Z" fill="black"/>
</svg>
