<svg width="8" height="207" viewBox="0 0 8 207" fill="none" xmlns="http://www.w3.org/2000/svg">
<path d="M5.58114 203.931C5.56628 205.311 4.435 206.418 3.05437 206.404C1.67374 206.389 0.566565 205.257 0.581433 203.877L5.58114 203.931ZM4.15842 103.881L6.65827 103.908L4.15842 103.881ZM7.76696 0.95517L7.71152 6.10281L2.71181 6.04897L2.76725 0.901329L7.76696 0.95517ZM7.60065 16.3981L7.48979 26.6934L2.49007 26.6395L2.60094 16.3442L7.60065 16.3981ZM7.37892 36.9886L7.26805 47.2839L2.26834 47.2301L2.37921 36.9348L7.37892 36.9886ZM7.15718 57.5792L7.04631 67.8745L2.0466 67.8206L2.15747 57.5253L7.15718 57.5792ZM6.93544 78.1697L6.82458 88.465L1.82487 88.4112L1.93573 78.1159L6.93544 78.1697ZM6.71371 98.7603L6.65827 103.908L1.65856 103.854L1.714 98.7064L6.71371 98.7603ZM6.65827 103.908L6.60442 108.909L1.60471 108.855L1.65856 103.854L6.65827 103.908ZM6.4967 118.911L6.38899 128.914L1.38928 128.86L1.49699 118.857L6.4967 118.911ZM6.28128 138.916L6.17357 148.918L1.17385 148.864L1.28157 138.862L6.28128 138.916ZM6.06585 158.92L5.95814 168.923L0.958429 168.869L1.06614 158.867L6.06585 158.92ZM5.85043 178.925L5.74271 188.927L0.743003 188.873L0.850716 178.871L5.85043 178.925ZM5.635 198.929L5.58114 203.931L0.581433 203.877L0.63529 198.876L5.635 198.929Z" fill="black"/>
</svg>
