<svg width="7" height="102" viewBox="0 0 7 102" fill="none" xmlns="http://www.w3.org/2000/svg">
<path d="M6.43586 98.9455C6.44905 100.326 5.34051 101.456 3.95986 101.469C2.57921 101.482 1.44928 100.374 1.43609 98.9932L6.43586 98.9455ZM5.49989 0.976117L5.54669 5.87458L0.546913 5.92235L0.500114 1.02388L5.49989 0.976117ZM5.64028 15.6715L5.73388 25.4685L0.734108 25.5162L0.640511 15.7193L5.64028 15.6715ZM5.82748 35.2654L5.92108 45.0623L0.921304 45.1101L0.827706 35.3132L5.82748 35.2654ZM6.01467 54.8593L6.10827 64.6562L1.1085 64.704L1.0149 54.907L6.01467 54.8593ZM6.20187 74.4531L6.29547 84.2501L1.2957 84.2978L1.2021 74.5009L6.20187 74.4531ZM6.38907 94.047L6.43586 98.9455L1.43609 98.9932L1.38929 94.0947L6.38907 94.047Z" fill="black"/>
</svg>
