<svg width="534" height="6" viewBox="0 0 534 6" fill="none" xmlns="http://www.w3.org/2000/svg">
<path d="M530.661 5.12633C532.041 5.12633 533.161 4.00704 533.161 2.62633C533.161 1.24562 532.041 0.126329 530.661 0.126329L530.661 5.12633ZM269.161 2.6264L269.161 5.1264L269.161 2.6264ZM-1.05968e-05 5.12632L5.17615 5.12632L5.17616 0.126323L-9.22506e-06 0.126322L-1.05968e-05 5.12632ZM15.5285 5.12633L25.8808 5.12633L25.8808 0.126329L15.5285 0.126326L15.5285 5.12633ZM36.2331 5.12633L46.5855 5.12633L46.5855 0.126334L36.2331 0.126332L36.2331 5.12633ZM56.9378 5.12634L67.2901 5.12634L67.2901 0.12634L56.9378 0.126337L56.9378 5.12634ZM77.6425 5.12634L87.9948 5.12635L87.9948 0.126346L77.6425 0.126343L77.6425 5.12634ZM98.3471 5.12635L108.699 5.12635L108.699 0.126352L98.3471 0.126349L98.3471 5.12635ZM119.052 5.12635L129.404 5.12636L129.404 0.126357L119.052 0.126354L119.052 5.12635ZM139.756 5.12636L150.109 5.12636L150.109 0.126363L139.756 0.12636L139.756 5.12636ZM160.461 5.12637L170.813 5.12637L170.813 0.126369L160.461 0.126366L160.461 5.12637ZM181.166 5.12637L191.518 5.12637L191.518 0.126374L181.166 0.126371L181.166 5.12637ZM201.87 5.12638L212.223 5.12638L212.223 0.12638L201.87 0.126377L201.87 5.12638ZM222.575 5.12638L232.927 5.12639L232.927 0.126386L222.575 0.126383L222.575 5.12638ZM243.28 5.12639L253.632 5.12639L253.632 0.126391L243.28 0.126389L243.28 5.12639ZM263.984 5.12639L269.161 5.1264L269.161 0.126396L263.984 0.126394L263.984 5.12639ZM269.161 5.1264L274.189 5.12639L274.189 0.126394L269.161 0.126396L269.161 5.1264ZM284.247 5.12639L294.305 5.12639L294.305 0.126389L284.247 0.126392L284.247 5.12639ZM304.363 5.12639L314.42 5.12638L314.42 0.126384L304.362 0.126387L304.363 5.12639ZM324.478 5.12638L334.536 5.12638L334.536 0.126379L324.478 0.126382L324.478 5.12638ZM344.593 5.12638L354.651 5.12637L354.651 0.126374L344.593 0.126376L344.593 5.12638ZM364.709 5.12637L374.766 5.12637L374.766 0.126369L364.709 0.126371L364.709 5.12637ZM384.824 5.12637L394.882 5.12636L394.882 0.126364L384.824 0.126366L384.824 5.12637ZM404.939 5.12636L414.997 5.12636L414.997 0.126358L404.939 0.126361L404.939 5.12636ZM425.055 5.12636L435.113 5.12635L435.113 0.126353L425.055 0.126356L425.055 5.12636ZM445.17 5.12635L455.228 5.12635L455.228 0.126348L445.17 0.126351L445.17 5.12635ZM465.286 5.12635L475.343 5.12634L475.343 0.126343L465.286 0.126346L465.286 5.12635ZM485.401 5.12634L495.459 5.12634L495.459 0.126338L485.401 0.12634L485.401 5.12634ZM505.516 5.12634L515.574 5.12633L515.574 0.126333L505.516 0.126335L505.516 5.12634ZM525.632 5.12633L530.661 5.12633L530.661 0.126329L525.632 0.12633L525.632 5.12633Z" fill="black"/>
</svg>
