<svg width="284" height="246" viewBox="0 0 284 246" fill="none" xmlns="http://www.w3.org/2000/svg">
<g clip-path="url(#clip0_83_2)">
<path d="M85.6599 25.9022C85.6599 13.6862 80.1692 3.9129 69.6158 3.9129C60.0933 3.9129 54.0605 13.83 54.0605 25.9022" fill="#C1D8ED"/>
<path d="M69.6162 3.91593C80.1596 3.91593 85.6425 13.6724 85.6598 25.8706C85.6686 25.9588 85.6726 26.0475 85.6719 26.1363V142.945C85.6599 145.842 86.1482 148.712 87.1088 151.392C88.0694 154.072 89.4833 156.508 91.2693 158.561C93.0554 160.614 95.1783 162.243 97.5163 163.355C99.8543 164.466 102.361 165.038 104.893 165.038C107.425 165.038 109.932 164.466 112.27 163.355C114.608 162.243 116.731 160.614 118.517 158.561C120.303 156.508 121.717 154.072 122.677 151.392C123.638 148.712 124.126 145.842 124.114 142.945H185.334V28.3465C185.334 15.267 178.734 4.48695 167.301 3.91593H69.6162Z" fill="#D7E8F4"/>
<path d="M104.894 164.933H185.334C187.858 164.933 190.358 164.364 192.69 163.259C195.022 162.154 197.141 160.535 198.926 158.493C200.711 156.451 202.127 154.027 203.093 151.359C204.059 148.691 204.556 145.832 204.556 142.944H124.115C124.126 145.835 123.636 148.7 122.674 151.373C121.711 154.046 120.296 156.475 118.509 158.52C116.722 160.564 114.599 162.183 112.262 163.284C109.925 164.385 107.421 164.945 104.894 164.933Z" fill="#C1D8ED"/>
<path d="M115.064 51.1725L156.328 51.1725C158.189 51.1725 159.697 49.4469 159.697 47.3183C159.697 45.1898 158.189 43.4642 156.328 43.4642L115.064 43.4642C113.204 43.4642 111.695 45.1898 111.695 47.3183C111.695 49.4469 113.204 51.1725 115.064 51.1725Z" fill="#FAFBFC"/>
<path d="M168.116 69.9409H103.276C102.484 69.9409 101.841 70.6762 101.841 71.5831V71.5836C101.841 72.4906 102.484 73.2258 103.276 73.2258H168.116C168.909 73.2258 169.552 72.4906 169.552 71.5836V71.5831C169.552 70.6762 168.909 69.9409 168.116 69.9409Z" fill="#FAFBFC"/>
<path d="M168.116 62.0532H103.276C102.484 62.0532 101.841 62.7884 101.841 63.6954V63.6959C101.841 64.6028 102.484 65.3381 103.276 65.3381H168.116C168.909 65.3381 169.552 64.6028 169.552 63.6959V63.6954C169.552 62.7884 168.909 62.0532 168.116 62.0532Z" fill="#FAFBFC"/>
<path d="M168.116 77.8292H103.276C102.484 77.8292 101.841 78.5644 101.841 79.4714V79.4719C101.841 80.3788 102.484 81.114 103.276 81.114H168.116C168.909 81.114 169.552 80.3788 169.552 79.4719V79.4714C169.552 78.5644 168.909 77.8292 168.116 77.8292Z" fill="#FAFBFC"/>
<path d="M168.116 85.7174H103.276C102.484 85.7174 101.841 86.4527 101.841 87.3596V87.3601C101.841 88.2671 102.484 89.0023 103.276 89.0023H168.116C168.909 89.0023 169.552 88.2671 169.552 87.3601V87.3596C169.552 86.4527 168.909 85.7174 168.116 85.7174Z" fill="#FAFBFC"/>
<path d="M168.116 93.6057H103.276C102.484 93.6057 101.841 94.3409 101.841 95.2479V95.2484C101.841 96.1553 102.484 96.8906 103.276 96.8906H168.116C168.909 96.8906 169.552 96.1553 169.552 95.2484V95.2479C169.552 94.3409 168.909 93.6057 168.116 93.6057Z" fill="#FAFBFC"/>
<path d="M168.116 109.382H103.276C102.484 109.382 101.841 110.117 101.841 111.024V111.024C101.841 111.931 102.484 112.667 103.276 112.667H168.116C168.909 112.667 169.552 111.931 169.552 111.024V111.024C169.552 110.117 168.909 109.382 168.116 109.382Z" fill="#FAFBFC"/>
<path d="M168.116 101.494H103.276C102.484 101.494 101.841 102.229 101.841 103.136V103.137C101.841 104.044 102.484 104.779 103.276 104.779H168.116C168.909 104.779 169.552 104.044 169.552 103.137V103.136C169.552 102.229 168.909 101.494 168.116 101.494Z" fill="#FAFBFC"/>
<path d="M148.617 117.27H122.775C121.983 117.27 121.34 118.005 121.34 118.912V118.913C121.34 119.82 121.983 120.555 122.775 120.555H148.617C149.41 120.555 150.053 119.82 150.053 118.913V118.912C150.053 118.005 149.41 117.27 148.617 117.27Z" fill="#FAFBFC"/>
<path d="M45.9686 19.508C46.0986 21.3266 44.4417 23.0199 44.1687 24.7339C43.8862 26.5075 44.8993 28.7598 44.238 30.351C43.5677 31.9649 41.3943 32.4883 40.3895 33.8411C39.3847 35.1938 39.2829 37.7316 37.9986 38.7483C36.7325 39.751 34.6258 38.9699 33.1418 39.5746C31.7072 40.159 30.5134 42.3008 28.9232 42.4495C27.3331 42.5982 25.8534 40.7023 24.355 40.39C22.8047 40.0668 20.8358 41.2257 19.4449 40.4693C18.0341 39.7025 17.5766 37.2161 16.3941 36.0667C15.2116 34.9172 12.9932 34.8007 12.1045 33.3315C11.2279 31.8831 11.9108 29.4731 11.3822 27.7754C10.8713 26.1342 8.99906 24.7686 8.86907 22.9495C8.73908 21.1303 10.3964 19.4376 10.6694 17.7235C10.9519 15.95 9.93887 13.6976 10.6001 12.1065C11.2704 10.4926 13.4438 9.96911 14.4486 8.6164C15.4534 7.26369 15.5552 4.72581 16.8395 3.70917C18.1056 2.70641 20.2123 3.4876 21.6963 2.88287C23.131 2.29847 24.3247 0.156632 25.9149 0.00792842C27.5051 -0.140776 28.9848 1.7552 30.4831 2.06748C32.0334 2.39066 34.0023 1.23176 35.3932 1.98817C36.804 2.75499 37.2633 5.24132 38.444 6.3908C39.6248 7.54028 41.845 7.65677 42.7337 9.12596C43.6102 10.5743 42.9273 12.9843 43.456 14.682C43.9668 16.3232 45.8399 17.6888 45.9686 19.508Z" fill="#0F1011"/>
<path d="M21.6599 39.2757C22.5178 37.6152 23.4364 34.3982 23.0118 28.4253L29.9358 26.963C29.9358 26.963 29.1559 36.2818 32.6266 39.2757H21.6599Z" fill="#E98862"/>
<path opacity="0.15" d="M31.2331 37.3386L25.4863 32.3L30.003 32.2504C30.1324 34.0193 30.5496 35.745 31.2331 37.3386Z" fill="black"/>
<path d="M19.0869 24.3751C19.5636 27.5425 21.0723 30.5423 23.513 31.5679C26.1736 32.7789 29.0528 33.227 31.8995 32.873C39.4782 32.1696 37.9946 12.4559 34.3996 8.62484C30.8045 4.79373 20.2438 7.2062 18.9543 13.6094C18.2875 16.919 18.6315 21.3603 19.0869 24.3751Z" fill="#E98862"/>
<path d="M29.9301 21.9467C30.2768 21.9467 30.5579 21.6252 30.5579 21.2285C30.5579 20.8318 30.2768 20.5102 29.9301 20.5102C29.5833 20.5102 29.3022 20.8318 29.3022 21.2285C29.3022 21.6252 29.5833 21.9467 29.9301 21.9467Z" fill="#0F1011"/>
<path d="M34.8835 21.4872C35.2302 21.4872 35.5113 21.1657 35.5113 20.769C35.5113 20.3723 35.2302 20.0508 34.8835 20.0508C34.5367 20.0508 34.2556 20.3723 34.2556 20.769C34.2556 21.1657 34.5367 21.4872 34.8835 21.4872Z" fill="#0F1011"/>
<path d="M35.9728 19.2398H35.9689L34.3059 19.214C34.2297 19.2102 34.1577 19.1726 34.1051 19.1094C34.0525 19.0461 34.0234 18.9619 34.0239 18.8746C34.0244 18.7873 34.0545 18.7036 34.1078 18.6411C34.1611 18.5786 34.2335 18.5421 34.3098 18.5394H34.3137L35.9767 18.5647C36.055 18.5653 36.1298 18.6014 36.1848 18.6652C36.2397 18.7289 36.2703 18.815 36.2698 18.9045C36.2693 18.994 36.2377 19.0796 36.182 19.1425C36.1263 19.2054 36.0511 19.2404 35.9728 19.2398Z" fill="#0F1011"/>
<path d="M28.5756 19.9263C28.5035 19.926 28.434 19.8955 28.3802 19.8405C28.3264 19.7855 28.2921 19.7099 28.2837 19.628C28.2754 19.546 28.2935 19.4634 28.3348 19.3957C28.376 19.328 28.4375 19.28 28.5076 19.2606L30.1476 18.8111C30.1857 18.7993 30.2255 18.7963 30.2646 18.8025C30.3037 18.8086 30.3414 18.8236 30.3753 18.8467C30.4093 18.8697 30.4388 18.9003 30.4622 18.9367C30.4856 18.973 30.5025 19.0144 30.5116 19.0583C30.5208 19.1022 30.5222 19.1478 30.5157 19.1923C30.5093 19.2369 30.495 19.2795 30.4739 19.3176C30.4528 19.3558 30.4252 19.3887 30.3927 19.4144C30.3603 19.4401 30.3236 19.4581 30.285 19.4673L28.645 19.9169C28.6223 19.9232 28.599 19.9264 28.5756 19.9263Z" fill="#0F1011"/>
<path d="M30.2161 26.8857C30.2161 26.8857 32.5333 27.1677 34.159 26.5199C34.159 26.5199 34.1447 28.2662 32.311 28.4362C30.4773 28.6062 30.2161 26.8857 30.2161 26.8857Z" fill="#F8FCFF"/>
<path d="M24.1926 16.176C24.6474 23.5983 23.9333 31.0537 22.0842 38.1872C22.0842 38.1872 16.801 27.7655 15.9838 19.0886C15.2178 10.9545 20.4611 6.15734 24.0015 5.25421C37.4557 1.82857 38.4242 13.0716 38.4242 13.0716C35.973 18.9023 22.7363 18.8765 22.7363 18.8765" fill="#0F1011"/>
<path d="M26.7577 24.321C26.8063 25.1206 26.5774 25.9099 26.1206 26.5177C25.6638 27.1255 25.0159 27.5027 24.3175 27.5674C23.6191 27.6322 22.9266 27.3794 22.3902 26.8638C21.8537 26.3482 21.5166 25.6114 21.452 24.8132C21.4177 24.4134 21.454 24.0097 21.5589 23.6263C21.6638 23.2428 21.8351 22.8875 22.0626 22.5813C22.29 22.2752 22.569 22.0246 22.8829 21.8443C23.1968 21.6641 23.5392 21.558 23.8897 21.5323C25.7867 21.4629 26.639 22.6451 26.7577 24.321Z" fill="#E98862"/>
<g opacity="0.15">
<path d="M32.7137 25.2152C32.6618 25.2152 32.6117 25.1938 32.5724 25.155C32.5332 25.1163 32.5073 25.0627 32.4997 25.004C32.492 24.9453 32.503 24.8854 32.5307 24.8352C32.5583 24.7851 32.6008 24.7479 32.6504 24.7305L33.9273 24.2844L33.0365 22.0082C33.013 21.9482 33.0113 21.8799 33.0317 21.8185C33.0522 21.7571 33.0932 21.7074 33.1457 21.6805C33.1981 21.6537 33.2578 21.6517 33.3115 21.6751C33.3652 21.6986 33.4086 21.7454 33.4321 21.8055L34.4239 24.3384C34.4364 24.3704 34.4428 24.4052 34.4427 24.4403C34.4426 24.4754 34.436 24.5101 34.4233 24.542C34.4106 24.574 34.3921 24.6025 34.3691 24.6257C34.346 24.6488 34.3189 24.6662 34.2896 24.6764L32.7778 25.2058C32.757 25.2126 32.7353 25.2158 32.7137 25.2152Z" fill="black"/>
</g>
<path d="M44.7658 108.244C53.4101 151.808 61.2375 195.665 67.4146 239.781L58.7314 241.824C49.1855 198.502 41.2445 154.671 34.1558 110.741L44.7658 108.244Z" fill="#E98862"/>
<path d="M26.8977 110.943C27.6914 154.221 27.6343 197.598 25.9136 240.847H17.0489C15.3291 197.598 15.2724 154.221 16.0653 110.943H26.8977Z" fill="#E98862"/>
<path d="M37.383 244.846C37.6277 244.845 37.8695 244.786 38.0933 244.672C38.3172 244.559 38.5182 244.395 38.684 244.189C38.8497 243.983 38.9765 243.74 39.0566 243.475C39.1366 243.211 39.1681 242.93 39.1491 242.651C39.123 242.264 39.0006 241.894 38.7965 241.583C38.5924 241.273 38.3149 241.036 37.9969 240.9L27.4064 236.843C27.2012 236.765 26.9837 236.739 26.7688 236.766C26.5539 236.793 26.3468 236.873 26.1615 237.001C24.7056 238.156 22.9641 238.747 21.1929 238.686C19.8132 238.574 18.4889 238.021 17.3708 237.089C17.2726 236.997 17.1534 236.939 17.0273 236.921C16.9012 236.903 16.7732 236.927 16.6584 236.989C16.5436 237.052 16.4467 237.15 16.3789 237.273C16.3112 237.396 16.2755 237.539 16.2759 237.684V243.608C16.2758 243.783 16.306 243.956 16.3645 244.118C16.4231 244.279 16.509 244.426 16.6173 244.549C16.7256 244.672 16.8541 244.77 16.9954 244.836C17.1368 244.903 17.2882 244.937 17.441 244.936L37.383 244.846Z" fill="#C1D8ED"/>
<path d="M77.997 244.846C78.2417 244.845 78.4835 244.786 78.7074 244.673C78.9313 244.56 79.1324 244.395 79.2981 244.189C79.4639 243.983 79.5907 243.74 79.6707 243.475C79.7507 243.211 79.7822 242.93 79.7631 242.651C79.737 242.264 79.6147 241.894 79.4106 241.583C79.2066 241.273 78.9293 241.036 78.6114 240.9L68.0204 236.843C67.8152 236.765 67.5978 236.739 67.383 236.766C67.1682 236.793 66.9611 236.873 66.7759 237.001C65.3199 238.156 63.5782 238.747 61.8069 238.686C60.4274 238.574 59.1032 238.021 57.9853 237.089C57.887 236.997 57.7678 236.939 57.6417 236.921C57.5155 236.903 57.3876 236.927 57.2728 236.989C57.1579 237.052 57.061 237.15 56.9932 237.273C56.9254 237.396 56.8896 237.539 56.8899 237.684V243.608C56.8899 243.783 56.9201 243.956 56.9787 244.118C57.0373 244.279 57.1232 244.426 57.2314 244.549C57.3397 244.672 57.4682 244.77 57.6095 244.836C57.7508 244.903 57.9022 244.936 58.055 244.936L77.997 244.846Z" fill="#C1D8ED"/>
<path d="M10.5724 92.2574C10.5724 92.2574 5.65016 117.473 5.65016 138.68C5.65016 159.887 0 192.731 0 192.731C0 192.731 16.0176 189.767 26.8833 192.731C45.6056 197.837 62.3944 186.717 62.3944 186.717L43.5375 94.5852L10.5724 92.2574Z" fill="#262626"/>
<path d="M95.7799 68.6472C95.7799 68.6472 99.3368 66.67 102.008 67.4288C104.679 68.1877 103.428 69.5028 101.484 69.9707C99.5396 70.4386 95.269 71.1995 95.269 71.1995" fill="#E98862"/>
<path d="M97.8575 68.5525C97.8575 68.5525 104.451 67.7595 104.52 69.5746C104.52 69.5746 104.809 75.1733 103.913 76.0393C102.561 77.3459 95.863 76.3228 95.863 76.3228L97.8575 68.5525Z" fill="#E98862"/>
<path d="M80.4261 77.8059H54.6541C53.8911 77.8059 53.1404 77.5863 52.471 77.1674C51.8016 76.7485 51.235 76.1438 50.8234 75.4088L34.5393 46.3282L42.203 40.7137L57.1447 67.3966H80.4278L80.4261 77.8059Z" fill="#FCEA2B"/>
<path d="M45.626 95.5458C43.8105 100.319 8.13731 102.302 7.66069 93.9051C7.35738 88.5611 11.4737 83.8973 11.4737 73.4831C11.4737 63.0688 3.09896 49.7692 9.92248 41.9623C11.9026 39.6975 15.3213 38.2353 19.4896 38.2303C19.8016 41.0106 34.5596 41.021 34.6723 38.2947C35.2356 38.3047 35.6732 38.3141 35.9462 38.3294C50.3229 39.0383 44.0054 57.7551 43.8668 71.5053C43.6987 87.5951 47.4987 90.6286 45.626 95.5458Z" fill="#FCEA2B"/>
<path d="M34.6731 38.2947C34.5605 41.021 33.2649 45.0305 29.2656 45.3334C23.9361 45.7349 19.8025 41.0106 19.4905 38.2303H19.5035C24.7507 38.2303 31.6141 38.2402 34.6731 38.2947Z" fill="#E98862"/>
<path d="M103.911 76.0433C103.79 76.1539 103.654 76.2422 103.508 76.305C102.731 76.4884 100.772 75.952 100.458 75.3305C99.9468 74.3188 100.264 70.6636 100.715 69.3372C101.138 68.098 103.247 68.617 103.524 68.676C103.532 68.6794 103.541 68.6821 103.55 68.6839C104.125 68.8643 104.503 69.1459 104.519 69.5786C104.519 69.5786 104.81 75.1748 103.911 76.0433Z" fill="#E98862"/>
<path d="M46.5081 79.4223C46.5081 79.4223 47.5519 72.9021 51.5841 74.0367C54.128 74.753 61.5213 73.4751 61.6335 77.2121C61.731 80.4548 54.7875 81.3193 52.491 81.0491C50.4298 80.8067 46.5081 79.4223 46.5081 79.4223Z" fill="#E98862"/>
<path d="M50.1074 73.9649C50.1074 73.9649 56.1055 72.9527 57.4453 73.6045C58.6316 74.181 55.7121 75.9838 55.7121 75.9838L50.1074 73.9649Z" fill="#E98862"/>
<path d="M52.0262 83.0432L25.214 82.1074C24.3771 82.0783 23.562 81.7952 22.8523 81.2872C22.1425 80.7791 21.5636 80.0643 21.1748 79.2161L7.93677 50.3403L16.3037 45.3205L28.26 71.4007L52.3144 72.2404L52.0262 83.0432Z" fill="#FCEA2B"/>
<path d="M204.056 240.637L213.092 239.408C212.685 235.496 212.226 230.796 212.194 230.025C212.194 230.075 212.194 230.115 212.194 230.147H203.095C203.096 230.459 203.096 231.409 204.056 240.637Z" fill="#E98862"/>
<path d="M240.313 241.881L249.412 241.848C249.412 241.848 249.381 231.099 249.381 230.147H240.282C240.282 231.102 240.313 241.881 240.313 241.881Z" fill="#E98862"/>
<path d="M200.699 237.038C201.452 215.224 201.498 192.312 201.734 170.44C204.862 146.849 206.508 120.975 210.371 97.5498L210.487 97.5885L210.826 94.947L243.789 92.6173L244.949 117.253C246.608 150.255 249.816 203.31 251.757 236.755L235.782 238.303C232.928 205.41 228.709 153.009 226.131 120.59C223.302 137.109 220.201 155.712 217.689 172.427C217.139 193.78 216.679 216.032 216.729 237.35L200.699 237.038Z" fill="#262626"/>
<path d="M229.251 245.907C229.006 245.906 228.764 245.847 228.541 245.734C228.317 245.621 228.116 245.456 227.95 245.25C227.784 245.044 227.657 244.801 227.577 244.537C227.497 244.272 227.466 243.992 227.485 243.712C227.511 243.326 227.634 242.955 227.838 242.645C228.042 242.336 228.319 242.099 228.637 241.963L239.228 237.905C239.433 237.827 239.65 237.801 239.865 237.829C240.08 237.856 240.287 237.936 240.472 238.064C241.928 239.219 243.67 239.81 245.441 239.749C246.821 239.637 248.145 239.083 249.263 238.152C249.361 238.06 249.481 238.001 249.607 237.984C249.733 237.966 249.861 237.99 249.976 238.052C250.09 238.114 250.187 238.213 250.255 238.336C250.323 238.459 250.359 238.601 250.358 238.747V244.673C250.358 244.847 250.328 245.02 250.269 245.182C250.211 245.343 250.125 245.49 250.017 245.613C249.908 245.736 249.78 245.834 249.638 245.901C249.497 245.967 249.346 246.001 249.193 246L229.251 245.907Z" fill="#C1D8ED"/>
<path d="M192.97 245.907C192.725 245.906 192.483 245.847 192.259 245.734C192.036 245.621 191.834 245.456 191.669 245.25C191.503 245.044 191.376 244.801 191.296 244.537C191.216 244.272 191.184 243.992 191.203 243.712C191.23 243.326 191.352 242.956 191.556 242.646C191.761 242.336 192.038 242.099 192.356 241.963L202.947 237.905C203.152 237.827 203.369 237.801 203.584 237.829C203.799 237.856 204.006 237.936 204.191 238.064C205.647 239.219 207.389 239.81 209.16 239.749C210.539 239.637 211.864 239.083 212.982 238.152C213.08 238.06 213.199 238.001 213.325 237.984C213.451 237.966 213.579 237.99 213.694 238.052C213.809 238.114 213.906 238.213 213.974 238.336C214.041 238.459 214.077 238.601 214.077 238.747V244.673C214.077 244.847 214.046 245.02 213.988 245.182C213.929 245.343 213.843 245.49 213.735 245.613C213.627 245.736 213.499 245.834 213.357 245.9C213.216 245.967 213.065 246.001 212.912 246L192.97 245.907Z" fill="#C1D8ED"/>
<path d="M231.126 128.596V160.794C231.126 162.091 231.577 163.335 232.378 164.252C233.18 165.169 234.267 165.684 235.401 165.684H279.725C280.859 165.684 281.946 165.169 282.748 164.252C283.55 163.335 284 162.091 284 160.794V128.596C284 127.299 283.55 126.055 282.748 125.138C281.946 124.221 280.859 123.706 279.725 123.706H268.01V120.308C268.009 119.096 267.587 117.934 266.838 117.077C266.089 116.22 265.073 115.738 264.014 115.736H251.112C250.052 115.738 249.037 116.22 248.288 117.077C247.538 117.934 247.117 119.096 247.116 120.308V123.706H235.401C234.267 123.706 233.18 124.221 232.378 125.138C231.577 126.055 231.126 127.299 231.126 128.596ZM265.41 123.706H249.715V120.308C249.716 119.884 249.863 119.478 250.125 119.179C250.387 118.879 250.742 118.711 251.112 118.71H264.014C264.384 118.711 264.739 118.879 265.001 119.179C265.263 119.478 265.41 119.884 265.41 120.308V123.706Z" fill="#0CBC8B"/>
<path d="M171.325 82.043C170.068 82.3795 165.709 82.7468 165.659 84.0485C165.629 84.8292 168.938 84.8545 168.938 84.8545" fill="#E98862"/>
<path d="M168.867 91.6198C174.064 90.2273 177.931 87.4102 177.505 85.3277C177.078 83.2452 172.52 82.6859 167.323 84.0784C162.126 85.4709 158.259 88.288 158.686 90.3705C159.112 92.453 163.67 93.0123 168.867 91.6198Z" fill="#E98862"/>
<path d="M253.469 109.492C253.469 110.969 252.787 115.907 253.884 116.26C254.541 116.471 255.318 112.79 255.318 112.79" fill="#E98862"/>
<path d="M258.645 108.716C258.645 108.716 262.354 113.288 259.833 118.71C259.483 119.462 256.076 119.904 256.076 118.983C256.076 115.116 255.813 112.084 253.587 113.011V106.783" fill="#E98862"/>
<path d="M193.943 71.0587L210.078 43.4756L210.173 43.5485C211.56 41.129 213.941 39.583 217.875 39.3907C218.147 39.3758 218.585 39.3659 219.148 39.356C219.261 42.0822 234.019 42.0723 234.331 39.2916C238.499 39.2965 241.918 40.7588 243.898 43.024C244.819 44.0669 245.525 45.3313 245.966 46.7253L246.018 46.6985L256.492 73.6754C256.674 74.144 256.797 74.6399 256.856 75.1481L260.925 109.761L251.562 111.201L247.585 77.3553L243.458 66.725C242.796 69.2661 242.423 71.8942 242.348 74.5443C242.348 84.9585 246.465 89.6229 246.161 94.9663C245.685 103.363 210.012 101.38 208.196 96.607C206.324 91.6899 210.124 88.6563 209.955 72.5666C209.887 69.7429 209.691 66.9251 209.369 64.1246L200.931 78.5489C200.369 79.5097 199.553 80.2393 198.602 80.6308L172.19 91.4862L168.996 81.3138L193.943 71.0587Z" fill="#EA394A"/>
<path d="M219.15 39.357C219.262 42.0833 220.558 46.0933 224.557 46.3957C229.887 46.7972 234.02 42.0733 234.332 39.2926H234.319C229.072 39.2916 222.209 39.3015 219.15 39.357Z" fill="#E98862"/>
<path d="M230.657 32.8586C230.641 31.7404 230.675 30.622 230.76 29.5078C229.597 29.26 225.08 28.3043 223.837 28.0406C224.077 29.0126 223.859 36.3631 222.537 38.4053C222.208 39.1381 221.747 39.7833 221.185 40.2988H232.072C231.397 38.9704 230.704 36.6803 230.657 32.8586Z" fill="#E98862"/>
<path opacity="0.15" d="M222.531 38.4122L228.282 33.3791L223.766 33.3256C223.635 35.0943 223.216 36.8194 222.531 38.4122Z" fill="black"/>
<path d="M234.687 25.4611C233.806 32.9082 227.526 34.5018 221.868 33.9457C214.29 33.2349 215.789 13.5236 219.387 9.69402C222.985 5.86439 233.546 8.28976 234.829 14.6939C235.493 18.0061 235.144 22.4469 234.687 25.4611Z" fill="#E98862"/>
<path d="M214.086 7.86397C214.082 5.23686 216.952 0.95964 224.541 6.87756C228.703 6.96431 231.117 7.2176 234.179 9.83132C240.909 15.088 235.061 31.5798 231.012 32.7451C230.598 33.0272 230.498 32.7977 230.354 32.2707C229.902 30.3237 229.578 28.3405 229.386 26.338C229.139 24.2561 227.503 22.9326 227.701 20.4394C227.77 19.568 228.997 16.3748 225.2 16.3386C216.912 16.9716 213.158 15.5064 214.086 7.86397Z" fill="#0F1011"/>
<path d="M227.113 24.0613C226.781 27.9935 232.187 28.5011 232.418 24.557C232.817 20.4974 227.03 20.2094 227.113 24.0613Z" fill="#E98862"/>
<path d="M228.282 14.4025L230.242 15.2233C229.644 17.1029 230.699 34.4706 225.177 34.7125C217.765 35.7623 216.435 33.2016 216.713 26.509C228.066 27.9821 227.216 26.1223 228.282 14.4025Z" fill="#0F1011"/>
<path d="M223.222 22.2451C223.213 22.4316 223.269 22.6143 223.376 22.7548C223.484 22.8952 223.635 22.9823 223.798 22.9975C223.96 23.0127 224.122 22.9548 224.248 22.8363C224.374 22.7177 224.454 22.5476 224.473 22.3621C224.481 22.1757 224.426 21.9929 224.318 21.8525C224.211 21.712 224.059 21.625 223.897 21.6098C223.734 21.5946 223.573 21.6524 223.447 21.771C223.321 21.8896 223.24 22.0596 223.222 22.2451Z" fill="#0F1011"/>
<path d="M218.268 21.7802C218.257 21.9685 218.311 22.1542 218.419 22.2973C218.526 22.4403 218.679 22.5292 218.843 22.5446C219.008 22.56 219.171 22.5008 219.297 22.3797C219.424 22.2587 219.504 22.0855 219.52 21.8977C219.531 21.7094 219.477 21.5236 219.369 21.3806C219.262 21.2375 219.109 21.1487 218.945 21.1332C218.78 21.1178 218.617 21.177 218.49 21.2981C218.364 21.4191 218.284 21.5923 218.268 21.7802Z" fill="#0F1011"/>
<path d="M217.806 20.3085C217.806 20.3085 219.471 20.2842 219.473 20.2847C219.549 20.2805 219.621 20.2425 219.673 20.1788C219.726 20.1152 219.754 20.0307 219.754 19.9433C219.753 19.8559 219.722 19.7724 219.668 19.7102C219.615 19.6481 219.542 19.6122 219.465 19.6101L217.802 19.6339C217.726 19.6378 217.654 19.6753 217.602 19.7386C217.549 19.8019 217.52 19.886 217.521 19.9733C217.521 20.0607 217.551 20.1444 217.604 20.2069C217.658 20.2694 217.73 20.3058 217.806 20.3085Z" fill="#0F1011"/>
<path d="M225.202 21.002C226.396 20.3387 223.894 20.018 223.631 19.8852C223.556 19.8665 223.477 19.8824 223.412 19.9293C223.346 19.9762 223.3 20.0505 223.282 20.1363C223.264 20.222 223.276 20.3125 223.315 20.3882C223.355 20.4639 223.419 20.5189 223.493 20.5415C223.575 20.5534 225.117 21.0084 225.202 21.002Z" fill="#0F1011"/>
<g opacity="0.15">
<path d="M221.06 26.2874C221.951 25.8284 220.02 25.4789 219.847 25.354L220.74 23.0784C220.575 21.5328 219.459 25.3367 219.353 25.4081C219.149 25.9102 220.866 26.1357 221.06 26.2874Z" fill="black"/>
</g>
<path d="M223.557 27.9603C223.557 27.9603 221.239 28.2399 219.614 27.5905C219.547 29.8697 223.304 30.2137 223.557 27.9603Z" fill="#F8FCFF"/>
<path d="M185.334 42.8733C193.016 42.8733 199.242 35.75 199.242 26.963C199.242 18.176 193.016 11.0527 185.334 11.0527C177.653 11.0527 171.427 18.176 171.427 26.963C171.427 35.75 177.653 42.8733 185.334 42.8733Z" fill="#8DDBE0"/>
<path d="M183.284 33.4867C183.045 33.4866 182.815 33.3822 182.641 33.1947L178.095 28.2875C178.005 28.1909 177.933 28.0751 177.883 27.9466C177.833 27.8182 177.805 27.6797 177.801 27.539C177.798 27.3983 177.819 27.2582 177.862 27.1267C177.906 26.9952 177.972 26.8748 178.057 26.7724C178.141 26.6701 178.242 26.5877 178.354 26.5301C178.467 26.4725 178.588 26.4408 178.711 26.4367C178.834 26.4326 178.956 26.4563 179.071 26.5064C179.186 26.5565 179.291 26.632 179.381 26.7286L183.232 30.8858L191.24 20.7903C191.409 20.5883 191.64 20.4696 191.884 20.4598C192.128 20.4499 192.366 20.5495 192.547 20.7374C192.728 20.9253 192.838 21.1866 192.852 21.4656C192.867 21.7445 192.786 22.0191 192.627 22.2308L183.976 33.1357C183.893 33.2412 183.791 33.3265 183.678 33.3868C183.565 33.447 183.443 33.481 183.319 33.4867H183.284Z" fill="white"/>
</g>
<defs>
<clipPath id="clip0_83_2">
<rect width="284" height="246" fill="white"/>
</clipPath>
</defs>
</svg>
