<svg width="486" height="398" viewBox="0 0 486 398" fill="none" xmlns="http://www.w3.org/2000/svg">
<path opacity="0.1" d="M323.284 25.281C202.551 -30.6965 57.7458 65.5407 24.2292 144.922C-56.2527 335.533 84.3924 423.501 146.264 391.326C172.094 377.892 193.193 354.953 213.584 332.635C244.201 299.411 284.768 280.265 327.307 278.96C360.069 278.114 392.673 287.996 425.341 285.095C458.009 282.193 486.866 231.546 485.98 194.721C484.629 138.516 452.751 85.3053 323.284 25.281Z" fill="#367CFF"/>
<path d="M406.416 20.2861H79.5848C68.7468 20.2861 59.9609 30.1627 59.9609 42.3461V331.472C59.9609 343.656 68.7468 353.532 79.5848 353.532H406.416C417.254 353.532 426.04 343.656 426.04 331.472V42.3461C426.04 30.1627 417.254 20.2861 406.416 20.2861Z" fill="white"/>
<path d="M406.416 354.225H79.584C74.218 354.218 69.0735 351.818 65.2792 347.553C61.4849 343.288 59.3507 337.504 59.3447 331.472V42.3461C59.3507 36.3139 61.4849 30.5307 65.2792 26.2652C69.0735 21.9998 74.218 19.6004 79.584 19.5935H406.416C411.782 19.6004 416.927 21.9998 420.721 26.2652C424.515 30.5307 426.65 36.3139 426.656 42.3461V331.472C426.65 337.504 424.515 343.288 420.721 347.553C416.927 351.818 411.782 354.218 406.416 354.225ZM79.584 20.9779C74.5445 20.9844 69.713 23.2378 66.1496 27.2437C62.5862 31.2496 60.5818 36.6809 60.5762 42.3461V331.472C60.5818 337.137 62.5862 342.569 66.1496 346.575C69.713 350.58 74.5445 352.834 79.584 352.84H406.416C411.456 352.834 416.287 350.58 419.851 346.575C423.414 342.569 425.418 337.137 425.424 331.472V42.3461C425.418 36.6809 423.414 31.2496 419.851 27.2437C416.287 23.2378 411.456 20.9844 406.416 20.9779H79.584Z" fill="#292A2E"/>
<path d="M130.944 155.838L121.968 148.159L145.904 127.68H163.856L130.944 155.838Z" stroke="black" stroke-width="2" stroke-linecap="round" stroke-linejoin="round"/>
<path d="M151.888 173.758L136.928 160.958L151.888 148.159H166.847L151.888 160.958L166.847 173.758H151.888Z" stroke="black" stroke-width="2" stroke-linecap="round" stroke-linejoin="round"/>
<path d="M426.04 42.3482V84.1796H59.9624V42.3482C59.9617 39.4506 60.4689 36.5813 61.4549 33.9041C62.4409 31.2269 63.8865 28.7943 65.709 26.7453C67.5316 24.6963 69.6954 23.0711 72.0768 21.9624C74.4582 20.8537 77.0107 20.2833 79.5883 20.2838H406.418C411.623 20.2847 416.614 22.6099 420.294 26.7477C423.974 30.8856 426.041 36.4972 426.04 42.3482Z" fill="#FFC239"/>
<path d="M426.701 84.9226H59.3018V42.3482C59.3068 36.3015 61.4457 30.5041 65.2489 26.2282C69.0521 21.9523 74.2091 19.5471 79.588 19.5406H406.418C411.796 19.5481 416.952 21.9536 420.755 26.2294C424.557 30.5052 426.696 36.3021 426.701 42.3482V84.9226ZM60.6251 83.4364H425.379V42.3482C425.374 36.6962 423.375 31.2772 419.82 27.2801C416.265 23.283 411.445 21.0341 406.418 21.0268H79.588C74.5596 21.0331 69.7389 23.2816 66.1835 27.2788C62.6282 31.2761 60.6287 36.6956 60.6238 42.3482L60.6251 83.4364Z" fill="#367CFF"/>
<path d="M155.048 41.9566V11.0761C155.048 5.39134 150.949 0.782898 145.892 0.782898C140.835 0.782898 136.735 5.39134 136.735 11.0761V41.9566C136.735 47.6414 140.835 52.2498 145.892 52.2498C150.949 52.2498 155.048 47.6414 155.048 41.9566Z" fill="white"/>
<path d="M145.889 52.9416C143.299 52.9377 140.815 51.7789 138.984 49.7195C137.152 47.66 136.122 44.868 136.119 41.9558V11.0761C136.109 9.62591 136.354 8.18768 136.84 6.8444C137.326 5.50112 138.044 4.27938 138.953 3.24967C139.861 2.21996 140.942 1.40266 142.133 0.844909C143.324 0.287158 144.601 0 145.892 0C147.182 0 148.459 0.287158 149.65 0.844909C150.841 1.40266 151.922 2.21996 152.83 3.24967C153.739 4.27938 154.457 5.50112 154.943 6.8444C155.429 8.18768 155.674 9.62591 155.664 11.0761V41.9558C155.661 44.8689 154.63 47.6617 152.798 49.7213C150.965 51.7809 148.481 52.9391 145.889 52.9416ZM145.889 1.47472C143.625 1.47747 141.454 2.48993 139.852 4.28995C138.251 6.08997 137.351 8.53053 137.348 11.0761V41.9558C137.338 43.2238 137.552 44.4814 137.977 45.656C138.401 46.8307 139.029 47.8991 139.823 48.7996C140.617 49.7002 141.562 50.415 142.603 50.9028C143.644 51.3906 144.761 51.6417 145.889 51.6417C147.017 51.6417 148.134 51.3906 149.175 50.9028C150.216 50.415 151.161 49.7002 151.955 48.7996C152.749 47.8991 153.376 46.8307 153.801 45.656C154.226 44.4814 154.44 43.2238 154.43 41.9558V11.0761C154.427 8.53066 153.527 6.09021 151.926 4.29022C150.324 2.49022 148.154 1.47767 145.889 1.47472Z" fill="#262626"/>
<path d="M349.266 41.956V11.0755C349.266 5.39074 345.167 0.782288 340.11 0.782288C335.053 0.782288 330.953 5.39074 330.953 11.0755V41.956C330.953 47.6408 335.053 52.2492 340.11 52.2492C345.167 52.2492 349.266 47.6408 349.266 41.956Z" fill="white"/>
<path d="M340.11 52.9417C337.519 52.9386 335.034 51.7802 333.202 49.7206C331.37 47.6611 330.34 44.8686 330.337 41.956V11.0762C330.337 8.16263 331.367 5.36835 333.199 3.30812C335.032 1.24788 337.518 0.0904541 340.11 0.0904541C342.701 0.0904541 345.187 1.24788 347.02 3.30812C348.853 5.36835 349.882 8.16263 349.882 11.0762V41.956C349.879 44.8686 348.849 47.6611 347.017 49.7206C345.185 51.7802 342.701 52.9386 340.11 52.9417ZM340.11 1.47482C337.846 1.47836 335.675 2.49117 334.074 4.29111C332.474 6.09104 331.574 8.53115 331.571 11.0762V41.956C331.571 44.5024 332.471 46.9446 334.073 48.7452C335.674 50.5458 337.847 51.5574 340.112 51.5574C342.377 51.5574 344.55 50.5458 346.152 48.7452C347.753 46.9446 348.653 44.5024 348.653 41.956V11.0762C348.651 8.53012 347.75 6.08911 346.148 4.28901C344.546 2.4889 342.374 1.47679 340.11 1.47482Z" fill="#262626"/>
</svg>
