<svg width="421" height="484" viewBox="0 0 421 484" fill="none" xmlns="http://www.w3.org/2000/svg">
<path d="M0 20C0 8.9543 8.9543 0 20 0H401C412.046 0 421 8.9543 421 20V49C421 60.0457 412.046 69 401 69H20C8.9543 69 0 60.0457 0 49V20Z" fill="white"/>
<path d="M0 129.5C0 118.454 8.9543 109.5 20 109.5H401C412.046 109.5 421 118.454 421 129.5V158.5C421 169.546 412.046 178.5 401 178.5H20C8.9543 178.5 0 169.546 0 158.5V129.5Z" fill="white"/>
<path d="M0 231.5C0 220.454 8.9543 211.5 20 211.5H401C412.046 211.5 421 220.454 421 231.5V463.5C421 474.546 412.046 483.5 401 483.5H20C8.9543 483.5 0 474.546 0 463.5V231.5Z" fill="white"/>
</svg>
