<svg width="724" height="541" viewBox="0 0 724 541" fill="none" xmlns="http://www.w3.org/2000/svg">
<path fill-rule="evenodd" clip-rule="evenodd" d="M3.43323e-05 489.278H24.1334C48.2667 489.278 96.5334 513.137 144.8 451.977C193.067 390.817 229.243 377.227 277.51 418C325.776 458.773 351.1 472.5 399.367 472.5C481.867 472.5 545.733 386.5 594 386.5C642.267 386.5 699.867 439.067 724 541V0H699.867C675.733 0 627.467 0 579.2 0C530.933 0 482.667 0 434.4 0C386.133 0 337.867 0 289.6 0C241.333 0 193.067 0 144.8 0C96.5334 0 48.2667 0 24.1334 0H3.43323e-05V489.278Z" fill="#DEE6F5"/>
</svg>
